<?xml version="1.0" encoding="UTF-8"?>
<svg id="_图层_1" data-name="图层_1" xmlns="http://www.w3.org/2000/svg" version="1.1" viewBox="0 0 1024 1024">
  <!-- Generator: Adobe Illustrator 29.0.1, SVG Export Plug-In . SVG Version: 2.1.0 Build 192)  -->
  <defs>
    <style>
      .st0 {
        fill: var(--bt-layout-icon-color, #666666);
      }

      .st1 {
        fill: none;
        stroke: var(--bt-layout-icon-color, #666666);
        stroke-linecap: round;
        stroke-width: 40px;
      }
    </style>
  </defs>
  <path class="st1" d="M372.1,960c-73.3-32.71-133.85-83.69-173.64-151.94"/>
  <path class="st1" d="M634.88,98.13c72.94-20.75,148.24-1,200.8,52.69"/>
  <path class="st0" d="M164.48,366.97l-16.19-28.32,16.19,28.32ZM272.86,388.76l28.18-16.43h0l-28.18,16.43ZM129.35,470.78l-28.18,16.43,28.18-16.43ZM324.82,149.75l28.18-16.43h0l-28.18,16.43ZM361.44,212.54l-28.18,16.43h0l28.18-16.43ZM443.12,417.37c9.08,15.56,29.05,20.82,44.62,11.75,15.56-9.08,20.82-29.05,11.75-44.62l-56.36,32.87ZM317.92,530.79c9.08,15.56,29.05,20.82,44.62,11.75,15.56-9.08,20.82-29.05,11.75-44.62l-56.36,32.87ZM181.31,231.77l-28.18,16.43h0l28.18-16.43ZM504.96,130.52l28.18-16.43h0l-28.18,16.43ZM614.82,318.92l28.18-16.43-28.18,16.43ZM688.06,444.51l16.19,28.32c7.55-4.32,13.07-11.47,15.32-19.88,2.25-8.41,1.06-17.36-3.33-24.88l-28.18,16.43ZM758.33,236.9l-28.18,16.43h0l28.18-16.43ZM868.19,425.29l28.19-16.43-28.19,16.43ZM294.13,753.37l28.18-16.43-28.18,16.43ZM727.64,840.52l-16.19-28.32,16.19,28.32ZM589.6,668.56c9.08,15.56,29.05,20.82,44.62,11.75,15.56-9.08,20.82-29.05,11.75-44.62l-56.36,32.87ZM164.48,366.97l16.19,28.32c27.56-15.75,54.7-6.07,64.01,9.9l28.18-16.43,28.18-16.43c-31.14-53.4-101.05-63.22-152.75-33.68l16.19,28.32ZM164.48,366.97l-16.19-28.32c-51.8,29.6-78.43,94.89-47.13,148.57l28.18-16.43,28.18-16.43c-9.15-15.69-4.32-43.36,23.14-59.05l-16.19-28.32ZM324.82,149.75l-28.18,16.43,36.62,62.8,28.18-16.43,28.18-16.43-36.62-62.8-28.18,16.43ZM361.44,212.54l-28.18,16.43,109.86,188.39,28.18-16.43,28.18-16.43-109.86-188.39-28.18,16.43ZM346.1,514.36l28.18-16.43-73.24-125.59-28.18,16.43-28.18,16.43,73.24,125.59,28.18-16.43ZM272.86,388.76l28.18-16.43-91.55-156.99-28.18,16.43-28.18,16.43,91.55,156.99,28.18-16.43ZM216.45,127.96l16.19,28.32c27.56-15.75,54.7-6.07,64.01,9.9l28.18-16.43,28.18-16.43c-31.14-53.4-101.05-63.22-152.75-33.68l16.19,28.32ZM216.45,127.96l-16.19-28.32c-51.8,29.6-78.43,94.89-47.13,148.57l28.18-16.43,28.18-16.43c-9.15-15.69-4.32-43.35,23.14-59.05l-16.19-28.32ZM504.96,130.52l-28.18,16.43,109.86,188.39,28.18-16.43,28.18-16.43-109.86-188.39-28.18,16.43ZM614.82,318.92l-28.18,16.43,73.24,125.59,28.18-16.43,28.18-16.43-73.24-125.59-28.18,16.43ZM396.58,108.74l16.19,28.32c27.56-15.75,54.7-6.07,64.01,9.9l28.18-16.43,28.18-16.43c-31.14-53.4-101.05-63.22-152.75-33.68l16.19,28.32ZM396.58,108.74l-16.19-28.32c-51.8,29.6-78.43,94.89-47.13,148.57l28.18-16.43,28.18-16.43c-9.15-15.69-4.32-43.36,23.14-59.05l-16.19-28.32ZM758.33,236.9l-28.18,16.43,109.86,188.39,28.18-16.43,28.19-16.43-109.86-188.39-28.19,16.43ZM649.96,215.11l16.19,28.32c27.56-15.75,54.7-6.07,64.01,9.9l28.18-16.43,28.19-16.43c-31.14-53.4-101.05-63.22-152.75-33.68l16.19,28.32ZM649.96,215.11l-16.19-28.32c-51.8,29.6-78.43,94.89-47.13,148.57l28.18-16.43,28.18-16.43c-9.15-15.69-4.32-43.36,23.14-59.05l-16.19-28.32ZM129.35,470.78l-28.18,16.43,164.79,282.59,28.18-16.43,28.18-16.43-164.79-282.59-28.18,16.43ZM727.64,840.52l-16.19-28.32c-146.45,83.7-319.15,44.75-389.14-75.26l-28.18,16.43-28.18,16.43c91.81,157.45,307.29,196.54,477.88,99.04l-16.19-28.32ZM868.19,425.29l-28.18,16.43c69.82,119.74,17.8,286.83-128.56,370.47l16.19,28.32,16.19,28.32c170.69-97.55,244.51-302.27,152.55-459.99l-28.19,16.43ZM617.78,652.13l28.18-16.43c-29.37-50.37-8.81-124.51,58.28-162.86l-16.19-28.32-16.19-28.32c-91.43,52.25-133.79,164.02-82.27,252.37l28.18-16.43Z"/>
</svg>