<?xml version="1.0" standalone="no"?>
<!DOCTYPE svg PUBLIC "-//W3C//DTD SVG 1.1//EN" "http://www.w3.org/Graphics/SVG/1.1/DTD/svg11.dtd">
<svg t="1756455707966" class="icon" viewBox="0 0 1024 1024" version="1.1"
	xmlns="http://www.w3.org/2000/svg" p-id="2444" xmlns:xlink="http://www.w3.org/1999/xlink"
	width="200" height="200">
	<!-- 主图形：使用颜色变量填充 -->
	<path
		d="M512 128c17.7664 0 20.6848 26.624 5.4784 35.84A249.6 249.6 0 1 0 860.16 506.5216c9.216-15.2064 35.84-12.288 35.84 5.4784A384 384 0 1 1 512 128z m120.32 235.3664a18.5344 18.5344 0 0 1 34.56 0l5.9904 15.36c1.8944 4.8128 5.6832 8.6016 10.4448 10.496l15.3088 6.0416a18.6368 18.6368 0 0 1 0 34.6624l-15.3088 6.0416a18.5856 18.5856 0 0 0-10.4448 10.496l-5.9904 15.36a18.5344 18.5344 0 0 1-34.56 0l-6.0416-15.36a18.5856 18.5856 0 0 0-10.4448-10.496l-15.2576-6.0416a18.6368 18.6368 0 0 1 0-34.6624l15.2576-6.0416a18.5856 18.5856 0 0 0 10.4448-10.496z m180.992-227.4816l2.048 3.8912 16.5376 42.0864c1.3824 3.584 3.8912 6.656 7.0656 8.704l3.3792 1.792 41.8816 16.5888c14.2848 5.632 15.5648 24.576 3.8912 32.6144l-3.8912 2.048-41.8816 16.5888a18.5856 18.5856 0 0 0-8.704 7.1168l-1.7408 3.3792-16.5376 42.0352a18.5344 18.5344 0 0 1-32.4608 3.9424l-2.048-3.9424-16.5376-42.0352a18.5856 18.5856 0 0 0-7.0656-8.704l-3.4304-1.792-41.8816-16.5888a18.688 18.688 0 0 1-3.8912-32.6144l3.8912-2.048 41.8816-16.5888a18.5856 18.5856 0 0 0 8.704-7.1168l1.792-3.3792 16.4864-42.0864a18.5344 18.5344 0 0 1 32.512-3.8912z"
		fill="var(--bt-layout-icon-color, #666666)"
		p-id="2445" />
</svg>