<svg width="1024" height="1024" xmlns="http://www.w3.org/2000/svg">
	<g id="Layer_1">
		<title>Layer 1</title>
		<g stroke="null">
			<path stroke="null" p-id="3745" fill="var(--bt-layout-icon-color, #666666)"
				d="m511.97607,83.52835c27.06513,0 48.98859,21.92347 48.98859,48.98859l0,61.20003a48.98859,48.98859 0 0 1 -97.97719,0l0,-61.20003c0,-27.06513 21.92347,-48.98859 48.98859,-48.98859zm0,697.76609c27.06513,0 48.98859,21.92347 48.98859,48.98859l0,61.20003a48.98859,48.98859 0 1 1 -97.97719,0l0,-61.20003c0,-27.06513 21.92347,-48.98859 48.98859,-48.98859zm428.47166,-269.29444a48.98859,48.98859 0 0 1 -48.98859,48.98859l-61.20003,0a48.98859,48.98859 0 1 1 0,-97.97719l61.20003,0c27.06513,0 48.98859,21.92347 48.98859,48.98859zm-697.76609,0a48.98859,48.98859 0 0 1 -48.98859,48.98859l-61.20003,0a48.98859,48.98859 0 0 1 0,-97.97719l61.20003,0c27.06513,0 48.98859,21.92347 48.98859,48.98859zm572.29531,-303.00087a48.98859,48.98859 0 0 1 0,69.26958l-43.27564,43.27564a48.98859,48.98859 0 1 1 -69.26958,-69.26958l43.27564,-43.27564a48.98859,48.98859 0 0 1 69.26958,0zm-493.45652,493.45652a48.98859,48.98859 0 0 1 0,69.26958l-43.27564,43.27564a48.98859,48.98859 0 1 1 -69.26958,-69.26958l43.27564,-43.27564a48.98859,48.98859 0 0 1 69.26958,0zm493.45652,112.54522a48.98859,48.98859 0 0 1 -69.26958,0l-43.27564,-43.27564a48.98859,48.98859 0 1 1 69.26958,-69.26958l43.27564,43.27564a48.98859,48.98859 0 0 1 0,69.26958zm-493.45652,-493.45652a48.98859,48.98859 0 0 1 -69.26958,0l-43.27564,-43.27564a48.98859,48.98859 0 1 1 69.26958,-69.26958l43.27564,43.27564a48.98859,48.98859 0 0 1 0,69.26958zm190.45565,374.05575a183.6001,183.6001 0 1 1 0,-367.27162a183.6001,183.6001 0 0 1 0,367.27162z" />
		</g>
	</g>

</svg>