<svg viewBox="0 0 613 657" xmlns="http://www.w3.org/2000/svg"
	xmlns:xlink="http://www.w3.org/1999/xlink" width="613.000000" height="657.000000" fill="none">
	<rect id="logo-white 1" width="613.000000" height="657.000000" x="0.000000" y="0.000000" />
	<defs>
		<style type="text/css">
			.logo-left-color{
			fill: var(--bt-logo-left-color,'#e2e2e2');
			}
			.logo-right-color{
			fill: var(--bt-logo-right-color,'#fff');
			}
		</style>
	</defs>
	<g id="左侧内容">
		<path class="logo-left-color"
			d="M304.858 203.122C306.5 203.122 307.595 204.765 307.047 205.86L307.047 657L305.405 656.453L265.998 643.312C221.118 626.888 178.427 606.63 141.209 575.97C120.411 558.997 102.349 539.835 89.2134 516.292C85.3822 509.722 83.7402 502.057 83.7402 494.392C84.2876 420.48 84.2876 347.115 84.8349 273.75C84.8349 269.37 85.9295 267.727 90.3081 266.632C103.444 263.347 116.032 259.515 129.168 255.682C131.357 257.872 130.81 260.062 130.81 262.252L130.81 284.152C130.81 289.627 131.357 290.175 136.83 289.08C139.02 288.533 141.209 288.533 142.851 289.08L169.122 282.51C172.406 281.962 172.406 280.32 172.406 277.582L172.406 246.375C172.406 244.185 172.406 241.995 175.143 241.447C188.826 237.615 202.509 233.782 216.192 229.402C218.381 231.592 217.834 234.33 217.834 237.067C217.834 246.375 217.287 255.682 218.381 264.99C221.665 267.727 224.402 264.442 227.138 264.442C228.78 263.895 229.328 264.442 232.064 264.442C239.727 262.252 247.937 260.062 256.146 257.872C259.978 256.777 261.62 255.682 261.62 251.302C261.072 240.352 261.62 229.95 261.62 219.547C261.62 217.357 261.62 215.715 264.356 215.167C276.397 210.787 290.628 206.955 304.858 203.122L304.858 203.122Z"
			fill-rule="nonzero" />
		<path class="logo-left-color"
			d="M307.047 101.287L307.047 158.775C307.047 162.06 307.047 164.25 303.763 165.345C280.229 171.915 257.241 179.033 233.706 186.15C171.859 203.67 109.464 221.19 47.0697 239.257C44.8804 239.805 42.6911 241.448 40.5018 238.162C27.3661 221.19 14.2304 204.217 0.547363 186.15L21.3456 183.96C22.4402 183.96 23.5349 183.96 24.6295 185.055C25.7241 185.602 26.2715 186.15 27.3661 187.245C37.7652 198.195 49.259 198.195 64.0366 194.362C137.925 172.462 211.813 152.752 285.702 131.947C288.986 130.852 291.722 129.758 292.27 125.377C292.817 120.997 295.006 116.617 295.554 111.69C296.101 104.025 300.479 101.835 307.047 101.287Z"
			fill-rule="nonzero" />
		<path class="logo-left-color"
			d="M307.047 0.547493L307.047 81.03C307.047 83.22 307.047 85.41 305.953 87.6C270.377 97.455 234.254 107.858 198.13 117.713C160.365 128.663 122.053 139.065 83.7401 150.015C78.8142 151.658 75.5303 150.563 72.2464 146.73C59.1107 132.495 45.4276 118.26 32.8392 104.572C37.2178 104.025 43.7857 102.93 50.3535 102.382C53.0901 101.835 54.7321 103.477 56.3741 105.12C67.3205 116.07 78.8142 115.522 93.0446 111.143C155.987 91.4325 218.929 72.8175 281.87 54.2025C286.249 53.1075 287.891 50.9175 288.438 46.5375C290.628 33.3975 293.364 20.805 295.554 8.21249C295.554 1.64249 297.743 -1.09501 303.763 -6.63102e-06C305.405 0.547493 305.953 0.547493 307.047 0.547493L307.047 0.547493Z"
			fill-rule="nonzero" />
		<path class="logo-left-color"
			d="M485.474 255.135L485.474 257.325C486.569 268.822 486.569 280.32 485.474 291.818C480.548 291.27 476.717 289.628 471.791 288.533L471.791 263.348C471.791 258.967 472.886 257.325 477.264 256.777C480.001 256.23 482.737 255.135 485.474 255.135L485.474 255.135ZM392.977 266.085C390.24 265.538 388.051 264.99 385.314 263.895L385.314 236.52C385.314 232.14 386.409 231.045 390.24 230.497C392.977 230.497 395.713 228.307 398.997 228.855C396.808 233.235 397.903 238.71 397.903 243.09L397.903 263.895C398.45 267.18 398.45 267.727 392.977 266.085Z"
			fill-rule="nonzero" />
	</g>
	<g id="右侧内容">
		<path class="logo-right-color"
			d="M307.047 655.357C305.953 652.62 305.405 649.335 305.405 646.05L305.405 217.358C305.405 212.978 305.405 208.598 304.858 203.67C304.858 203.123 304.858 202.575 305.953 202.027C307.047 202.027 308.689 202.027 310.331 202.575C324.014 206.408 337.15 210.24 350.833 213.525C354.117 214.62 355.212 215.715 355.212 219L355.212 250.207C355.212 254.587 356.306 256.23 360.685 256.777C369.442 258.42 377.652 261.705 386.409 262.8L386.956 262.8C390.24 261.705 392.429 263.348 394.619 264.443L395.166 264.443C401.187 264.443 396.261 261.705 397.355 260.61C396.808 251.85 397.355 243.09 397.355 233.782C397.355 231.592 397.355 229.402 399.545 227.76L400.639 227.76C414.322 231.592 428.005 235.425 441.141 239.257C443.878 239.805 443.878 241.995 443.878 244.185L443.878 274.845C443.878 278.13 444.425 279.772 448.256 280.32C456.466 281.962 464.676 284.7 472.338 286.89L473.433 286.89C477.264 285.795 480.548 288.532 484.379 288.532C484.927 288.532 485.474 287.985 485.474 287.438C486.569 283.057 485.474 278.13 486.021 273.202C486.569 267.727 486.021 261.705 486.021 255.682L486.021 254.587C486.021 252.397 486.569 253.492 488.211 253.492C501.346 257.325 515.029 261.157 528.165 264.99C531.449 266.085 530.902 268.275 530.902 270.465C530.902 303.862 531.449 337.807 531.449 371.205C531.449 412.267 531.449 453.877 531.996 494.94C531.996 499.867 530.902 504.795 528.712 509.175C517.766 531.075 502.441 548.595 484.379 565.02C451.54 594.585 413.228 614.842 372.726 631.815C354.117 639.48 334.413 644.955 315.257 652.62C313.615 653.167 313.068 653.715 313.068 653.715L312.521 653.715C311.426 654.262 309.784 654.81 308.142 654.81M307.047 101.287C313.615 101.835 317.994 104.572 319.088 111.69C320.183 117.712 320.73 125.925 324.562 129.21C328.393 133.042 336.055 133.59 342.076 134.685C416.512 155.49 490.4 176.295 564.836 197.1C568.667 198.195 571.404 198.195 574.688 195.457C574.688 195.457 575.235 194.91 575.782 194.91C586.181 184.507 598.222 181.222 612.453 187.245C613 188.34 611.358 189.435 610.263 190.53C598.222 205.86 586.729 221.19 575.235 237.067C573.045 240.352 571.404 240.9 567.572 239.805C482.737 215.167 397.355 190.53 312.52 165.892C309.784 164.797 307.047 164.797 304.311 164.797C306.5 158.227 305.953 151.11 305.953 144.54L305.953 108.952C305.405 106.215 304.858 103.477 307.047 101.287L307.047 101.287Z"
			fill-rule="nonzero" />
		<path class="logo-right-color"
			d="M307.047 0.547495C316.899 -4.58956e-06 316.899 -4.76837e-06 319.088 9.855C321.278 22.4475 324.014 35.04 326.204 47.6325C326.204 50.37 328.393 52.56 330.582 53.1075L537.47 115.522C539.659 116.617 541.848 116.07 543.49 114.427C543.49 114.427 544.037 113.88 544.585 113.88C555.531 104.025 568.12 98.55 582.897 106.215C582.897 107.31 581.255 107.857 580.161 108.952C567.025 122.092 553.342 134.685 540.754 147.825C537.47 151.11 534.733 151.657 530.354 150.562C457.561 129.757 384.22 109.5 311.426 89.2425C309.784 88.695 307.595 88.1475 305.953 88.1475C305.405 86.505 304.858 84.315 305.405 82.6725L305.405 9.3075C305.405 6.0225 304.858 3.285 307.047 0.547496L307.047 0.547495Z"
			fill-rule="nonzero" />
		<path class="logo-right-color"
			d="M142.304 288.532C139.02 289.628 135.188 290.723 131.357 291.817C128.073 292.365 129.168 289.627 128.62 287.437L128.62 255.135L129.168 255.135C142.304 257.325 142.304 257.325 142.304 269.917C141.756 275.94 142.304 282.51 142.304 288.532Z"
			fill-rule="nonzero" />
		<path class="logo-right-color"
			d="M226.044 264.99C227.686 264.99 229.328 264.443 230.422 263.895C227.138 263.895 228.233 261.705 228.233 259.515L228.233 234.878C228.233 233.235 228.78 231.045 226.044 230.498C222.212 229.95 218.929 227.76 215.097 228.307L215.097 260.61C215.097 261.158 215.097 266.085 216.192 266.633L218.381 266.633C218.929 266.633 219.476 266.633 220.571 266.085"
			fill-rule="nonzero" />
	</g>
</svg>