<?xml version="1.0" encoding="UTF-8"?>
<svg id="_图层_1" data-name="图层_1" xmlns="http://www.w3.org/2000/svg" xmlns:xlink="http://www.w3.org/1999/xlink" version="1.1" viewBox="0 0 1024 1024">
  <!-- Generator: Adobe Illustrator 29.0.1, SVG Export Plug-In . SVG Version: 2.1.0 Build 192)  -->
  <defs>
    <style>
      .st0 {
        fill: url(#_新建渐变色板_1);
      }
    </style>
    <radialGradient id="_新建渐变色板_1" data-name="新建渐变色板 1" cx="512" cy="512" fx="512" fy="512" r="448" gradientUnits="userSpaceOnUse">
      <stop offset="0" stop-color="var(--bt-layout-payment-icon-color, #ffc047)"/>
      <stop offset="1" stop-color="var(--bt-layout-payment-icon-color, #ffc047)"/>
    </radialGradient>
  </defs>
  <path class="st0" d="M829,64H195c-72.35,0-131,58.65-131,131v634c0,72.35,58.65,131,131,131h634c72.35,0,131-58.65,131-131V195c0-72.35-58.65-131-131-131ZM443.52,773.64c0,10.71-3.78,19.79-11.41,27.22-7.63,7.43-16.76,11.14-27.45,11.14h-154.37c-10.7,0-19.75-3.72-27.17-11.14-7.42-7.43-11.12-16.5-11.12-27.22v-155.3c0-10.72,3.71-19.79,11.12-27.22,7.42-7.43,16.47-11.14,27.17-11.14h154.37v.07c10.7,0,19.82,3.71,27.45,11.14,7.63,7.43,11.41,16.5,11.41,27.22v155.24ZM443.52,463.74c0,10.72-3.78,19.86-11.41,27.5-7.63,7.64-16.76,11.43-27.45,11.43h-154.37c-10.7,0-19.75-3.79-27.17-11.43-7.42-7.64-11.05-16.79-11.05-27.5v-154.59c0-10.72,3.71-19.79,11.12-27.22,7.42-7.43,16.47-11.14,27.17-11.14-.07.07,154.3,0,154.3,0,10.7,0,19.82,3.71,27.45,11.14,7.63,7.43,11.41,16.5,11.41,27.22v154.59ZM752.18,773.64c0,10.71-3.71,19.79-11.12,27.22-7.42,7.43-16.47,11.14-27.17,11.14h-154.37c-10.7,0-19.82-3.72-27.45-11.14-7.63-7.43-11.41-16.5-11.41-27.22v-155.3c0-10.72,3.78-19.79,11.41-27.22,7.63-7.43,16.76-11.14,27.45-11.14h154.37v.07c10.7,0,19.75,3.71,27.17,11.14,7.42,7.43,11.12,16.5,11.12,27.22v155.24ZM799.66,396.31l-114.86,115.09c-8.2,8.22-17.83,12.36-28.74,12.36s-20.46-4.14-28.74-12.36l-114.72-115.01c-7.84-7.86-11.76-17.29-11.76-28.43s3.92-20.86,11.76-29.07l114.87-115.09c8.2-7.86,17.82-11.79,28.74-11.79s20.46,3.93,28.73,11.79l114.72,115.01c8.2,8.22,12.34,17.93,12.34,29.07s-4.14,20.57-12.34,28.43Z"/>
</svg>