<?xml version="1.0" encoding="UTF-8"?>
<svg id="_图层_1" data-name="图层_1" xmlns="http://www.w3.org/2000/svg" xmlns:xlink="http://www.w3.org/1999/xlink" version="1.1" viewBox="0 0 1024 1024">
  <!-- Generator: Adobe Illustrator 29.0.1, SVG Export Plug-In . SVG Version: 2.1.0 Build 192)  -->
  <defs>
    <style>
      .st0 {
        fill: url(#_新建渐变色板_1);
      }

      .st1 {
        fill: url(#_新建渐变色板_13);
      }

      .st2 {
        fill: url(#_新建渐变色板_11);
      }

      .st3 {
        fill: url(#_新建渐变色板_12);
      }
    </style>
    <radialGradient id="_新建渐变色板_1" data-name="新建渐变色板 1" cx="512" cy="415.37" fx="512" fy="415.37" r="117.66" gradientUnits="userSpaceOnUse">
      <stop offset="0" stop-color="var(--bt-layout-payment-icon-color, #ffc047)"/>
      <stop offset="1" stop-color="var(--bt-layout-payment-icon-color, #ffc047)"/>	
    </radialGradient>
    <radialGradient id="_新建渐变色板_11" data-name="新建渐变色板 1" cx="511.99" cy="696.09" fx="511.99" fy="696.09" r="78.48" xlink:href="#_新建渐变色板_1"/>
    <radialGradient id="_新建渐变色板_12" data-name="新建渐变色板 1" cx="512" cy="512" fx="512" fy="512" r="448" xlink:href="#_新建渐变色板_1"/>
    <radialGradient id="_新建渐变色板_13" data-name="新建渐变色板 1" cx="512" cy="600.63" fx="512" fy="600.63" r="116.61" xlink:href="#_新建渐变色板_1"/>
  </defs>
  <path class="st0" d="M397.6,410.35l25.09,34.66c3.38,4.67,5.19,10.29,5.18,16.05l-.08,42.7c0,4.32,1.01,8.58,2.97,12.42,1.96,3.85,4.8,7.17,8.3,9.71,3.5,2.53,7.54,4.2,11.81,4.86,4.27.66,8.63.31,12.73-1.05l39.86-13.13c5.54-1.83,11.53-1.83,17.07,0l39.86,13.13c4.1,1.35,8.46,1.71,12.73,1.05,4.27-.66,8.31-2.33,11.81-4.86,3.5-2.53,6.34-5.86,8.3-9.71,1.96-3.85,2.98-8.1,2.97-12.42l-.08-42.7c-.01-5.76,1.8-11.38,5.18-16.05l25.09-34.66c2.52-3.48,4.19-7.51,4.85-11.76.67-4.25.33-8.59-1.01-12.68-1.33-4.09-3.61-7.8-6.65-10.84-3.04-3.04-6.76-5.32-10.85-6.65l-40.27-13.09c-5.52-1.8-10.33-5.31-13.72-10.02l-24.6-34.28c-2.52-3.52-5.85-6.39-9.71-8.36-3.85-1.98-8.12-3.01-12.45-3.01s-8.6,1.03-12.45,3.01c-3.85,1.98-7.18,4.85-9.71,8.36l-24.6,34.28c-3.39,4.72-8.2,8.23-13.72,10.02l-40.27,13.09c-4.09,1.33-7.8,3.61-10.85,6.65-3.04,3.04-5.32,6.76-6.65,10.84-1.33,4.09-1.68,8.43-1.01,12.68.67,4.25,2.33,8.28,4.85,11.76Z"/>
  <path class="st2" d="M600.63,675.64h-177.27c-13.64,0-20.45,6.82-20.45,20.45s6.82,20.45,20.45,20.45h177.27c13.64,0,20.45-6.82,20.45-20.45s-6.82-20.45-20.45-20.45Z"/>
  <path class="st3" d="M829,64H195c-72.35,0-131,58.65-131,131v634c0,72.35,58.65,131,131,131h634c72.35,0,131-58.65,131-131V195c0-72.35-58.65-131-131-131ZM771.09,730.18c0,21.7-8.62,42.51-23.97,57.85-15.34,15.34-36.15,23.97-57.85,23.97h-354.55c-21.7,0-42.51-8.62-57.85-23.97-15.34-15.34-23.96-36.16-23.96-57.85v-436.36c0-21.7,8.62-42.51,23.96-57.85,15.34-15.34,36.15-23.96,57.85-23.96h354.55c21.7,0,42.51,8.62,57.85,23.96,15.34,15.34,23.97,36.15,23.97,57.85v436.36Z"/>
  <path class="st1" d="M655.18,580.18h-286.36c-5.42,0-10.63,2.16-14.46,5.99-3.84,3.83-5.99,9.04-5.99,14.46s2.15,10.63,5.99,14.46c3.84,3.84,9.04,5.99,14.46,5.99h286.36c5.42,0,10.62-2.16,14.46-5.99,3.84-3.83,5.99-9.04,5.99-14.46s-2.16-10.63-5.99-14.46c-3.84-3.84-9.04-5.99-14.46-5.99Z"/>
</svg>