<?xml version="1.0" encoding="UTF-8"?>
<svg id="_图层_1" data-name="图层_1" xmlns="http://www.w3.org/2000/svg" version="1.1" viewBox="0 0 1024 1024">
  <!-- Generator: Adobe Illustrator 29.0.1, SVG Export Plug-In . SVG Version: 2.1.0 Build 192)  -->
  <defs>
    <style>
      .st0 {
        fill: var(--bt-layout-icon-color, #666666);
      }
    </style>
  </defs>
  <path class="st0" d="M300.2,355.2c0,30.4,24.6,55,55,55,30.4,0,55-24.6,55-55h0c0-30.4-24.6-55-55-55s-55,24.6-55,55Z"/>
  <path class="st0" d="M474.4,310.4c0,33.1,26.9,60,60,60s60-26.9,60-60-26.9-60-60-60-60,26.9-60,60Z"/>
  <path class="st0" d="M651.1,355.2c0,34.5,28,62.5,62.5,62.5s62.5-28,62.5-62.5c0-34.5-27.9-62.5-62.5-62.5-34.5,0-62.5,27.9-62.5,62.5,0,0,0,0,0,0Z"/>
  <path class="st0" d="M693.4,534.4c0,35.9,29.1,65,65,65s65-29.1,65-65c0-35.9-29.1-65-65-65-35.9,0-65,29.1-65,65,0,0,0,0,0,0Z"/>
  <path class="st0" d="M521.6,691.2c0,44.2,35.8,80,80,80,44.2,0,80-35.8,80-80h0c0-44.3-35.8-80.1-80-80.1-44.2,0-80,35.8-80,80h0Z"/>
  <path class="st0" d="M512,64c-247.4,0-448,200.6-448,448l.2,10.5c3.2,99.9,53.1,150.4,169.7,206.6l62,28.5c106.6,49.2,153.8,90.3,172.5,168l2.9,12.1c3.2,13.1,14.9,22.3,28.3,22.3h12.4c247.4,0,448-200.6,448-448,0-247.4-200.6-448-448-448ZM543.3,898.3c-5,.6-9.7-2.4-11.4-7.1h0c-35.7-91.5-102.4-140.7-214.2-199.7h0l-40.8-18.5c-12.8-5.8-24.6-11.4-35.5-16.8l-20.7-10.6c-74.7-39.9-98.8-72.8-98.8-132.9,0-215.4,174.6-390,390-390s390,174.6,390,390l-.2,12.2c-6.1,193.9-166.3,351.4-358.5,373.3Z"/>
</svg>