<?xml version="1.0" encoding="UTF-8"?>
<svg id="_图层_1" data-name="图层_1" xmlns="http://www.w3.org/2000/svg" version="1.1" viewBox="0 0 1024 1024">
  <!-- Generator: Adobe Illustrator 29.0.1, SVG Export Plug-In . SVG Version: 2.1.0 Build 192)  -->
  <defs>
    <style>
      .st0 {
        fill: #f76e05;
      }
    </style>
  </defs>
  <path class="st0" d="M224.55,659.8c-18.73-3.86-32.23-20.25-32.44-39.37v-216.85c.74-18.92,14.01-35.03,32.44-39.37l201.33-43.6,21.16-86.3h-233.84c-81.84-.57-148.63,65.31-149.2,147.15,0,.32,0,.64,0,.97v256.28c.53,82.19,67.01,148.71,149.2,149.27h233.71l-21.16-85.92-201.33-42.19.13-.06ZM810.28,234.3h-235.51l21.48,86.24,201.33,43.6c18.7,3.93,32.16,20.33,32.38,39.43v216.85c-.76,18.91-13.99,35.01-32.38,39.43l-201.33,43.6-21.48,86.24h235.51c82.51.18,149.54-66.57,149.72-149.08,0-.17,0-.34,0-.51v-257.63c-1.02-82.01-67.7-148.01-149.72-148.18Z"/>
  <path class="st0" d="M425.89,500.72h171.71v21.16h-171.71v-21.16Z"/>
</svg>