<?xml version="1.0" encoding="UTF-8"?>
<svg id="_图层_1" data-name="图层_1" xmlns="http://www.w3.org/2000/svg" version="1.1" viewBox="0 0 1024 1024">
  <!-- Generator: Adobe Illustrator 29.0.1, SVG Export Plug-In . SVG Version: 2.1.0 Build 192)  -->
  <defs>
    <style>
      .st0 {
        fill: #ce0c48;
      }
    </style>
  </defs>
  <path class="st0" d="M881.64,392.44c-2.99-34.03-9.55-67.66-19.56-100.32l11.64,3.88c-31.2-71.21-78.83-143.17-134.36-174.37-7.61-4.48-30.75,4.33-23.29-10.6s-32.84-7.17-49.71-4.18c-22.99,3.73-26.28-25.53-65.69-31.35-22.39-3.14-28.22,16.12-39.11,11.64-20.6-8.21-18.21-24.19-50.46-8.21-16.12,7.91,10.15-22.84-43-4.03l-4.48-10.9c-94.95,36.43-121.67,66.73-148.39,69.42-6.12,0-29.86,28.66-46.88,46.43-14.93,14.93-22.99,31.95-43,34.64l-14.93,61.81c-25.43,21.16-40.95,51.92-42.85,84.95-5.16-15.3-3.76-32.05,3.88-46.28-14.93,5.97-40.16,14.93-25.98,84.8,11.2,55.24-4.63,118.24,8.81,179.15,4.18,18.36,0,35.08,5.37,44.79,94.2,206.32,182.73,343.07,413.38,336.05l3.88-7.76c-24.63-5.97-48.22-14.93-97.64-26.87-16.27-3.88-20.15-29.86-35.23-38.67-8.21-4.78-24.78-3.58-32.55-8.66s3.73-18.96-17.47-12.54c-7.46,2.24-12.09-9.55-17.62-14.93s0-20.75-20.45-21.65c-20.45-.9-16.12-25.98-17.32-39.11-10.6,1.34-1.05-1.34-11.64,3.88-9.75-6.79-17.07-16.52-20.9-27.77-8.96-42.85-9.26-18.81-13.14-28.37-4.73-12.68-10.37-25-16.87-36.87l23.44,7.76h3.88l3.88-11.64-23.29-7.61h27.32c-6.72,12.24,1.79,4.63-11.79,7.76v11.64l19.56-7.76v-11.64c-18.06-8.96-25.08-11.64-43-19.26l7.91,7.76v3.88h-43c-19.26-12.99-12.24-27.77-15.68-46.43,14.93,0,8.06,5.82,14.93-11.5l-14.93,7.76,11.64-29.71-11.64,11.5c-25.53-33.89-14.18-85.54-10.45-133.02,1.51-32.54,13.03-63.83,32.99-89.57,7.76-8.81,4.48-22.09,4.78-32.55l27.32-23.14h15.68c6.72,14.93,4.18,4.78,0,19.26l7.76,3.88c6.27-7.61,5.37-5.23,7.76-19.26-8.81-9.26-6.12-8.66-23.29-11.64,20.44-33.84,58.22-53.26,97.64-50.16l3.88-11.64-15.68,7.91-3.88-11.5c18.36-16.11,42.18-24.6,66.58-23.74,5.52,0,6.12-14.93,11.2-17.02,141.38-53,270.66,8.21,324.71,128.99,2.93,9.82,5.32,19.78,7.17,29.86,14.93,49.86-6.27,106.29,8.51,136.15-6.87,31.5-32.1,12.09-35.23,27.02-7.46,36.13-12.99,52.25-35.68,68.97-8.3,7.37-17.3,13.92-26.87,19.56,9.59-9.58,16.36-21.61,19.56-34.78-93.01,97.64-229.76,55.98-253.79-92.71-4.75-30.68,6.92-61.61,30.75-81.51,81.36-76.59,131.38-45.83,180.04-17.91l-7.76-26.87c-28.81-21.35-14.93-17.32-7.91-50.16v-3.88l-15.68-11.5c2.24,8.81.9,4.63,7.91,14.93-3.88,14.03,0,7.91-7.76,14.93-13.14,8.51-20.75,6.42-39.11,3.88l3.88-11.64-11.64-11.64c0,10.3-3.58,2.39,0,14.93-110.33,8.66-190.79,70.02-156.31,227.67,1.26,13.12,3.86,26.08,7.76,38.67l-7.76,7.61-3.88-23.14h-11.79l-3.88,11.64c-11.05-22.54-.75,9.41,35.23,46.28,3.51,3.9,7.25,7.59,11.2,11.05,41.8,29.86,99.13,71.21,176.16,43h7.91v-3.88l-89.57-11.64-3.88-7.61c93.46,21.65,154.81-7.46,207.07-42.4,11.5-14.93,10-21.05,19.41-7.91,16.87-14.93,3.43-23.44,11.79-38.52,5.67-10.3,28.51-14.93,39.11-30.9l35.08-119.43h-14.93c2.69-12.54,19.71-29.86-3.88-42.4-2.24-1.34,7.91-1.19,7.76-3.73-1.65-20.65-8.31-40.58-19.41-58.07,28.96,18.96,31.8,59.72,46.88,92.56v7.76h3.88v-41.5h-1.04ZM459.75,585.02l-8.36-23.14,54.64,50.16-46.28-27.02ZM191.03,249.27l-20.3-3.88v34.78c14.63-9.26,16.57-9.11,19.56-30.9h.75ZM694.14,403.64c-10.3,10.14-15.74,24.23-14.93,38.67l11.79,7.61c13.69-11.79,15.42-32.37,3.88-46.28h-.75ZM822.97,550.39c22.99-10.15,47.77-50.76,31.35-84.95l-31.35,84.8v.15ZM670.7,480.82c-13.73,10.3-17.32,11.64-19.56,34.78l11.64,7.76,15.68-7.76c7.2-12.96,8.61-28.35,3.88-42.4-7.32,11.79-2.24,18.06-11.64,7.61ZM612.03,550.39c13.88-9.55,10.45-12.99,15.68-19.41v-4.18c-18.16,1.95-36.48,1.95-54.64,0-11.5-12.24-11.64-25.68-27.32-34.64,14.93,30.75,2.84,33.44,27.32,54.04,11.48,2.79,23.27,4.09,35.08,3.88,1.34,0-5.97-.9,3.88,0v.3ZM244.92,519.48h-11.79l-7.76,7.61c8.36,8.96,4.78,6.27,11.64-3.88l11.79,19.41,3.88-14.93-7.76-7.61v-.6ZM259.85,569.65l3.88-7.76c-8.81-7.61,0-3.14-11.64,0l-11.64-14.93,3.88,14.93v7.76h15.53Z"/>
</svg>