<?xml version="1.0" encoding="UTF-8"?>
<svg id="_图层_1" data-name="图层_1" xmlns="http://www.w3.org/2000/svg" version="1.1" viewBox="0 0 1024 1024">
  <!-- Generator: Adobe Illustrator 29.0.1, SVG Export Plug-In . SVG Version: 2.1.0 Build 192)  -->
  <defs>
    <style>
      .st0 {
        fill: #007cff;
      }
    </style>
  </defs>
  <path class="st0" d="M665.21,90c-64.37-23.52-130.28-29.87-194.31-23.89-74.22,5.85-110.43,28.81-108.27,24.67-121.37,43.31-223.99,136.52-271.48,267.19-84.58,232.72,35.25,490.09,267.58,574.84,232.5,84.75,489.44-35.28,574.08-268,84.64-232.7-35.19-490.06-267.64-574.78l.03-.03ZM374.05,890.73c-24.91-9.17-48.83-20.81-71.43-34.75l1.74.98c108.27,8.31,249.61-16.6,344.92-105.81,0,0,181.65-145.14,50.2-383.36,0,0,21.19,96.01-5.82,174.96,0,0-25.76,107.4-140.25,138.57-168.64,45.95-360.77-72.04-441.12-129.27-6.05-58.77-.67-119.47,20.91-178.74,31.92-87.8,91.95-156.34,165.28-202.35-18.29,128.26-3.81,246.38,17.02,295.86,27.97,66.33,76.52,143.72,171.35,153.63,94.83,9.97,147.08-78.76,147.08-78.76,48.69-73.91,56.31-180.06,55.55-182.64-.76-2.6-12.96-9.6-12.96-9.6-32.73,132.49-86.71,176.73-86.71,176.73-85.12,82.18-145.4,25.2-145.4,25.2-64.82-69.63-19.4-182.75-19.4-182.75,25.4-77.05,99.31-189.8,183.11-247.14,13.97,3.44,28,5.6,41.8,10.61,51.35,19.09,95.45,46.45,132.97,80.89l-.28-.25c-61.26,22.37-160.18,69.63-160.18,69.63-156.82,66.08-167.43,165.98-167.43,165.98-16.24,102.95,65.49,59.36,65.49,59.36,84.08-40.96,125.41-168.58,125.41-168.58-26.23-5.01-46.93,3-46.93,3-33.57,82.87-102.03,116.92-102.03,116.92-26.96,14.25-33.23-10.95-33.23-10.95-4.56-18.9,19.49-22.09,19.49-22.09,37.32-14.53,61.18-53.73,66.61-69.74,5.38-16.04,15.37-17.33,15.37-17.33,28.31-9.27,61.49-16.32,95.73-19.79l2.04-.17c63.47-7.81,160.63,22.49,160.63,22.49,20.04,7.94,40.49,14.81,61.26,20.58,35.61,89.01,41.24,190.31,5.96,287.46-76.13,209.43-307.46,317.48-516.71,241.24h-.03Z"/>
</svg>