<?xml version="1.0" encoding="UTF-8"?>
<svg id="_图层_1" data-name="图层_1" xmlns="http://www.w3.org/2000/svg" version="1.1" viewBox="0 0 1024 1024">
  <!-- Generator: Adobe Illustrator 29.0.1, SVG Export Plug-In . SVG Version: 2.1.0 Build 192)  -->
  <defs>
    <style>
      .st0 {
        fill: #fff;
      }

      .st1 {
        fill: #e10025;
      }
    </style>
  </defs>
  <path class="st1" d="M64,512c0,247.42,200.58,448,448,448s448-200.58,448-448S759.42,64,512,64,64,264.58,64,512Z"/>
  <path class="st0" d="M427.2,344h169.59c92.34,0,167.2,75.22,167.2,168s-74.86,168-167.2,168h-169.59c-92.34,0-167.2-75.22-167.2-168s74.86-168,167.2-168ZM427.2,404.59c-59.04,0-106.9,48.09-106.9,107.41s47.86,107.41,106.9,107.41h169.59c59.04,0,106.9-48.09,106.9-107.41s-47.86-107.41-106.9-107.41h-169.59Z"/>
</svg>