<?xml version="1.0" encoding="UTF-8"?>
<svg id="_图层_1" data-name="图层_1" xmlns="http://www.w3.org/2000/svg" version="1.1" viewBox="0 0 1024 1024">
  <!-- Generator: Adobe Illustrator 29.0.1, SVG Export Plug-In . SVG Version: 2.1.0 Build 192)  -->
  <defs>
    <style>
      .st0 {
        fill: #e9000c;
      }

      .st1 {
        fill: #fac400;
      }

      .st2 {
        fill: #fb9200;
      }
    </style>
  </defs>
  <path class="st2" d="M168.77,415.97c51.69,0,93.83,42,93.83,93.53s-42.15,93.54-93.83,93.54c-51.69-.14-93.83-42.14-93.83-93.68s42.15-93.39,93.83-93.39ZM586.52,139.03c23.2,0,45.82,2.2,67.69,6.32-.42,4-.61,8.02-.59,12.04,0,71.8,58.74,130.39,130.69,130.39,28.35,0,54.47-8.96,75.92-24.38,49.78,56.83,82.08,129.22,88.54,208.66l-148.01,4.55c-12.33-106.9-103.81-190.3-214.24-190.3-31.12,0-60.94,6.61-87.66,18.65l-74.01-127.89c48.61-24.38,103.67-38.03,161.67-38.03Z"/>
  <path class="st1" d="M789.31,772.93c51.69,0,93.68,42,93.68,93.54s-42.14,93.53-93.68,93.53-93.83-41.99-93.83-93.53c.15-51.55,42.29-93.54,93.83-93.54ZM379.19,798.63c-63.14-44.05-111.9-107.49-137-181.49,34.51-23.5,57.27-63,57.27-107.78s-24.67-87.37-61.53-110.42c23.2-78.42,72.54-145.96,137.74-192.51l77.98,125.7c-50.37,39.36-82.82,100.73-82.82,169.3s31.87,128.77,81.49,168.13c0,0-73.12,129.07-73.12,129.07Z"/>
  <path class="st0" d="M949.06,526.98c-6.02,86.49-42.72,164.61-99.26,223.93-18.63-9.73-39.33-14.81-60.35-14.83-68.72,0-125.26,53.31-130.4,120.4-23.5,4.71-47.72,7.35-72.54,7.35-55.05.04-109.38-12.46-158.88-36.56l73.72-128.19c26.14,11.31,54.92,17.47,85.17,17.47,110.86,0,202.79-84.28,214.38-191.77,0,0,148.15,2.21,148.15,2.21ZM784.31,64c51.69,0,93.83,41.99,93.83,93.54s-42.14,93.53-93.83,93.53-93.83-42-93.83-93.53c.14-51.54,42.28-93.53,93.83-93.53h0Z"/>
</svg>