<?xml version="1.0" encoding="UTF-8"?>
<svg id="_图层_1" data-name="图层_1" xmlns="http://www.w3.org/2000/svg" version="1.1"
	viewBox="0 0 1024 1024">
	<path fill="var(--bt-layout-icon-color, #666666)"
		d="M868.2,129.4c39.9,0,72.2,32.3,72.2,72.2v498.3c0,39.9-32.3,72.2-72.2,72.2h-313.3c-6.1,0-11,4.9-11,11v39.3c0,6.1,4.9,11,11,11h160.6c6.1,0,11,5,11,11.1v39.2c0,6.1-4.9,11-11,11h-406.4c-6.1,0-11-4.9-11-11v-39.2c0-6.1,4.9-11,11-11h162.7c6.1,0,11-5,11-11.1v-39.3c0-6.1-4.9-11-11-11H155.8c-39.9,0-72.2-32.3-72.2-72.2V201.6c0-39.9,32.3-72.2,72.2-72.2h712.5ZM868.2,190.6H155.8c-6.1,0-11,4.9-11,11v498.3c0,6.1,4.9,11,11,11h712.5c6.1,0,11-4.9,11-11V201.6c0-6.1-4.9-11-11-11Z" />
	<path fill="var(--bt-layout-icon-color, #666666)"
		d="M512,265.1c8.6,0,10,12.9,2.6,17.3-57.1,34.4-75.4,108.6-40.9,165.7,34.4,57.1,108.6,75.4,165.7,40.9,16.8-10.1,30.8-24.2,40.9-40.9,4.5-7.4,17.3-5.9,17.3,2.6,0,102.5-83.1,185.7-185.7,185.7s-185.7-83.1-185.7-185.7,83.1-185.7,185.7-185.7ZM570.2,378.9c1.8-4.6,7-6.9,11.6-5.1,2.3.9,4.2,2.8,5.1,5.1l2.9,7.4c.9,2.3,2.7,4.2,5.1,5.1l7.4,2.9c4.6,1.8,6.9,7.1,5.1,11.7-.9,2.3-2.7,4.2-5.1,5.1l-7.4,2.9c-2.3.9-4.1,2.8-5.1,5.1l-2.9,7.4c-1.8,4.6-7,6.9-11.6,5.1-2.3-.9-4.2-2.8-5.1-5.1l-2.9-7.4c-.9-2.3-2.7-4.2-5.1-5.1l-7.4-2.9c-4.6-1.8-6.9-7.1-5.1-11.7.9-2.3,2.7-4.2,5.1-5.1l7.4-2.9c2.3-.9,4.1-2.8,5.1-5.1l2.9-7.4ZM657.7,268.9l1,1.9,8,20.3c.7,1.7,1.9,3.2,3.4,4.2l1.6.9,20.3,8c6.9,2.7,7.5,11.9,1.9,15.8l-1.9,1-20.3,8c-1.7.7-3.2,1.9-4.2,3.4l-.8,1.6-8,20.3c-1.8,4.6-7,6.9-11.6,5.1-1.7-.6-3.1-1.8-4.1-3.2l-1-1.9-8-20.3c-.7-1.7-1.9-3.2-3.4-4.2l-1.7-.9-20.3-8c-4.6-1.8-6.9-7.1-5.1-11.7.6-1.6,1.7-3,3.2-4l1.9-1,20.3-8c1.7-.7,3.2-1.9,4.2-3.4l.9-1.6,8-20.3c1.8-4.6,7-6.9,11.6-5.1,1.7.6,3.1,1.8,4.1,3.2Z" />
</svg>