<?xml version="1.0" encoding="UTF-8"?>
<svg id="_图层_1" data-name="图层_1" xmlns="http://www.w3.org/2000/svg" version="1.1"
	viewBox="0 0 1024 1024">
	<path fill="var(--bt-layout-icon-color, #666666)"
		d="M868.2,129.4c39.9,0,72.2,32.3,72.2,72.2v498.3c0,39.9-32.3,72.2-72.2,72.2h-313.3c-6.1,0-11,4.9-11,11v39.3c0,6.1,4.9,11,11,11h160.6c6.1,0,11,5,11,11.1v39.2c0,6.1-4.9,11-11,11h-406.4c-6.1,0-11-4.9-11-11v-39.2c0-6.1,4.9-11,11-11h162.7c6.1,0,11-5,11-11.1v-39.3c0-6.1-4.9-11-11-11H155.8c-39.9,0-72.2-32.3-72.2-72.2V201.6c0-39.9,32.3-72.2,72.2-72.2h712.5ZM868.2,190.6H155.8c-6.1,0-11,4.9-11,11v498.3c0,6.1,4.9,11,11,11h712.5c6.1,0,11-4.9,11-11V201.6c0-6.1-4.9-11-11-11Z" />
	<g id="Layer_1">
		<path
			fill="var(--bt-layout-icon-color, #666666)"
			d="M512,263.9c11.8,0,21.4,9.6,21.4,21.4v26.7c0,11.8-9.6,21.4-21.4,21.4-11.8,0-21.3-9.6-21.4-21.4v-26.7c0-11.8,9.6-21.4,21.4-21.4ZM512,568.1c11.8,0,21.4,9.6,21.4,21.4v26.7c0,11.8-9.6,21.4-21.4,21.4s-21.4-9.6-21.4-21.4h0v-26.7c0-11.8,9.6-21.4,21.4-21.4ZM698.8,450.7c0,11.8-9.6,21.4-21.4,21.4h-26.7c-11.8,0-21.4-9.6-21.4-21.4,0-11.8,9.6-21.4,21.4-21.4h26.7c11.8,0,21.4,9.6,21.4,21.4ZM394.6,450.7c0,11.8-9.6,21.4-21.4,21.4h-26.7c-11.8,0-21.4-9.6-21.4-21.4,0-11.8,9.6-21.3,21.4-21.4h26.7c11.8,0,21.4,9.6,21.4,21.4ZM644.1,318.6c8.3,8.3,8.3,21.9,0,30.2l-18.9,18.9c-8.2,8.5-21.7,8.7-30.2.5-8.5-8.2-8.7-21.7-.5-30.2.2-.2.4-.4.5-.5l18.9-18.9c8.3-8.3,21.9-8.3,30.2,0h0ZM428.9,533.8c8.3,8.3,8.3,21.9,0,30.2l-18.9,18.9c-8.2,8.5-21.7,8.7-30.2.5-8.5-8.2-8.7-21.7-.5-30.2.2-.2.4-.4.5-.5l18.9-18.9c8.3-8.3,21.9-8.3,30.2,0ZM644.1,582.8c-8.3,8.3-21.9,8.3-30.2,0l-18.9-18.9c-8.5-8.2-8.7-21.7-.5-30.2,8.2-8.5,21.7-8.7,30.2-.5.2.2.4.4.5.5l18.9,18.9c8.3,8.3,8.3,21.9,0,30.2ZM428.9,367.7c-8.3,8.3-21.9,8.3-30.2,0l-18.9-18.9c-8.5-8.2-8.7-21.7-.5-30.2,8.2-8.5,21.7-8.7,30.2-.5.2.2.4.4.5.5l18.9,18.9c8.3,8.3,8.3,21.9,0,30.2ZM512,530.8c-44.2,0-80.1-35.8-80.1-80.1s35.8-80.1,80.1-80.1,80.1,35.8,80.1,80.1-35.8,80.1-80.1,80.1Z" />
	</g>
</svg>