<?xml version="1.0" encoding="UTF-8"?>
<svg id="_图层_1" data-name="图层_1" xmlns="http://www.w3.org/2000/svg" version="1.1" viewBox="0 0 1024 1024">
  <!-- Generator: Adobe Illustrator 29.0.1, SVG Export Plug-In . SVG Version: 2.1.0 Build 192)  -->
  <defs>
    <style>
      .st0 {fill: var(--bt-layout-icon-color, #666666);}
    </style>
  </defs>
  <path class="st0" d="M653.4,457.7c-18.7,0-33.8-15.2-33.8-33.8,0-51.6-42-93.6-93.6-93.6s-33.8-15.2-33.8-33.8,15.2-33.8,33.8-33.8c89,0,161.2,72.2,161.3,161.3,0,18.7-15.2,33.8-33.8,33.8Z"/>
  <path class="st0" d="M893.6,695.7l-68.1-93.1c-3.5-4.7-5.3-10.4-5.3-16.2v-149.1c-.2-157.6-119-289.8-275.7-306.7v-32.9c0-18.7-15.2-33.8-33.8-33.8s-33.8,15.2-33.8,33.8v33.1c-155.8,17.9-273.4,149.7-273.6,306.5v149.2c0,5.8-1.8,11.5-5.2,16.1l-67.7,93.3c-17.6,24-20.1,56-6.5,82.5,13.5,26.6,40.7,43.3,70.5,43.3h160.7c10.9,79.2,78.5,138.3,158.5,138.4,80-.1,147.6-59.2,158.5-138.4h157.8c30,0,57.1-16.6,70.7-43.4,13.6-26.6,11-58.6-6.7-82.7h0ZM513.4,892.5c-42.6,0-79.6-29.3-89.6-70.7h179.2c-10,41.4-47,70.6-89.6,70.7ZM839.9,747.7c-1.9,3.9-5.9,6.4-10.2,6.3H194.3c-4.4,0-8.4-2.4-10.2-6.3-2.1-3.8-1.7-8.5.9-12l67.8-93.3c11.9-16.2,18.2-35.8,18.2-55.9v-149.1c.2-132.9,107.8-240.6,240.7-240.8,132.9.2,240.6,107.9,240.7,240.8v149.1c0,20.2,6.4,40,18.4,56.3l68.2,93.1c3.5,4.9,2.1,9.6.8,12h0Z"/>
</svg>