<?xml version="1.0" encoding="UTF-8"?>
<svg id="_图层_1" data-name="图层_1" xmlns="http://www.w3.org/2000/svg" version="1.1" viewBox="0 0 1024 1024">
  <!-- Generator: Adobe Illustrator 29.0.1, SVG Export Plug-In . SVG Version: 2.1.0 Build 192)  -->
  <defs>
    <style>
      .st0 {
        fill: var(--bt-layout-payment-icon-color, #ffc047);
      }
    </style>
  </defs>
  <path class="st0" d="M829,64H195c-72.35,0-131,58.65-131,131v634c0,72.35,58.65,131,131,131h634c72.35,0,131-58.65,131-131V195c0-72.35-58.65-131-131-131ZM785.06,512.97c-.12,2.22-3.47,55.46-36.79,118.5-19.55,36.87-59.12,69.9-90.64,98.07-38.81,34.69-86.28,62.17-141.15,81.69-2.89,1.02-6.06,1.02-8.95-.02-55.02-19.55-102.62-47.15-141.47-81.99-31.58-28.28-71.14-61.4-90.62-98.4-32.82-62.3-36.33-115.54-36.51-117.76l-.02-250.46c0-7.05,4.6-13.27,11.33-15.34,101.72-31.24,230.37-34.81,256.87-35.21l2.6-.04h.94l2.7-.02h.94l2.6.06c26.48.4,155.17,3.95,256.83,35.21,6.76,2.07,11.38,8.31,11.37,15.38l-.04,250.32Z"/>
  <path class="st0" d="M672,389.23l4.7-39.75h-143.83l-17.71,143.1v.36h67.22c17.83.24,30.24,3.25,37.22,9.03,6.99,5.78,10,15.18,9.03,28.19l-2.17,18.79c-1.45,11.32-6.5,19.51-15.18,24.57-8.43,5.06-22.29,7.59-41.56,7.59-12.29,0-22.89-.36-31.8-1.08-8.91-.72-19.63-1.81-32.16-3.25l-5.06,39.75c22.65,2.89,44.09,4.34,64.32,4.34,32.52,0,57.22-5.42,74.08-16.26,17.1-11.08,27.22-28.43,30.36-52.04l2.53-26.02c.24-2.17.36-5.54.36-10.12,0-41.44-28.07-62.16-84.2-62.16h-25.3l7.95-65.05h101.19Z"/>
  <polygon class="st0" points="368.5 386.34 363.08 429.35 428.49 397.55 401.03 620.88 443.67 620.88 476.91 349.48 440.78 349.48 368.5 386.34"/>
</svg>