<?xml version="1.0" encoding="UTF-8"?>
<svg id="_图层_1" data-name="图层_1" xmlns="http://www.w3.org/2000/svg" xmlns:xlink="http://www.w3.org/1999/xlink" version="1.1" viewBox="0 0 1024 1024">
  <!-- Generator: Adobe Illustrator 29.0.1, SVG Export Plug-In . SVG Version: 2.1.0 Build 192)  -->
  <defs>
    <style>
      .st0 {
        fill: url(#_新建渐变色板_1);
      }

      .st1 {
        fill: url(#_新建渐变色板_13);
      }

      .st2 {
        fill: url(#_新建渐变色板_11);
      }

      .st3 {
        fill: url(#_新建渐变色板_12);
      }
    </style>
    <radialGradient id="_新建渐变色板_1" data-name="新建渐变色板 1" cx="663.63" cy="453.49" fx="663.63" fy="453.49" r="37.61" gradientUnits="userSpaceOnUse">
      <stop offset="0" stop-color="var(--bt-layout-payment-icon-color, #ffc047)"/>
      <stop offset="1" stop-color="var(--bt-layout-payment-icon-color, #ffc047)"/>
    </radialGradient>
    <radialGradient id="_新建渐变色板_11" data-name="新建渐变色板 1" cx="359.45" cy="453.49" fx="359.45" fy="453.49" r="37.86" xlink:href="#_新建渐变色板_1"/>
    <radialGradient id="_新建渐变色板_12" data-name="新建渐变色板 1" cx="511.67" cy="453.37" fx="511.67" fy="453.37" r="37.82" xlink:href="#_新建渐变色板_1"/>
    <radialGradient id="_新建渐变色板_13" data-name="新建渐变色板 1" cx="512" cy="512" fx="512" fy="512" r="448" xlink:href="#_新建渐变色板_1"/>
  </defs>
  <path class="st0" d="M663.22,415.68h-.3c-9.83.29-19.16,4.4-26.02,11.46-6.85,7.06-10.68,16.51-10.68,26.34s3.83,19.29,10.68,26.34c6.85,7.06,16.18,11.17,26.02,11.46,10.04-.05,19.65-4.04,26.78-11.1,7.13-7.07,11.2-16.65,11.34-26.68-.06-10.01-4.07-19.6-11.14-26.68-7.08-7.08-16.66-11.08-26.67-11.14Z"/>
  <path class="st2" d="M360.79,415.68h-.3c-5.06-.15-10.1.72-14.81,2.55s-9.02,4.59-12.65,8.12c-3.63,3.53-6.52,7.74-8.49,12.4-1.97,4.66-2.99,9.67-2.99,14.73s1.02,10.07,2.99,14.73c1.97,4.66,4.86,8.88,8.49,12.4,3.63,3.53,7.93,6.29,12.65,8.12s9.76,2.7,14.81,2.55c9.83-.25,19.19-4.32,26.07-11.35,6.88-7.03,10.75-16.47,10.79-26.3.04-9.84-3.76-19.3-10.58-26.39-6.83-7.09-16.14-11.23-25.98-11.56Z"/>
  <path class="st3" d="M538.65,426.71c-3.48-3.53-7.64-6.33-12.21-8.25-4.57-1.92-9.48-2.91-14.44-2.92h-.3c-7.48,0-14.79,2.2-21.01,6.35-6.22,4.15-11.07,10.04-13.95,16.94-2.87,6.9-3.63,14.5-2.19,21.84,1.44,7.34,5.03,14.08,10.31,19.37,5.27,5.3,12,8.91,19.33,10.39,7.33,1.48,14.93.75,21.85-2.09,6.92-2.84,12.83-7.67,17.01-13.87,4.17-6.2,6.41-13.5,6.44-20.98.05-4.96-.88-9.88-2.73-14.48s-4.61-8.78-8.1-12.31Z"/>
  <path class="st1" d="M836.62,64H187.38c-68.14,0-123.38,55.24-123.38,123.38v649.25c0,68.14,55.24,123.38,123.38,123.38h649.25c68.14,0,123.38-55.24,123.38-123.38V187.38c0-68.14-55.24-123.38-123.38-123.38ZM812,584.43c0,10.05-1.98,20-5.82,29.28-3.84,9.28-9.48,17.71-16.58,24.82s-15.54,12.74-24.82,16.59c-9.28,3.84-19.23,5.82-29.28,5.82h-260.68l-102.22,102.22c-4.74,4.65-10.74,7.81-17.26,9.07-6.52,1.26-13.26.58-19.4-1.97-6.13-2.55-11.38-6.84-15.08-12.35-3.7-5.51-5.7-11.99-5.75-18.63v-78.33h-26.61c-20.29,0-39.75-8.06-54.1-22.41-14.35-14.35-22.41-33.81-22.41-54.1v-256.46c.02-20.31,8.07-39.79,22.41-54.18,14.34-14.39,33.78-22.52,54.1-22.62h446.99c20.3.14,39.72,8.29,54.05,22.67,14.32,14.38,22.39,33.84,22.45,54.14v256.46Z"/>
</svg>