<?xml version="1.0" encoding="UTF-8"?>
<svg id="_图层_1" data-name="图层_1" xmlns="http://www.w3.org/2000/svg" xmlns:xlink="http://www.w3.org/1999/xlink" version="1.1" viewBox="0 0 1024 1024">
  <!-- Generator: Adobe Illustrator 29.0.1, SVG Export Plug-In . SVG Version: 2.1.0 Build 192)  -->
  <defs>
    <style>
      .st0 {
        fill: url(#_新建渐变色板_1);
      }
    </style>
    <radialGradient id="_新建渐变色板_1" data-name="新建渐变色板 1" cx="512" cy="512" fx="512" fy="512" r="448" gradientUnits="userSpaceOnUse">
      <stop offset="0" stop-color="var(--bt-layout-payment-icon-color,#ffc047)"/>
      <stop offset="1" stop-color="var(--bt-layout-payment-icon-color,#ffc047)"/>
    </radialGradient>
  </defs>
  <path class="st0" d="M829,64H195c-72.35,0-131,58.65-131,131v634c0,72.35,58.65,131,131,131h634c72.35,0,131-58.65,131-131V195c0-72.35-58.65-131-131-131ZM802.81,604.13c-6.04,11.64-14.78,21.66-25.5,29.22-10.72,7.56-23.1,12.43-36.09,14.21-12.99,1.78-26.22.4-38.58-4v113.77c.02,7.17-1.37,14.28-4.1,20.91-2.73,6.63-6.74,12.66-11.8,17.74-5.06,5.08-11.08,9.11-17.7,11.85-6.62,2.75-13.73,4.17-20.9,4.17h-113.54c4.39-12.36,5.76-25.59,3.97-38.58-1.78-12.99-6.66-25.37-14.23-36.08-7.56-10.72-17.59-19.46-29.23-25.49s-24.57-9.18-37.69-9.18-26.04,3.15-37.69,9.18-21.67,14.78-29.23,25.49c-7.56,10.71-12.44,23.09-14.23,36.08-1.78,12.99-.42,26.22,3.97,38.58h-113.74c-7.17,0-14.27-1.41-20.9-4.17-6.62-2.75-12.64-6.78-17.7-11.85-5.06-5.08-9.07-11.11-11.8-17.74-2.73-6.63-4.12-13.74-4.1-20.91v-113.2c12.32,4.31,25.49,5.6,38.41,3.78,12.92-1.83,25.22-6.72,35.86-14.27,10.64-7.55,19.32-17.54,25.31-29.13,5.99-11.6,9.11-24.45,9.11-37.5s-3.13-25.91-9.11-37.5c-5.99-11.59-14.67-21.58-25.31-29.13-10.64-7.55-22.94-12.44-35.86-14.27-12.92-1.82-26.09-.53-38.41,3.78v-113.73c0-30.1,24.4-54.5,54.5-54.5h113.71c-4.36-12.34-5.69-25.55-3.89-38.52s6.7-25.31,14.27-35.99c7.57-10.68,17.59-19.39,29.23-25.39,11.63-6,24.54-9.12,37.63-9.1l-.1-.67s-.04,0-.07,0h.07c13.07.02,25.94,3.17,37.55,9.18,11.62,6.02,21.63,14.75,29.19,25.43,7.56,10.69,12.44,23.04,14.24,36,1.8,12.97.46,26.17-3.9,38.52h113.71c7.16,0,14.24,1.41,20.86,4.15,6.61,2.74,12.62,6.75,17.68,11.81,5.06,5.06,9.07,11.07,11.82,17.68,2.74,6.61,4.15,13.7,4.15,20.86v113.7c12.36-4.4,25.59-5.77,38.58-3.99,12.99,1.78,25.37,6.65,36.09,14.21,10.72,7.56,19.46,17.58,25.5,29.22,6.04,11.64,9.19,24.57,9.19,37.68s-3.15,26.04-9.19,37.68Z"/>
</svg>