<?xml version="1.0" encoding="UTF-8"?>
<svg id="_图层_1" data-name="图层_1" xmlns="http://www.w3.org/2000/svg" version="1.1" viewBox="0 0 1024 1024">
  <!-- Generator: Adobe Illustrator 29.0.1, SVG Export Plug-In . SVG Version: 2.1.0 Build 192)  -->
  <defs>
    <style>
      .st0 {
        fill: var(--bt-layout-tootls-icon-color, #666666);
      }
    </style>
  </defs>
  <path class="st0" d="M511.09,437.66c-2.46-2.42-5.39-4.32-8.6-5.6-3.21-1.28-6.66-1.91-10.11-1.84-3.46.06-6.87.81-10.04,2.2-3.16,1.39-6.02,3.4-8.39,5.9-4.74,4.97-7.37,11.55-7.37,18.4s2.64,13.43,7.37,18.4l74.22,74.96c2.42,2.46,5.31,4.42,8.5,5.75,3.19,1.34,6.61,2.03,10.07,2.03s6.89-.69,10.07-2.03c3.19-1.33,6.08-3.29,8.5-5.75,4.92-5,7.69-11.72,7.69-18.73s-2.76-13.73-7.69-18.73l-74.22-74.96ZM930.84,268.18l.07.13c55.22,126.3,31.62,279.29-70.89,382.8-94.7,95.56-249.8,104.48-368.65,64.15l-185.5,187.31c-61.5,62.07-142.63,80.79-204.1,18.74-61.46-62.06-42.93-143.99,18.54-206.05l189.8-191.63c-33.98-116.94-23.87-267.32,67.56-359.55,102.34-103.32,254.04-126.81,379.03-71.42.4.18.78.39,1.14.64,3.09,1.67,5.4,4.48,6.43,7.83,1.03,3.35.69,6.96-.94,10.06-.79,1.53-1.88,2.89-3.19,4-9.61,9.75-54.84,55.39-135.71,136.93-1.74,1.76-3.05,3.9-3.83,6.25-.77,2.35-.99,4.85-.63,7.29l16.33,115.33c.31,2.25,1.34,4.35,2.94,5.97,1.6,1.62,3.69,2.68,5.95,3.02l114.29,16.45c2.43.34,4.9.12,7.22-.66,2.32-.78,4.42-2.09,6.14-3.83l136.06-137.38c1.12-1.3,2.5-2.37,4.04-3.14,1.54-.77,3.22-1.23,4.94-1.34,1.72-.12,3.45.11,5.08.67,1.63.56,3.14,1.43,4.42,2.58,1.5,1.34,2.69,3,3.46,4.86h-.03Z"/>
</svg>