<?xml version="1.0" encoding="UTF-8"?>
<svg id="_图层_1" data-name="图层_1" xmlns="http://www.w3.org/2000/svg" version="1.1" viewBox="0 0 1024 1024">
  <!-- Generator: Adobe Illustrator 29.0.1, SVG Export Plug-In . SVG Version: 2.1.0 Build 192)  -->
  <defs>
    <style>
      .st0 {
        fill: var(--bt-layout-tootls-icon-color, #666666);
        fill-rule: evenodd;
      }
    </style>
  </defs>
  <path class="st0" d="M512,64c-247.42,0-448,200.58-448,448s200.58,448,448,448,448-200.58,448-448S759.42,64,512,64ZM768.9,548.74c-5.65,58.13-30.23,114.84-73.91,159.56-100.66,103.05-264.19,103.05-364.85,0-100.23-102.61-100.23-268.65,0-371.25,77.84-79.69,193.36-97.8,288.36-54.09l33.62-34.42c9.55-9.77,24.06-12.79,36.71-7.64,12.65,5.15,20.92,17.46,20.92,31.12v121.61c0,18.56-15.04,33.6-33.6,33.6h-118.8c-13.52,0-25.72-8.1-30.97-20.56-5.25-12.46-2.52-26.85,6.93-36.52l34.11-34.92c-64.76-19.96-137.91-3.76-189.24,48.78-74.72,76.5-74.72,200.84,0,277.33,74.3,76.06,194.42,76.06,268.71,0,30.37-31.08,48.45-70.12,54.11-110.75,2.61-18.72,17.48-34.47,36.39-34.47s33.24,14.54,31.48,32.62Z"/>
</svg>