<?xml version="1.0" encoding="UTF-8"?>
<svg id="_图层_1" data-name="图层_1" xmlns="http://www.w3.org/2000/svg" xmlns:xlink="http://www.w3.org/1999/xlink" version="1.1" viewBox="0 0 1024 1024">
  <!-- Generator: Adobe Illustrator 29.0.1, SVG Export Plug-In . SVG Version: 2.1.0 Build 192)  -->
  <defs>
    <style>
      .st0 {
        fill: url(#_未命名的渐变_161);
      }

      .st1 {
        fill: url(#_未命名的渐变_16);
      }
    </style>
    <radialGradient id="_未命名的渐变_16" data-name="未命名的渐变 16" cx="597.56" cy="428.05" fx="597.56" fy="428.05" r="73.82" gradientUnits="userSpaceOnUse">
      <stop offset="0" stop-color="var(--bt-layout-payment-icon-color, #ffc047)"/>
      <stop offset="1" stop-color="var(--bt-layout-payment-icon-color, #ffc047)"/>
    </radialGradient>
    <radialGradient id="_未命名的渐变_161" data-name="未命名的渐变 16" cx="511" cy="511.89" fx="511" fy="511.89" r="448" xlink:href="#_未命名的渐变_16"/>
  </defs>
  <path class="st1" d="M642.16,370.37c-15.6-12.2-35.3-17.9-55-15.91-19.18,2.84-36.48,13.07-48.22,28.5-11.71,15.4-16.9,34.79-14.44,53.98.61,9.59,3.19,18.94,7.6,27.47,4.41,8.53,10.54,16.06,18,22.1,7.49,6.05,16.16,10.49,25.45,13.03,9.29,2.54,19.01,3.14,28.54,1.75,9.82-.77,19.38-3.52,28.1-8.08,8.72-4.57,16.43-10.85,22.66-18.48,6.22-7.6,10.83-16.39,13.55-25.83s3.48-19.34,2.25-29.08c-2.73-19.56-12.95-37.29-28.5-49.46Z"/>
  <path class="st0" d="M827.56,63.89H194.44c-72.59,0-131.44,58.85-131.44,131.44v633.12c0,72.59,58.85,131.44,131.44,131.44h633.12c72.59,0,131.44-58.85,131.44-131.44V195.33c0-72.59-58.85-131.44-131.44-131.44ZM437.25,727.32c-17.26,20.83-67.18,52.01-105.61,71.65-4.76,2.24-10.05,3.11-15.27,2.5-5.22-.61-10.17-2.67-14.28-5.95-4.11-3.26-7.21-7.62-8.94-12.57-1.74-4.95-2.04-10.28-.88-15.4,10.89-41.5,29.85-96.28,47.95-118.56,16.42-20.24,57.75-19.3,80.53-1.02,22.87,18.37,32.4,58.35,15.99,78.59l.51.76ZM775.5,457.34c-13.35,46.66-37.16,84.09-73.89,126.44-19.3,19.92-33.03,44.53-39.8,71.39-13.59,58.81-47.31,111.02-95.33,147.6-7.49,5.93-22.45,10.5-29.08,7.04-6.64-3.46-10.89-19.73-8.51-28.21,15.31-55.63,3.23-94.51-51.44-125.41-43.19-24.47-77.55-64.19-116.66-96.12-7.66-6.78-17.68-10.25-27.89-9.66-23.56,5.08-46.18,15-69.56,21.18-8.51,2.11-22.12,2.11-25.51-2.54-2.41-4.1-3.86-8.69-4.25-13.42-.38-4.74.31-9.5,2.03-13.93,27.66-57.8,74.3-104.36,132.15-131.93,18.88-9.6,35.23-23.53,47.71-40.65,78.15-108.32,183-161.5,317.17-157.94,24.67.92,42,6.86,45.91,33.87h0s.51-.09.51-.09c0,0,27.97,120.34-3.57,212.39Z"/>
</svg>