<?xml version="1.0" encoding="UTF-8"?>
<svg id="_图层_1" data-name="图层_1" xmlns="http://www.w3.org/2000/svg" version="1.1" viewBox="0 0 1024 1024">
  <!-- Generator: Adobe Illustrator 29.0.1, SVG Export Plug-In . SVG Version: 2.1.0 Build 192)  -->
  <defs>
    <style>
      .st0 {
        fill: var(--bt-layout-tootls-icon-color, #666666);
        fill-rule: evenodd;
      }
    </style>
  </defs>
  <path class="st0" d="M512,64c-247.42,0-448,200.58-448,448s200.58,448,448,448,448-200.58,448-448S759.42,64,512,64ZM227,580.58l-52.34-52.27c-9.62-9.61-12.5-24.06-7.3-36.62,5.2-12.56,17.45-20.75,31.05-20.75h20.63c16.7-147.1,141.72-261.33,293.39-261.33,95.8,0,180.97,45.6,234.86,116.14,11.26,14.75,8.45,35.83-6.3,47.1-14.74,11.27-35.83,8.45-47.1-6.3-41.72-54.6-107.47-89.74-181.47-89.74-114.57,0-209.36,84.32-225.62,194.13h16.27c13.59,0,25.85,8.19,31.05,20.75,5.2,12.56,2.32,27.02-7.3,36.62l-52.34,52.27c-13.12,13.1-34.37,13.1-47.49,0ZM825.6,553.07h-20.63c-16.7,147.1-141.72,261.33-293.4,261.33-95.35,0-180.17-45.18-234.11-115.15-11.33-14.7-8.6-35.8,6.1-47.13,14.7-11.33,35.8-8.6,47.13,6.1,41.75,54.16,107.23,88.98,180.88,88.98,114.57,0,209.36-84.32,225.63-194.13h-16.27c-13.59,0-25.85-8.19-31.05-20.75-5.2-12.56-2.32-27.02,7.3-36.62l52.34-52.27c13.12-13.1,34.37-13.1,47.49,0l52.34,52.27c9.62,9.61,12.5,24.06,7.3,36.62-5.2,12.56-17.45,20.75-31.05,20.75Z"/>
</svg>