<?xml version="1.0" encoding="UTF-8"?>
<svg id="_图层_1" data-name="图层_1" xmlns="http://www.w3.org/2000/svg" version="1.1" viewBox="0 0 1024 1024">
  <!-- Generator: Adobe Illustrator 29.0.1, SVG Export Plug-In . SVG Version: 2.1.0 Build 192)  -->
  <defs>
    <style>
      .st0 {
        fill: #3f3f3f;
      }

      .st1 {
        fill: #ecb485;
      }

      .st2 {
        opacity: .1;
      }

      .st2, .st3 {
        fill: #22b573;
      }

      .st4 {
        fill: #f6caa9;
      }
    </style>
  </defs>
  <path class="st2" d="M64,512c0,247.42,200.58,448,448,448s448-200.58,448-448S759.42,64,512,64,64,264.58,64,512Z"/>
  <path class="st4" d="M698.6,459.8c0,113.87-82.01,206.18-183.17,206.18s-183.17-92.31-183.17-206.17,82.01-206.18,183.17-206.18,183.17,92.31,183.17,206.18"/>
  <path class="st4" d="M444.27,633.56h140.49v116.19h-140.49v-116.19ZM355.41,471.89c0,17.02-12.6,30.83-28.14,30.83s-28.14-13.8-28.14-30.83,12.6-30.83,28.14-30.83,28.14,13.8,28.14,30.83M731.35,471.51c0,17.02-12.6,30.83-28.14,30.83s-28.14-13.8-28.14-30.83,12.6-30.83,28.14-30.83,28.14,13.8,28.14,30.83"/>
  <path class="st1" d="M444.64,650.21s26.6,13.69,65.19,13.69c45.33,1.85,74.93-13.32,74.93-13.32v13.69s-49.83,26.64-72.31,26.64-68.18-31.45-68.18-31.45l.37-9.25h0ZM491.79,202.69s-123.95,12.35-125.23,93.49,95.71,96.67,131.65,105.55c35.94,8.88,134.78,20.29,192.54-73.53,0,0-15.84-36.79-24.51-62.45-3.85-6.66,6.22,11.43-28.44-10.44-34.66-21.87-81.19-57.68-146.01-52.61"/>
  <path class="st0" d="M405.01,247.01s-90.37,15.05-95.5,95.91c-5.14,80.86,9.21,102.22,9.21,102.22,0,0,20.38-.06,25.51,30.41,0,0,9.43,5.59,10.27,0,1.39-9.29-8.27-53.43,10.99-94.45,19.13-40.76,37.56-46.58,37.56-46.58l1.96-87.5ZM642.57,335.37s24.17,31.15,28.35,62.29c3.54,26.41,8.47,76.09,8.47,76.09,0,0,6.74,4.76,11.55-6.66,4.81-11.41,3.57-22.81,8.05-25.77,23.65-15.66,17.48-81.5,16.21-88.45-5.37-29.4-29.76-76.64-29.76-76.64,0,0-42.87,59.14-42.87,59.14Z"/>
  <path class="st0" d="M488.66,175.41s-128.26,5.27-129.55,90.56,100.02,109.34,135.97,118.66c35.94,9.33,134.78,21.32,192.54-77.29,0,0,14.44-44.64,5.78-71.63-3.85-7-24.07,17.99-58.72-5-34.66-22.99-81.19-60.63-146.01-55.31"/>
  <path class="st3" d="M839.09,818.12c-22.8-17.9-65.73-44.28-108.29-64.98-69.09-33.59-145.99-48.64-145.99-48.64l-.06,2.28c-5.6,5.98-32.63,32.62-69.86,32.62s-64.07-25.01-70.4-31.31l-.33-3.24s-74.05,10.15-143.14,43.74c-47.28,22.99-95,52.99-115.09,70.59,81.7,86.69,197.57,140.81,326.08,140.81s245.34-54.56,327.09-141.88h0Z"/>
</svg>