<?xml version="1.0" encoding="UTF-8"?>
<svg id="_图层_1" data-name="图层_1" xmlns="http://www.w3.org/2000/svg" version="1.1" viewBox="0 0 1024 1024">
  <!-- Generator: Adobe Illustrator 29.0.1, SVG Export Plug-In . SVG Version: 2.1.0 Build 192)  -->
  <defs>
    <style>
      .st0 {
        fill: none;
        stroke: var(--bt-layout-icon-color, #666666);
        stroke-linecap: round;
        stroke-linejoin: round;
        stroke-width: 60px;
      }
    </style>
  </defs>
  <path class="st0" d="M796.75,461.84c-3.37-190.67-158.99-344.2-350.47-344.2S95.75,274.58,95.75,468.17c0,91.36,34.95,174.55,92.21,236.94l-26.26,157.96,155.86-66.94c68.67,22.84,133.48,28.54,194.43,17.12M317.57,434.58c27.22,0,49.29-22.23,49.29-49.66s-22.07-49.66-49.29-49.66-49.29,22.23-49.29,49.66,22.07,49.66,49.29,49.66ZM514.74,434.58c27.22,0,49.29-22.23,49.29-49.66s-22.07-49.66-49.29-49.66-49.29,22.23-49.29,49.66,22.07,49.66,49.29,49.66ZM835.41,860.96c-38.3,28.5-85.77,45.36-137.19,45.36-127.04,0-230.03-102.99-230.03-230.03s102.99-230.03,230.03-230.03,230.03,102.99,230.03,230.03c0,35.04-7.84,68.26-21.85,97.99M906.38,774.31l21.86,132.05-92.85-45.37M768.04,660.95c-20.42,0-36.97-16.67-36.97-37.24s16.55-37.24,36.97-37.24,36.97,16.67,36.97,37.24-16.56,37.24-36.97,37.24ZM620.17,660.95c-20.42,0-36.97-16.67-36.97-37.24s16.55-37.24,36.97-37.24,36.97,16.67,36.97,37.24-16.55,37.24-36.97,37.24Z"/>
</svg>