<?xml version="1.0" encoding="UTF-8"?>
<svg id="config-layer" xmlns="http://www.w3.org/2000/svg" version="1.1" viewBox="0 0 1024 1024">
	<defs>
		<style>
			.config-element {
			fill: none;
			stroke: var(--bt-menu-icon-color, #787a79);
			stroke-width: 60px;
			}
		</style>
	</defs>
	<path class="config-element"
		d="M339.47,171.76c84.2-49.86,126.3-74.79,172.53-74.79s88.33,24.93,172.53,74.79l28.48,16.86c84.2,49.86,126.3,74.79,149.41,115.86,23.11,41.06,23.11,90.93,23.11,190.65v33.73c0,99.73,0,149.59-23.11,190.65-23.11,41.06-65.22,65.99-149.41,115.86l-28.48,16.86c-84.2,49.86-126.3,74.8-172.53,74.8s-88.33-24.93-172.53-74.8l-28.48-16.86c-84.2-49.86-126.3-74.8-149.41-115.86-23.11-41.07-23.11-90.93-23.11-190.65v-33.73c0-99.72,0-149.59,23.11-190.65,23.11-41.06,65.21-66,149.41-115.86l28.48-16.86Z" />
	<circle class="config-element" cx="512" cy="512" r="124.51" />
</svg>