<?xml version="1.0" encoding="UTF-8"?>
<svg id="control-active-layer" xmlns="http://www.w3.org/2000/svg"
	xmlns:xlink="http://www.w3.org/1999/xlink" version="1.1" viewBox="0 0 1024 1024">
	<defs>
		<linearGradient id="control-gradient" x1="509.44" y1="960" x2="509.44" y2="64"
			gradientUnits="userSpaceOnUse">
			<stop offset="0" stop-color="var(--bt-menu-icon-gradient-color-1, #20a53a)" />
			<stop offset="1" stop-color="var(--bt-menu-icon-gradient-color-2, #068f20)" />
		</linearGradient>
	</defs>
	<path fill="url(#control-gradient)"
		d="M891.84,129.6c-65.6-65.6-171.2-65.6-382.4-65.6s-316.8,0-382.4,65.6-65.6,171.2-65.6,382.4,0,316.8,65.6,382.4c65.6,65.6,171.2,65.6,382.4,65.6s316.8,0,382.4-65.6c65.6-65.6,65.6-171.2,65.6-382.4s0-316.8-65.6-382.4ZM764,455.43l-134.35,134.35-21.21,21.21c-11.72,11.72-30.71,11.72-42.43,0l-21.21-21.21-91.92-91.92c-11.72-11.72-30.71-11.72-42.43,0l-113.14,113.14c-11.72,11.72-30.71,11.72-42.43,0h0c-11.72-11.72-11.72-30.71,0-42.43l134.35-134.35,21.21-21.21c11.72-11.72,30.71-11.72,42.43,0l21.21,21.21,91.92,91.92c11.72,11.72,30.71,11.72,42.43,0l113.14-113.14c11.72-11.72,30.71-11.72,42.43,0h0c11.72,11.72,11.72,30.71,0,42.43Z" />
</svg>