<?xml version="1.0" encoding="UTF-8"?>
<svg id="crontab-layer" xmlns="http://www.w3.org/2000/svg" version="1.1" viewBox="0 0 1024 1024">
	<defs>
		<style>
			.crontab-outline {
			fill: none;
			stroke: var(--bt-menu-icon-color, #787a79);
			stroke-width: 60px;
			}

			.crontab-line {
			fill: none;
			stroke: var(--bt-menu-icon-color, #787a79);
			stroke-width: 60px;
			stroke-linecap: round;
			}

			.crontab-dot {
			fill: var(--bt-menu-icon-color, #787a79);
			}
		</style>
	</defs>
	<path class="crontab-outline"
		d="M94.98,501.58c0-157.27,0-235.9,48.86-284.76,48.86-48.86,127.49-48.86,284.76-48.86h166.81c157.27,0,235.9,0,284.76,48.86,48.86,48.86,48.86,127.49,48.86,284.76v83.4c0,157.27,0,235.91-48.86,284.76-48.86,48.86-127.5,48.86-284.76,48.86h-166.81c-157.27,0-235.9,0-284.76-48.86-48.86-48.86-48.86-127.49-48.86-284.76v-83.4Z" />
	<path class="crontab-line" d="M303.49,167.96v-62.55" />
	<path class="crontab-line" d="M720.51,167.96v-62.55" />
	<path class="crontab-line" d="M115.82,376.46h792.34" />
	<path class="crontab-dot"
		d="M762.21,710.08c0,23.03-18.67,41.7-41.7,41.7s-41.7-18.67-41.7-41.7,18.67-41.7,41.7-41.7,41.7,18.67,41.7,41.7Z" />
	<path class="crontab-dot"
		d="M762.21,543.28c0,23.03-18.67,41.7-41.7,41.7s-41.7-18.67-41.7-41.7,18.67-41.7,41.7-41.7,41.7,18.67,41.7,41.7Z" />
	<path class="crontab-dot"
		d="M553.7,710.08c0,23.03-18.67,41.7-41.7,41.7s-41.7-18.67-41.7-41.7,18.67-41.7,41.7-41.7,41.7,18.67,41.7,41.7Z" />
	<path class="crontab-dot"
		d="M553.7,543.28c0,23.03-18.67,41.7-41.7,41.7s-41.7-18.67-41.7-41.7,18.67-41.7,41.7-41.7,41.7,18.67,41.7,41.7Z" />
	<path class="crontab-dot"
		d="M345.19,710.08c0,23.03-18.67,41.7-41.7,41.7s-41.7-18.67-41.7-41.7,18.67-41.7,41.7-41.7,41.7,18.67,41.7,41.7Z" />
	<path class="crontab-dot"
		d="M345.19,543.28c0,23.03-18.67,41.7-41.7,41.7s-41.7-18.67-41.7-41.7,18.67-41.7,41.7-41.7,41.7,18.67,41.7,41.7Z" />
</svg>