<?xml version="1.0" encoding="UTF-8"?>
<svg id="docker-active-layer" xmlns="http://www.w3.org/2000/svg" version="1.1"
	viewBox="0 0 1024 1024">
	<defs>
		<style>
			.docker-active-element {
			fill: url(#docker-gradient);
			}
		</style>
		<linearGradient id="docker-gradient" x1="64" y1="512" x2="960" y2="512"
			gradientUnits="userSpaceOnUse">
			<stop offset="0" stop-color="var(--bt-menu-icon-gradient-color-1, #20a53a)" />
			<stop offset="1" stop-color="var(--bt-menu-icon-gradient-color-2, #068f20)" />
		</linearGradient>
	</defs>
	<path class="docker-active-element"
		d="M933.7,508.4h0c-16.8-16.8-39.6-26.3-63.4-26.3h-29.9v-29.9c0-23.8-9.4-46.5-26.2-63.4-16.8-16.8-39.6-26.2-63.4-26.2h-149.3v-209.1c0-16.5-13.4-29.9-29.9-29.9h-119.5c-16.5,0-29.9,13.4-29.9,29.9v89.6h-209.1c-16.5,0-29.9,13.4-29.9,29.9v89.6h-89.6c-16.5,0-29.9,13.4-29.9,29.9v179.2c0,87.1,34.6,170.7,96.2,232.3,61.6,61.6,145.2,96.2,232.3,96.2h31.5c72.4,0,143.9-17,208.5-49.7,64.6-32.7,120.7-80.1,163.6-138.4l-42.2-31.1,42.2,31.1c22.9-31.2,55.1-50.8,88.2-50.8h15.8c22.1,0,41.4-12,51.7-29.9h8v-59.7c0-23.8-9.4-46.6-26.2-63.4ZM183.5,482.1h-59.7s0-59.7,0-59.7h59.7v59.7ZM243.2,302.9h59.7v59.7h-59.7v-59.7ZM243.2,422.4h59.7v59.7h-59.7v-59.7ZM273.1,661.3c-16.5,0-29.9-13.4-29.9-29.9s13.4-29.9,29.9-29.9,29.9,13.4,29.9,29.9-13.4,29.9-29.9,29.9ZM422.4,482.1h-59.7v-59.7h59.7v59.7ZM422.4,362.7h-59.7v-59.7h59.7v59.7ZM541.9,482.1h-59.7v-59.7h59.7v59.7ZM541.9,362.7h-59.7v-59.7h59.7v59.7ZM541.9,243.2h-59.7v-59.7h59.7v59.7ZM635.1,455.9c-9.5,9.5-21,16.7-33.5,21.1v-54.6h54.6c-4.4,12.5-11.6,24-21.1,33.5Z" />
</svg>