<?xml version="1.0" encoding="UTF-8"?>
<svg id="files-layer" xmlns="http://www.w3.org/2000/svg" version="1.1" viewBox="0 0 1024 1024">
	<defs>
		<style>
			.files-element {
			fill: none;
			stroke: var(--bt-menu-icon-color, #787a79);
			stroke-width: 60px;
			}

			.files-line {
			fill: none;
			stroke: var(--bt-menu-icon-color, #787a79);
			stroke-width: 60px;
			stroke-linecap: round;
			}
		</style>
	</defs>
	<path class="files-line" d="M764.04,427.99h-210.04" />
	<path class="files-element"
		d="M91.93,299.85c0-37.07,0-55.61,2.91-71.05,12.82-67.97,65.99-121.14,133.96-133.96,15.44-2.91,33.98-2.91,71.05-2.91,16.24,0,24.36,0,32.17.73,33.65,3.15,65.57,16.37,91.59,37.94,6.04,5,11.78,10.75,23.26,22.23l23.12,23.11c34.27,34.27,51.4,51.4,71.92,62.82,11.27,6.27,23.23,11.22,35.63,14.76,22.58,6.44,46.81,6.44,95.27,6.44h15.7c110.58,0,165.87,0,201.81,32.32,3.3,2.97,6.45,6.12,9.43,9.43,32.32,35.94,32.32,91.23,32.32,201.81v92.5c0,158.42,0,237.63-49.21,286.84-49.22,49.22-128.43,49.22-286.85,49.22h-168.03c-158.42,0-237.63,0-286.84-49.22-49.22-49.21-49.22-128.42-49.22-286.84v-296.17Z" />
</svg>