<?xml version="1.0" encoding="UTF-8"?>
<svg id="home-layer" xmlns="http://www.w3.org/2000/svg" version="1.1" viewBox="0 0 1024 1024">
	<defs>
		<style>
			.home-outline {
			fill: var(--bt-menu-icon-color, #787a79);
			stroke: var(--bt-menu-icon-color, #787a79);
			stroke-width: 1.5px;
			}

			.home-door {
			fill: none;
			stroke: var(--bt-menu-icon-color, #787a79);
			stroke-linecap: round;
			stroke-width: 60px;
			}
		</style>
	</defs>
	<path class="home-door" d="M646.4,767.8h-268.8" />
	<path class="home-outline"
		d="M936.74,324.86c-23.26-42.49-65.75-68.87-150.74-121.62l-89.6-55.61c-89.84-55.76-134.76-83.64-184.39-83.64s-94.56,27.88-184.4,83.64l-89.6,55.61c-84.99,52.75-127.48,79.12-150.74,121.62-23.26,42.49-23.26,93.76-23.26,196.27v68.14c0,174.76,0,262.14,52.49,316.43,52.49,54.29,136.96,54.29,305.91,54.29h179.2c168.95,0,253.43,0,305.91-54.29,52.48-54.29,52.48-141.67,52.48-316.43v-68.14c0-102.52,0-153.78-23.26-196.27ZM900,578.93c0,151.35,0,227.04-45.46,274.05-45.46,47.02-118.62,47.02-264.94,47.02h-155.2c-146.32,0-219.49,0-264.94-47.02-45.46-47.02-45.46-122.7-45.46-274.05v-59.02c0-88.79,0-133.19,20.15-169.99,20.14-36.8,56.95-59.64,130.56-105.33l77.6-48.16c77.81-48.29,116.71-72.43,159.7-72.43s81.89,24.14,159.7,72.43l77.6,48.16c73.61,45.68,110.41,68.52,130.55,105.33,20.14,36.8,20.14,81.2,20.14,169.99v59.02Z" />
</svg>