<?xml version="1.0" encoding="UTF-8"?>
<svg id="home-active-layer" xmlns="http://www.w3.org/2000/svg" version="1.1" viewBox="0 0 1024 1024">
	<defs>
		<style>
			.home-active-element {
			fill: url(#home-gradient);
			}
		</style>
		<linearGradient id="home-gradient" x1="509.7" y1="962.3" x2="509.7" y2="66.3"
			gradientUnits="userSpaceOnUse">
			<stop offset="0" stop-color="var(--bt-menu-icon-gradient-color-1, #20a53a)" />
			<stop offset="1" stop-color="var(--bt-menu-icon-gradient-color-2, #068f20)" />
		</linearGradient>
	</defs>
	<path class="home-active-element"
		d="M934.5,327.2c-23.3-42.5-65.8-68.9-150.7-121.6l-89.6-55.6c-89.8-55.8-134.8-83.6-184.4-83.6s-94.6,27.9-184.4,83.6l-89.6,55.6c-85,52.8-127.5,79.1-150.7,121.6-23.3,42.5-23.3,93.8-23.3,196.3v68.1c0,174.8,0,262.1,52.5,316.4s137,54.3,305.9,54.3h179.2c169,0,253.4,0,305.9-54.3s52.5-141.7,52.5-316.4v-68.1c0-102.5,0-153.8-23.3-196.3ZM646.4,797.8h-268.8c-16.6,0-30-13.4-30-30s13.4-30,30-30h268.8c16.6,0,30,13.4,30,30s-13.4,30-30,30Z" />
</svg>