<?xml version="1.0" encoding="UTF-8"?>
<svg id="logs-layer" xmlns="http://www.w3.org/2000/svg" version="1.1" viewBox="0 0 1024 1024">
	<defs>
		<style>
			.logs-outline {
			fill: none;
			stroke: var(--bt-menu-icon-color, #787a79);
			stroke-width: 60px;
			}

			.logs-lines {
			fill: none;
			stroke: var(--bt-menu-icon-color, #787a79);
			stroke-width: 60px;
			stroke-linecap: round;
			}
		</style>
	</defs>
	<path class="logs-outline"
		d="M94.83,512c0-196.66,0-294.99,61.09-356.08,61.09-61.09,159.42-61.09,356.08-61.09s294.99,0,356.08,61.09c61.09,61.09,61.09,159.42,61.09,356.08s0,294.99-61.09,356.08c-61.09,61.09-159.43,61.09-356.08,61.09s-294.98,0-356.08-61.09c-61.09-61.1-61.09-159.43-61.09-356.08Z" />
	<path class="logs-lines"
		d="M94.83,553.72h131.84c37.76,0,56.64,0,73.24,7.64,16.6,7.63,28.88,21.97,53.46,50.64l25.26,29.46c24.57,28.67,36.86,43.01,53.46,50.64,16.6,7.63,35.48,7.63,73.24,7.63h13.37c37.76,0,56.65,0,73.24-7.63,16.6-7.64,28.89-21.97,53.46-50.64l25.26-29.46c24.57-28.67,36.86-43.01,53.46-50.64,16.6-7.64,35.48-7.64,73.24-7.64h131.84" />
	<path class="logs-lines" d="M345.13,303.42h333.74" />
	<path class="logs-lines" d="M428.56,449.43h166.87" />
</svg>