<?xml version="1.0" encoding="UTF-8"?>
<svg id="mail-layer" xmlns="http://www.w3.org/2000/svg" version="1.1" viewBox="0 0 1024 1024">
	<defs>
		<style>
			.mail-box {
			fill: none;
			stroke: var(--bt-menu-icon-color, #787a79);
			stroke-miterlimit: 10;
			stroke-width: 60px;
			}

			.mail-envelope {
			fill: var(--bt-menu-icon-color, #787a79);
			}
		</style>
	</defs>
	<rect class="mail-box" x="93.7" y="199.79" width="836.6" height="624.43" rx="113.16" ry="113.16" />
	<path class="mail-envelope"
		d="M841.22,294.74c-10.9-10.94-28.66-10.94-39.59,0l-233.63,232.57v-.33c-15.09,14.4-35.26,23.52-57.75,23.52-20.96,0-39.52-8.46-54.25-21.15l-233.66-234.61c-10.94-10.94-28.66-10.94-39.6,0-10.94,10.94-10.94,28.66,0,39.59l177.15,178.14-177.15,177.15c-10.94,10.94-10.94,28.66,0,39.6,10.94,10.94,28.69,10.94,39.6,0l177.04-177.01,46.3,46.53c2.29,2.62,4.73,5.09,7.33,7.4l2.99,2.44c14.44,11.67,32.52,18.92,52.5,18.92,23.27,0,44.3-7.63,59.5-22.9l53.92-53.34,177.95,177.95c10.94,10.94,28.7,10.94,39.6,0,10.93-10.93,10.93-28.66,0-39.6l-177.74-177.73,179.49-177.55c10.94-10.94,10.94-28.65,0-39.59Z" />
</svg>