<?xml version="1.0" encoding="UTF-8"?>
<svg id="site-layer" xmlns="http://www.w3.org/2000/svg" version="1.1" viewBox="0 0 1024 1024">
	<defs>
		<style>
			.site-outline, .site-line {
			fill: none;
			stroke: var(--bt-menu-icon-color, #787a79);
			stroke-width: 60px;
			}

			.site-dot {
			fill: var(--bt-menu-icon-color, #787a79);
			}

			.site-line {
			stroke-linecap: round;
			}
		</style>
	</defs>
	<path class="site-outline"
		d="M98,512.11c0-195.11,0-292.66,60.61-353.27,60.61-60.61,158.17-60.61,353.27-60.61s292.66,0,353.27,60.61c60.61,60.61,60.61,158.17,60.61,353.27s0,292.66-60.61,353.27c-60.61,60.61-158.17,60.61-353.27,60.61s-292.66,0-353.27-60.61c-60.61-60.62-60.61-158.17-60.61-353.27Z" />
	<path class="site-dot"
		d="M304.95,263.78c0,22.86-18.53,41.39-41.39,41.39s-41.39-18.53-41.39-41.39,18.53-41.39,41.39-41.39,41.39,18.53,41.39,41.39Z" />
	<path class="site-dot"
		d="M429.11,263.78c0,22.86-18.53,41.39-41.39,41.39s-41.39-18.53-41.39-41.39,18.53-41.39,41.39-41.39,41.39,18.53,41.39,41.39Z" />
	<path class="site-dot"
		d="M553.28,263.78c0,22.86-18.53,41.39-41.39,41.39s-41.39-18.53-41.39-41.39,18.53-41.39,41.39-41.39,41.39,18.53,41.39,41.39Z" />
	<path class="site-line" d="M98,408.64h827.77" />
	<path class="site-line" d="M387.72,884.61v-455.27" />
</svg>