<?xml version="1.0" encoding="UTF-8"?>
<svg id="_图层_1" data-name="图层_1" xmlns="http://www.w3.org/2000/svg"
	xmlns:xlink="http://www.w3.org/1999/xlink" version="1.1" viewBox="0 0 1024 1024">
	<!-- Generator: Adobe Illustrator 29.0.1, SVG Export Plug-In . SVG Version: 2.1.0 Build 192)  -->
	<defs>
		<style>
			.st0 {
			fill: none;
			}

			.st1 {
			fill: var(--bt-menu-icon-color, #787a79);
			}

			.st2 {
			clip-path: url(#clippath);
			}
		</style>
		<clipPath id="clippath">
			<rect class="st0" x="64" y="127.7" width="896" height="768.7" />
		</clipPath>
	</defs>
	<g class="st2">
		<path class="st1"
			d="M754.3,503.7c121.4,51.7,205.9,171.6,205.9,310.3s-15.2,33.9-33.9,33.9-33.9-15.2-33.9-33.9c0-141.8-110.9-259.2-252.9-268.9-18.7-1.3-32.8-17.4-31.5-36.1,1.3-18.7,17.4-32.8,36.1-31.5.5,0,1,0,1.5.1,4.6-.7,9.1-1.6,13.6-2.7,65-16,110.6-70.6,110.6-132.8s-35.6-104.5-89.9-126.2c-10.2-4.1-20.8-7.1-31.7-8.9-18.4-3.2-30.8-20.7-27.6-39.2,3.2-18.5,20.7-30.9,39.1-27.7,15.5,2.7,30.7,6.9,45.3,12.8,79.4,31.7,132.6,105.6,132.6,189.2s-32.2,123.9-83.3,161.8h0ZM541,524.4c140.3,48.5,241.1,181,241.1,337s-15.2,33.9-33.9,33.9-33.9-15.2-33.9-33.9c0-159.5-130.4-288.9-291.3-288.9s-291.3,129.4-291.3,288.9-15.2,33.9-33.9,33.9-33.9-15.2-33.9-33.9c0-156,100.8-288.5,241.1-337-59.5-38.4-98.9-105.1-98.9-180.9,0-119.1,97.2-215.6,216.9-215.6s216.9,96.5,216.9,215.6-39.4,142.5-98.9,180.9h0ZM572.2,343.4c0-81.5-66.7-147.8-149.2-147.8s-149.2,66.2-149.2,147.8,66.7,147.7,149.2,147.7,149.2-66.2,149.2-147.7h0ZM572.2,343.4" />
	</g>
</svg>