<?xml version="1.0" encoding="UTF-8"?>
<svg id="waf-layer" xmlns="http://www.w3.org/2000/svg" version="1.1" viewBox="0 0 1024 1024">
	<style>
		.waf-outline, .waf-line {
		fill: none;
		stroke: var(--bt-menu-icon-color, #787a79);
		stroke-width: 60px;
		}
		.waf-line {
		stroke-linecap: round;
		}
	</style>
	<path class="waf-outline"
		d="M136.12,445.87c0-133.55,0-200.32,15.77-222.78,15.77-22.46,78.55-43.96,204.12-86.94l23.92-8.19c65.46-22.41,98.18-33.61,132.07-33.61s66.62,11.2,132.07,33.61l23.92,8.19c125.57,42.98,188.36,64.47,204.12,86.94,15.77,22.46,15.77,89.24,15.77,222.78v65.77c0,235.47-177.04,349.74-288.12,398.27-30.13,13.16-45.2,19.74-87.77,19.74s-57.63-6.58-87.77-19.74c-111.08-48.52-288.12-162.8-288.12-398.27v-65.77Z" />
	<path class="waf-outline"
		d="M720.82,512.01c0,27.42-5.4,54.58-15.9,79.91-10.49,25.34-25.87,48.36-45.27,67.75s-42.41,34.77-67.75,45.27c-25.34,10.5-52.49,15.9-79.91,15.9s-54.58-5.4-79.92-15.9c-25.34-10.49-48.36-25.87-67.75-45.27-19.39-19.39-34.77-42.41-45.27-67.75-10.49-25.33-15.9-52.49-15.9-79.91s5.4-54.58,15.9-79.91c10.49-25.34,25.88-48.36,45.27-67.75,19.39-19.39,42.41-34.77,67.75-45.27,25.34-10.49,52.49-15.9,79.92-15.9s54.58,5.4,79.91,15.9c25.34,10.49,48.36,25.88,67.75,45.27,19.39,19.39,34.77,42.41,45.27,67.75,10.49,25.34,15.9,52.49,15.9,79.91h0Z" />
	<path class="waf-outline"
		d="M589.17,591.92c4.2-25.33,6.36-52.49,6.36-79.91s-2.16-54.58-6.36-79.91c-4.2-25.34-10.35-48.36-18.11-67.75-7.75-19.39-16.96-34.77-27.1-45.27-10.13-10.49-20.99-15.9-31.96-15.9s-21.83,5.4-31.97,15.9c-10.14,10.49-19.34,25.88-27.1,45.27-7.76,19.39-13.91,42.41-18.11,67.75-4.2,25.34-6.36,52.49-6.36,79.91s2.16,54.58,6.36,79.91c4.2,25.34,10.35,48.36,18.11,67.75,7.76,19.39,16.96,34.77,27.1,45.27,10.13,10.5,20.99,15.9,31.97,15.9s21.83-5.4,31.96-15.9c10.14-10.49,19.35-25.87,27.1-45.27,7.76-19.39,13.91-42.41,18.11-67.75Z" />
	<path class="waf-line" d="M303.17,512h417.65" />
</svg>