<?xml version="1.0" encoding="UTF-8"?>
<svg id="_图层_1" data-name="图层_1" xmlns="http://www.w3.org/2000/svg" version="1.1" viewBox="0 0 1024 1024">
  <!-- Generator: Adobe Illustrator 29.0.1, SVG Export Plug-In . SVG Version: 2.1.0 Build 192)  -->
  <defs>
    <style>
      .st0 {
        fill: #86da2f;
      }

      .st1 {
        fill: #ffcb12;
      }

      .st2 {
        fill: #0069da;
      }

      .st3 {
        fill: #ff4649;
      }

      .st4 {
        fill: #24c2ff;
      }
    </style>
  </defs>
  <path class="st0" d="M887.84,568.74c38.14-2.92,68.99,22.01,71.95,60.19,2.92,39.66-25.01,71.95-63.15,74.87-36.85,2.71-68.99-24.83-71.95-61.67-2.96-39.62,23.45-69.03,63.11-73.43v.04h.04Z"/>
  <path class="st4" d="M423.92,881.47c0-38.14,29.37-67.51,64.59-67.51s69.03,32.33,69.03,68.99-29.33,66.11-63.11,67.55c-42.58,0-70.51-26.49-70.51-68.99v-.04Z"/>
  <path class="st1" d="M528.12,452.77c-5.84,2.96-8.8-1.44-10.25-5.84-54.3-101.36-38.18-229.06,57.26-305.41,24.97-20.53,71.95-25.01,92.48-4.4,8.8,7.4,10.28,16.13,11.76,26.41,2.92,22.05,7.32,44.06,22.05,61.67,16.13,19.13,36.66,26.41,60.15,25.01,20.53,0,41.1-2.92,54.34,20.53,7.32,13.24,4.4,64.55-7.32,74.83-5.88,4.44-10.28,1.48-14.69,0-33.81-13.21-69.03-13.21-104.28-7.32-11.73,1.44-17.61-1.48-17.61-14.69-1.48-22.05-5.84-42.58-17.61-61.67-22.01-39.66-63.11-41.14-89.56-4.4-22.01,29.37-27.85,64.59-33.77,99.88-5.88,30.77-4.4,63.11-2.96,95.44v-.04Z"/>
  <path class="st0" d="M564.82,474.78c-2.92-4.44-1.48-8.8,2.92-11.73,83.72-76.35,208.53-91.04,305.41-16.17,24.93,20.57,41.1,63.15,27.89,88.12-4.67,8.62-12.64,14.98-22.09,17.61-20.53,8.8-39.62,17.65-52.82,36.7-13.21,19.17-16.13,41.1-10.25,64.67,4.4,19.05,11.73,39.58-7.36,57.19-10.25,10.28-60.19,19.13-73.39,10.28-5.84-4.4-4.4-8.8-2.96-14.69,4.4-36.7-4.4-70.51-17.61-102.76-4.4-11.73-2.92-17.61,8.8-20.53,20.57-5.84,39.7-16.17,54.34-30.81,32.29-30.81,25.01-70.43-17.61-88.08-33.77-14.73-68.99-11.76-102.76-8.8-32.26,1.44-63.11,10.25-92.48,19.09,0,0-.04-.08-.04-.08Z"/>
  <path class="st4" d="M545.73,512.95c4.4-4.4,7.4-2.96,11.76,0,96.88,58.75,146.78,174.68,102.76,287.77-11.76,29.41-49.94,58.75-77.79,51.42-11.73-2.88-17.65-8.8-23.53-16.13-13.21-17.69-27.89-33.81-49.86-41.1-23.49-7.32-44.1-2.92-64.67,8.8-17.57,10.28-35.18,23.49-57.19,10.28-13.24-7.36-35.25-52.82-30.85-67.51,2.92-5.84,8.8-5.84,14.73-5.84,36.66-5.88,66.07-23.49,93.96-47.02,8.8-7.36,16.13-7.36,23.45,2.92,11.76,17.61,26.41,32.29,45.5,42.54,38.18,22.09,74.87,2.96,79.27-41.06,4.4-36.7-8.8-68.95-20.53-101.28-13.34-29.15-29.07-57.15-47.02-83.72v-.08Z"/>
  <path class="st2" d="M498.75,521.8c-5.84,29.33-19.09,57.23-36.62,82.2-52.9,79.24-129.25,111.57-223.22,102.76-33.74-2.96-61.67-30.85-64.55-58.75-1.66-10.61,1.58-21.39,8.8-29.33,10.25-13.21,19.09-25.01,23.45-41.1,8.8-32.33-2.92-58.75-26.41-82.2-32.26-32.33-27.85-61.71,10.28-85.16,4.4-2.96,10.28-5.84,16.13-8.8,8.8-4.4,16.17-4.4,19.13,5.84,13.24,33.77,39.62,58.75,69.03,79.31,10.28,8.8,10.28,14.65,1.48,24.97-17.63,18.79-28.03,43.22-29.37,68.95-2.92,32.33,16.17,52.9,48.42,52.9,20.57,0,39.62-7.32,57.26-16.13,45.5-23.53,80.72-57.26,114.53-92.56,4.4-1.48,5.84-4.4,11.73-2.92h-.08Z"/>
  <path class="st3" d="M258.01,213.46c2.92,0,10.25,1.44,17.61,2.92,54.34,10.28,88.08-8.8,105.69-60.23,11.73-33.74,36.7-44.06,69.03-26.41,1.44,0,1.44,1.48,2.92,1.48,33.74,19.09,33.74,22.01,13.21,51.42-17.61,23.45-26.49,49.86-30.81,77.79-2.92,16.17-8.8,19.13-23.49,13.24-23.45-8.84-48.42-8.84-73.39,0-27.89,8.76-39.62,33.7-30.81,61.63,11.73,36.7,44.02,52.9,71.87,71.95,27.93,19.13,60.23,29.41,91.04,42.58,4.44,1.44,11.73,1.44,10.28,8.8-1.48,4.44-7.36,4.44-13.24,4.44-66.07,2.92-129.14-7.4-180.56-51.42-48.46-39.62-83.68-88.04-77.83-155.59,4.4-22.05,20.57-38.18,48.5-42.58,0,0,0-.04,0-.04Z"/>
  <path class="st2" d="M137.63,626c-35.22,4.4-70.43-24.97-73.43-61.67-2.92-35.22,26.41-70.51,60.19-73.39,38.14-4.48,73.39,21.97,76.35,57.19,1.44,33.81-20.57,74.91-63.15,77.79v.08h.04Z"/>
  <path class="st1" d="M754.26,103.37c36.66-2.96,71.95,26.41,74.87,63.11,2.96,35.25-26.49,69.03-61.67,71.91-38.18,2.96-71.95-24.93-74.87-61.67-2.96-36.7,23.45-70.43,61.67-73.35Z"/>
  <path class="st3" d="M371.05,131.19c4.44,38.18-22.09,70.47-61.71,76.35-33.74,4.44-68.99-23.45-73.39-55.71-4.44-42.62,19.09-73.47,58.75-77.87,36.66-4.44,71.87,23.45,76.35,57.23Z"/>
</svg>