<?xml version="1.0" encoding="UTF-8"?>
<svg id="_图层_1" data-name="图层_1" xmlns="http://www.w3.org/2000/svg" version="1.1" viewBox="0 0 1024 1024">
  <!-- Generator: Adobe Illustrator 29.0.1, SVG Export Plug-In . SVG Version: 2.1.0 Build 192)  -->
  <defs>
    <style>
      .st0 {
        fill: #59ab2d;
      }
    </style>
  </defs>
  <path class="st0" d="M513.19,63.99c-118.97,0-233.12,47.59-317.24,132.51-84.27,85.23-131.5,200.27-131.42,320.13,0,4.23.5,8.41.55,12.54l-1,310.87c-.8,20.21,3.83,40.32,13.39,58.24,9.46,17.87,20.91,31.36,40.82,43.61,19.71,12.2,36.74,16.48,56.9,16.88,20.14.43,40.04-4.55,57.59-14.44,35.88-20.29,58.14-58.24,58.34-99.46v-34.5l1.39-163.52v-127.88c.33-23.73-8.17-46.74-23.84-64.56-25.17-29.14-22.89-72.94,5.18-99.31,28-26.27,71.92-25.16,98.56,2.49,26.72,27.71,26.85,71.54.3,99.41-15.67,17.17-24.2,39.68-23.84,62.92v26.98s11.9,100.21,82.73,10.06l44.8-73.77c12.3-20.26,16.78-44.5,12.44-67.85-7.29-37.94,17.01-74.76,54.76-82.98,37.74-7.95,74.88,15.82,83.48,53.41,8.98,37.56-13.57,75.45-50.87,85.47-22.1,6.47-40.82,21.16-52.52,40.97l-47.44,77.85s-24.24,46.19,31.61,46.19l64.21-2.04c23.05-.3,45.1-9.46,61.68-25.54,26.72-27.62,70.7-28.55,98.56-2.09,27.98,26.38,29.92,70.49,4.48,99.36-25.31,28.98-69.27,32.09-98.41,6.97-17.83-15.56-40.86-23.84-64.51-23.2,0,0-64.81-1-107.97,48.58-35.01,39.96-43.44,96.69-21.55,145.11,1.14,2.49,2.49,4.93,3.68,7.72l1.49,2.24c.95,1.69,1.99,3.29,2.99,4.88l1.79,2.74c1,1.49,1.99,2.79,3.14,4.18l2.24,2.84c1.1,1.39,2.19,2.69,3.34,3.88l2.64,2.89,3.58,3.63,2.99,2.69,3.98,3.48,3.34,2.49,4.43,3.29c1.13.83,2.29,1.61,3.48,2.34,1.6,1.1,3.26,2.09,4.98,2.99l3.78,2.29c1.79,1,3.63,1.94,5.43,2.79l4.08,1.99,6.37,2.59,4.03,1.69,7.72,2.64,3.34,1.1c3.93,1.24,7.67,2.24,12.1,3.24l2.39.5c3.53.75,7.12,1.49,10.65,2.09l4.98.75c2.94.45,5.87.9,9.01,1.19l5.97.6,8.11.6c8.61.55,17.32.3,25.89-.55,223.81-48.93,375.14-260,351.24-489.73-23.84-229.78-215.34-404.45-444.28-405.45h-.05Z"/>
</svg>