<?xml version="1.0" encoding="UTF-8"?>
<svg id="_图层_1" data-name="图层_1" xmlns="http://www.w3.org/2000/svg" version="1.1" viewBox="0 0 1024 1024">
  <!-- Generator: Adobe Illustrator 29.0.1, SVG Export Plug-In . SVG Version: 2.1.0 Build 192)  -->
  <defs>
    <style>
      .st0 {
        fill: #1793d1;
      }
    </style>
  </defs>
  <path class="st0" d="M511.92,64c-39.89,97.78-63.95,161.73-108.36,256.6,27.23,28.86,60.65,62.46,114.93,100.42-58.36-24.01-98.16-48.11-127.9-73.12-56.84,118.58-145.88,287.48-326.59,612.1,142.03-81.98,252.12-132.52,354.72-151.81-4.63-19.94-6.9-40.35-6.74-60.82l.17-4.55c2.25-90.97,49.59-160.93,105.66-156.18,56.07,4.75,99.66,82.4,97.41,173.37-.43,17.11-2.36,33.59-5.73,48.86,101.49,19.85,210.41,70.26,350.51,151.13-27.63-50.85-52.28-96.69-75.83-140.35-37.09-28.74-75.78-66.15-154.7-106.65,54.24,14.09,93.08,30.34,123.35,48.52-239.42-445.67-258.8-504.89-340.91-697.53Z"/>
</svg>