<?xml version="1.0" encoding="UTF-8"?>
<svg id="_图层_1" data-name="图层_1" xmlns="http://www.w3.org/2000/svg" version="1.1" viewBox="0 0 1024 1024">
  <!-- Generator: Adobe Illustrator 29.0.1, SVG Export Plug-In . SVG Version: 2.1.0 Build 192)  -->
  <defs>
    <style>
      .st0 {
        fill: #ffa648;
      }

      .st1 {
        fill: #ffa64c;
      }

      .st2 {
        fill: #2f3597;
      }

      .st3 {
        fill: #a3248d;
      }

      .st4 {
        fill: #92307f;
      }

      .st5 {
        fill: #a6218e;
      }

      .st6 {
        fill: #2b30a5;
      }

      .st7 {
        fill: #2f3291;
      }

      .st8 {
        fill: #a6cd3c;
      }

      .st9 {
        fill: #f6ab46;
      }

      .st10 {
        fill: #a4cb3e;
      }
    </style>
  </defs>
  <path class="st10" d="M195.23,340.05l31.68-31.68,20.38-20.35,20.35,20.35,146.04,146.04h40.74v-40.71l-146.04-146.04-20.38-20.41,20.38-20.35,31.65-31.65h-144.81v144.81Z"/>
  <path class="st8" d="M454.42,372.96v-177.75h-73.62l-52.07,52.07s125.68,125.68,125.68,125.68ZM195.23,380.82v73.62h177.75l-125.68-125.68s-52.07,52.07-52.07,52.07Z"/>
  <path class="st4" d="M736.03,247.28l-20.38,20.38-146.07,146.04v40.71h40.74l146.07-146.04,20.38-20.35,20.35,20.35,31.65,31.68v-144.81h-144.81l31.68,31.65,20.38,20.38Z"/>
  <path class="st9" d="M409.64,166.44h73.59v235.33l28.78,28.81,28.81-28.81v-235.33h73.62l-102.42-102.42-102.36,102.42Z"/>
  <path class="st3" d="M651.05,454.4h177.72v-73.59l-52.07-52.07-125.65,125.65Z"/>
  <path class="st5" d="M166.42,540.82h235.33l28.81-28.81-28.81-28.81h-235.33v-73.62l-102.42,102.42,102.42,102.42v-73.62Z"/>
  <path class="st1" d="M569.58,651.07v177.75h73.65l52.04-52.07s-125.68-125.68-125.68-125.68ZM651.05,569.6l125.65,125.68,52.07-52.07v-73.62s-177.72,0-177.72,0Z"/>
  <path class="st3" d="M569.58,372.96l125.68-125.68-52.04-52.04h-73.65v177.72Z"/>
  <path class="st0" d="M828.74,683.98l-31.65,31.68-20.38,20.35-20.35-20.35-146.04-146.07h-40.74v40.74l146.07,146.07,20.38,20.35-20.38,20.38-31.68,31.65h144.78v-144.81Z"/>
  <path class="st6" d="M857.58,483.21h-235.33l-28.78,28.81,28.78,28.81h235.33v73.62l102.42-102.42-102.42-102.42v73.62Z"/>
  <path class="st2" d="M247.29,695.28l125.65-125.68h-177.72v73.62l52.07,52.07Z"/>
  <path class="st7" d="M288,776.72l20.35-20.38,146.04-146.01v-40.74h-40.71l-146.07,146.07-20.35,20.35-20.35-20.35-31.68-31.68v144.81h144.84l-31.68-31.68s-20.38-20.38-20.38-20.38ZM614.42,857.59h-73.62v-235.36l-28.81-28.81-28.78,28.81v235.36h-73.62l102.42,102.39s102.39-102.39,102.39-102.39Z"/>
  <path class="st7" d="M454.42,651.07l-125.68,125.65,52.07,52.07h73.62v-177.72Z"/>
</svg>