<?xml version="1.0" encoding="UTF-8"?>
<svg id="_图层_1" data-name="图层_1" xmlns="http://www.w3.org/2000/svg" version="1.1" viewBox="0 0 1024 1024">
  <!-- Generator: Adobe Illustrator 29.0.1, SVG Export Plug-In . SVG Version: 2.1.0 Build 192)  -->
  <defs>
    <style>
      .st0 {
        fill: #d99a03;
      }

      .st1 {
        fill: #020204;
      }

      .st2 {
        fill: #604405;
      }

      .st3 {
        fill: #fff;
      }

      .st4 {
        fill: #cd8907;
      }

      .st5 {
        fill: #f5bd0c;
      }
    </style>
  </defs>
  <path class="st3" d="M523.52,196.53c-8.64,5.76-14.41,14.41-20.17,23.05-2.88,11.52-2.88,25.93,2.88,37.45,2.88,11.52,11.52,23.05,23.05,31.69,5.76,2.88,11.52,5.76,17.29,5.76s14.41,0,20.17-2.88c5.76-2.88,11.52-8.64,14.41-17.29,2.88-8.64,5.76-14.41,5.76-23.05,0-11.52,0-20.17-2.88-28.81-2.88-11.52-11.52-20.17-20.17-25.93-2.88-2.88-8.64-2.88-14.41-5.76-5.76,0-11.52,0-17.29,2.88-2.88,0-5.76,2.88-8.64,2.88"/>
  <path class="st1" d="M808.75,605.63c-5.76-28.81-14.41-54.74-23.05-83.55-8.64-20.17-17.29-37.45-28.81-54.74-11.52-17.29-28.81-31.69-40.33-46.1l-17.29-25.93-8.64-17.29c-8.64-17.29-14.41-34.57-25.93-51.86-2.88-2.88-2.88-5.76-5.76-8.64,0-17.29-2.88-31.69-2.88-48.98,0-31.69-2.88-63.38-8.64-95.07-2.88-14.41-11.52-28.81-20.17-43.22-8.64-14.41-23.05-28.81-37.45-40.33-23.05-17.29-51.86-25.93-83.55-25.93-23.05,0-43.22,5.76-63.38,14.41-20.17,11.52-37.45,28.81-46.1,48.98-8.64,20.17-14.41,43.22-14.41,66.26s0,46.1,2.88,66.26c0,23.05,0,46.1,2.88,69.14,0,8.64,2.88,14.41,2.88,23.05v11.52c-11.52,17.29-20.17,34.57-34.57,48.98-8.64,11.52-17.29,23.05-25.93,31.69-11.52,11.52-20.17,25.93-28.81,43.22-5.76,14.41-8.64,25.93-11.52,40.33-5.76,14.41-11.52,31.69-17.29,46.1,0,0,0,2.88-2.88,2.88-5.76,8.64-8.64,17.29-14.41,25.93l-2.88,14.41c-2.88,5.76-5.76,11.52-8.64,20.17-2.88,2.88-2.88,8.64-2.88,11.52,0,8.64,0,17.29,2.88,25.93q0,2.88,2.88,5.76l8.64,17.29c0,2.88,2.88,5.76,2.88,8.64v2.88c2.88,2.88,2.88,5.76,5.76,8.64,2.88,2.88,2.88,5.76,5.76,8.64,2.88,2.88,2.88,5.76,5.76,8.64,8.64,28.81,20.17,54.74,40.33,77.79-2.88,5.76-5.76,11.52-8.64,14.41-11.52,14.41-17.29,31.69-25.93,46.1-2.88,8.64-2.88,17.29-2.88,25.93,2.88,8.64,5.76,17.29,14.41,23.05,5.76,2.88,8.64,5.76,14.41,8.64,5.76,0,11.52,2.88,17.29,2.88,23.05-2.88,43.22-5.76,66.26-11.52,11.52-2.88,25.93-5.76,37.45-8.64,14.41-2.88,25.93-5.76,40.33-5.76h51.86c17.29,0,31.69,2.88,48.98,5.76l43.22,8.64c23.05,5.76,43.22,11.52,66.26,11.52h17.29c5.76,0,11.52-2.88,17.29-8.64,5.76-5.76,11.52-14.41,14.41-23.05,2.88-8.64,0-17.29-2.88-25.93-11.52-20.17-20.17-34.57-28.81-48.98-2.88-5.76-5.76-11.52-11.52-17.29,14.41-17.29,28.81-37.45,40.33-57.62,5.76,0,14.41,0,20.17-2.88,17.29-5.76,31.69-17.29,43.22-31.69,2.88-5.76,5.76-8.64,8.64-14.41,5.76-11.52,11.52-23.05,14.41-34.57,2.88-23.05,2.88-43.22-2.88-63.38Z"/>
  <path class="st3" d="M425.57,323.29c-2.88,2.88-5.76,8.64-5.76,14.41s-2.88,8.64-2.88,14.41c0,8.64,0,20.17-2.88,28.81-2.88,11.52-8.64,20.17-14.41,28.81-11.52,14.41-20.17,31.69-25.93,48.98-5.76,8.64-5.76,20.17-5.76,31.69-11.52,17.29-23.05,37.45-31.69,57.62-14.41,28.81-23.05,60.5-25.93,95.07-2.88,40.33,2.88,80.67,17.29,118.12,11.52,25.93,28.81,51.86,48.98,69.14,11.52,8.64,23.05,17.29,37.45,23.05,46.1,23.05,100.84,23.05,146.93-2.88,23.05-14.41,43.22-28.81,63.38-48.98,11.52-11.52,23.05-23.05,31.69-37.45,14.41-25.93,25.93-57.62,25.93-89.31,8.64-54.74,2.88-109.48-17.29-158.46-8.64-17.29-20.17-31.69-31.69-46.1-2.88-23.05-11.52-46.1-20.17-69.14-5.76-14.41-17.29-31.69-23.05-46.1-2.88-5.76-5.76-14.41-8.64-20.17-2.88-5.76-5.76-11.52-11.52-17.29-5.76-5.76-11.52-8.64-17.29-11.52-5.76,5.76-11.52,2.88-20.17,2.88h-77.79c-5.76,0-11.52,2.88-17.29,2.88-2.88,2.88-8.64,5.76-11.52,11.52M428.45,196.53c-5.76,0-11.52,2.88-14.41,5.76s-5.76,8.64-8.64,14.41c-2.88,11.52-2.88,20.17-2.88,31.69,0,8.64,2.88,20.17,5.76,28.81,2.88,5.76,5.76,8.64,8.64,11.52,2.88,2.88,8.64,5.76,11.52,8.64h14.41c5.76,0,8.64-2.88,11.52-5.76,5.76-5.76,8.64-11.52,8.64-17.29,2.88-5.76,2.88-14.41,2.88-20.17,0-8.64,0-17.29-2.88-25.93-2.88-8.64-5.76-14.41-11.52-20.17l-8.64-8.64c-5.76,0-8.64-2.88-14.41-2.88M523.52,196.53c-8.64,5.76-14.41,14.41-20.17,23.05-2.88,11.52-2.88,25.93,2.88,37.45,2.88,11.52,11.52,23.05,23.05,31.69,5.76,2.88,11.52,5.76,17.29,5.76s14.41,0,20.17-2.88c5.76-2.88,11.52-8.64,14.41-17.29,2.88-8.64,5.76-14.41,5.76-23.05,0-11.52,0-20.17-2.88-28.81-2.88-11.52-11.52-20.17-20.17-25.93-2.88-2.88-8.64-2.88-14.41-5.76-5.76,0-11.52,0-17.29,2.88-2.88,0-5.76,2.88-8.64,2.88"/>
  <path class="st1" d="M543.69,222.46c-2.88,0-5.76,0-8.64,2.88-2.88,2.88-5.76,2.88-5.76,5.76-2.88,5.76-5.76,11.52-5.76,17.29s0,8.64,2.88,14.41c2.88,5.76,2.88,8.64,8.64,11.52,0,2.88,5.76,5.76,11.52,5.76s8.64,0,14.41-2.88l8.64-8.64v-11.52c0-5.76,0-14.41-2.88-20.17-2.88-5.76-8.64-11.52-14.41-14.41h-8.64"/>
  <path class="st3" d="M428.45,196.53c-5.76,0-11.52,2.88-14.41,5.76-2.88,2.88-5.76,8.64-8.64,14.41-2.88,11.52-2.88,20.17-2.88,31.69,0,8.64,2.88,20.17,5.76,28.81,2.88,5.76,5.76,8.64,8.64,11.52,2.88,2.88,8.64,5.76,11.52,8.64h14.41c5.76,0,8.64-2.88,11.52-5.76,5.76-5.76,8.64-11.52,8.64-17.29,2.88-5.76,2.88-14.41,2.88-20.17,0-8.64,0-17.29-2.88-25.93-2.88-8.64-5.76-14.41-11.52-20.17l-8.64-8.64c-5.76,0-8.64-2.88-14.41-2.88"/>
  <path class="st1" d="M416.93,242.62v20.17c2.88,2.88,2.88,8.64,5.76,11.52,2.88,2.88,5.76,2.88,5.76,5.76,2.88,0,5.76,2.88,8.64,0,2.88,0,5.76-2.88,5.76-5.76,2.88-2.88,2.88-5.76,2.88-8.64,8.64-5.76,8.64-14.41,5.76-20.17-2.88-5.76-5.76-11.52-8.64-14.41-2.88-2.88-5.76-2.88-8.64-2.88h-8.64c-2.88,0-5.76,2.88-5.76,5.76-2.88,2.88-2.88,5.76-2.88,8.64"/>
  <path class="st0" d="M405.4,326.17c2.88,2.88,2.88,5.76,5.76,5.76l2.88,2.88,17.29,17.29c5.76,8.64,14.41,17.29,23.05,25.93,5.76,5.76,14.41,5.76,23.05,8.64,8.64,0,17.29,0,25.93-2.88s17.29-5.76,23.05-11.52c11.52-11.52,25.93-20.17,40.33-25.93,2.88,0,5.76-2.88,8.64-2.88s5.76-2.88,8.64-5.76c0-2.88,2.88-5.76,2.88-8.64s2.88-5.76,2.88-11.52v-11.52c0-2.88-2.88-5.76-5.76-5.76s-5.76-2.88-8.64-2.88c-5.76,0-11.52,0-17.29,2.88h-23.05c-8.64,0-20.17,2.88-28.81,2.88-11.52,0-23.05,0-34.57-2.88h-14.41c-5.76,0-8.64,2.88-14.41,5.76-8.64,0-11.52,2.88-17.29,5.76q-2.88,2.88-5.76,2.88c-2.88,0-5.76,2.88-5.76,2.88h-5.76l-2.88,2.88v5.76"/>
  <path class="st2" d="M428.45,300.24c-2.88,2.88-5.76,5.76-11.52,8.64-2.88,0-2.88,2.88-5.76,5.76v20.17h5.76c2.88,0,5.76,2.88,8.64,5.76l8.64,8.64c8.64,5.76,17.29,8.64,28.81,8.64,8.64,0,20.17-2.88,28.81-2.88,8.64-2.88,14.41-2.88,23.05-5.76,11.52-2.88,20.17-11.52,31.69-17.29,2.88-2.88,8.64-5.76,11.52-11.52,2.88-2.88,8.64-2.88,11.52-5.76v-5.76l-2.88-2.88c-5.76-2.88-8.64-5.76-14.41-5.76h-17.29c-5.76,0-11.52-2.88-14.41-5.76-5.76-2.88-11.52-2.88-17.29-2.88-11.52-2.88-25.93-2.88-40.33,0-11.52-2.88-23.05,2.88-34.57,8.64"/>
  <path class="st5" d="M428.45,285.84c-5.76,2.88-11.52,8.64-14.41,14.41-2.88,2.88-5.76,5.76-5.76,11.52,0,2.88-2.88,5.76-2.88,8.64v8.64h5.76c5.76,0,8.64,2.88,11.52,5.76,2.88,2.88,5.76,5.76,11.52,8.64,8.64,5.76,17.29,8.64,28.81,8.64,8.64,0,20.17,0,28.81-2.88,8.64,0,14.41-2.88,23.05-5.76,11.52-5.76,20.17-11.52,31.69-17.29,5.76-2.88,8.64-5.76,11.52-11.52l2.88-2.88s2.88-2.88,5.76-2.88h17.29s2.88,0,2.88-2.88v-5.76l-5.76-5.76c-2.88,0-5.76-2.88-11.52-2.88-11.52-2.88-23.05-5.76-31.69-11.52-5.76-2.88-11.52-5.76-14.41-8.64l-17.29-8.64c-11.52-2.88-25.93-2.88-40.33,2.88-17.29,2.88-28.81,11.52-37.45,20.17"/>
  <path class="st4" d="M491.83,271.43c0,2.88,2.88,2.88,5.76,2.88s2.88,2.88,5.76,2.88,5.76,0,5.76-2.88-2.88-2.88-5.76-5.76c-2.88,0-5.76,0-11.52,2.88,2.88-2.88,0,0,0,0ZM457.26,268.55c-2.88,0-5.76,2.88-5.76,5.76,0,0,2.88,2.88,2.88,0l2.88-2.88q2.88,0,0-2.88Z"/>
  <path class="st5" d="M886.53,827.47c-2.88,5.76-5.76,8.64-8.64,14.41-8.64,8.64-17.29,17.29-28.81,20.17-20.17,8.64-37.45,17.29-54.74,28.81-11.52,8.64-23.05,17.29-31.69,25.93-8.64,8.64-17.29,17.29-25.93,23.05-8.64,8.64-20.17,11.52-31.69,14.41-14.41,2.88-28.81,0-43.22-5.76-8.64-2.88-17.29-11.52-23.05-20.17-5.76-8.64-8.64-20.17-5.76-28.81,0-17.29,2.88-37.45,5.76-54.74,2.88-14.41,5.76-28.81,5.76-46.1,2.88-28.81,2.88-54.74,0-83.55v-14.41c0-8.64,8.64-17.29,17.29-17.29h11.52c8.64,0,20.17,2.88,28.81,5.76,5.76,2.88,11.52,2.88,17.29,5.76,11.52,2.88,20.17,2.88,31.69,2.88,11.52-2.88,23.05-5.76,34.57-5.76,5.76,0,8.64,0,14.41,2.88,5.76,0,8.64,2.88,11.52,5.76,2.88,2.88,5.76,5.76,5.76,8.64,2.88,5.76,2.88,11.52,2.88,14.41v14.41c2.88,8.64,5.76,14.41,11.52,20.17l17.29,17.29c5.76,5.76,11.52,11.52,17.29,14.41,2.88,2.88,5.76,2.88,8.64,5.76l8.64,8.64c2.88,11.52,2.88,17.29,2.88,23.05"/>
  <path class="st5" d="M886.53,827.47c-2.88,5.76-5.76,8.64-8.64,14.41-8.64,8.64-17.29,17.29-28.81,20.17-20.17,8.64-37.45,17.29-54.74,28.81-11.52,8.64-23.05,17.29-31.69,25.93-8.64,8.64-17.29,17.29-25.93,23.05-8.64,8.64-20.17,11.52-31.69,14.41-14.41,2.88-28.81,0-43.22-5.76-8.64-2.88-17.29-11.52-23.05-20.17-5.76-8.64-8.64-20.17-5.76-28.81,0-17.29,2.88-37.45,5.76-54.74,2.88-14.41,5.76-28.81,5.76-46.1,2.88-28.81,2.88-54.74,0-83.55v-14.41c0-8.64,8.64-17.29,17.29-17.29h11.52c8.64,0,20.17,2.88,28.81,5.76,5.76,2.88,11.52,2.88,17.29,5.76,11.52,2.88,20.17,2.88,31.69,2.88,11.52-2.88,23.05-5.76,34.57-5.76,5.76,0,8.64,0,14.41,2.88,5.76,0,8.64,2.88,11.52,5.76,2.88,2.88,5.76,5.76,5.76,8.64,2.88,5.76,2.88,11.52,2.88,14.41v14.41c2.88,8.64,5.76,14.41,11.52,20.17l17.29,17.29c5.76,5.76,11.52,11.52,17.29,14.41,2.88,2.88,5.76,2.88,8.64,5.76l8.64,8.64c2.88,11.52,2.88,17.29,2.88,23.05M258.47,674.78c5.76-2.88,11.52-2.88,14.41,0,5.76,0,8.64,2.88,14.41,5.76,8.64,5.76,14.41,14.41,20.17,23.05,14.41,20.17,28.81,40.33,40.33,60.5,8.64,17.29,20.17,34.57,31.69,48.98,8.64,11.52,17.29,20.17,23.05,28.81,8.64,8.64,14.41,20.17,17.29,34.57,5.76,17.29,2.88,34.57-5.76,48.98-5.76,11.52-14.41,20.17-23.05,25.93-8.64,5.76-20.17,8.64-31.69,8.64-17.29-2.88-37.45-8.64-51.86-17.29-34.57-14.41-72.03-17.29-109.48-28.81-11.52-2.88-23.05-8.64-31.69-11.52-5.76,0-8.64-2.88-14.41-5.76-5.76-2.88-8.64-5.76-11.52-8.64-2.88-5.76-2.88-8.64-2.88-14.41,0-2.88,0-8.64,2.88-11.52,2.88-8.64,5.76-14.41,8.64-20.17,5.76-11.52,5.76-25.93,5.76-37.45s-2.88-25.93-2.88-37.45v-17.29c2.88-11.52,11.52-20.17,23.05-23.05h34.57c5.76,0,11.52-2.88,14.41-2.88,0-5.76,5.76-11.52,8.64-14.41,2.88-2.88,5.76-8.64,8.64-14.41,2.88-5.76,5.76-8.64,8.64-11.52,0-2.88,5.76-5.76,8.64-8.64"/>
  <path class="st5" d="M258.47,674.78c5.76-2.88,11.52-2.88,14.41,0,5.76,0,8.64,2.88,14.41,5.76,8.64,5.76,14.41,14.41,20.17,23.05,14.41,20.17,28.81,40.33,40.33,60.5,8.64,17.29,20.17,34.57,31.69,48.98,8.64,11.52,17.29,20.17,23.05,28.81,8.64,8.64,14.41,20.17,17.29,34.57,5.76,17.29,2.88,34.57-5.76,48.98-5.76,11.52-14.41,20.17-23.05,25.93-8.64,5.76-20.17,8.64-31.69,8.64-17.29-2.88-37.45-8.64-51.86-17.29-34.57-14.41-72.03-17.29-109.48-28.81-11.52-2.88-23.05-8.64-31.69-11.52-5.76,0-8.64-2.88-14.41-5.76-5.76-2.88-8.64-5.76-11.52-8.64-2.88-5.76-2.88-8.64-2.88-14.41,0-2.88,0-8.64,2.88-11.52,2.88-8.64,5.76-14.41,8.64-20.17,5.76-11.52,5.76-25.93,5.76-37.45s-2.88-25.93-2.88-37.45v-17.29c2.88-11.52,11.52-20.17,23.05-23.05h34.57c5.76,0,11.52-2.88,14.41-2.88,0-5.76,5.76-11.52,8.64-14.41,2.88-2.88,5.76-8.64,8.64-14.41,2.88-5.76,5.76-8.64,8.64-11.52,0-2.88,5.76-5.76,8.64-8.64"/>
  <path class="st5" d="M267.11,683.42c5.76-2.88,8.64-2.88,14.41,0,5.76,0,8.64,2.88,11.52,5.76,5.76,5.76,14.41,14.41,17.29,23.05,11.52,20.17,23.05,40.33,34.57,57.62l25.93,43.22c5.76,8.64,14.41,17.29,20.17,25.93,8.64,8.64,11.52,20.17,17.29,28.81,2.88,14.41,2.88,28.81-5.76,43.22-5.76,8.64-11.52,17.29-20.17,23.05-8.64,5.76-20.17,8.64-31.69,8.64-17.29-2.88-31.69-8.64-48.98-14.41-31.69-11.52-63.38-11.52-95.07-20.17l-34.57-8.64c-5.76,0-8.64-2.88-14.41-2.88-5.76-2.88-8.64-5.76-11.52-8.64-2.88-2.88-2.88-5.76-2.88-11.52,0-2.88,0-8.64,2.88-11.52,2.88-5.76,5.76-14.41,8.64-20.17,2.88-11.52,5.76-23.05,2.88-34.57,0-11.52-2.88-23.05-2.88-34.57v-14.41c0-5.76,2.88-8.64,5.76-14.41,2.88-2.88,8.64-5.76,14.41-5.76h34.57c5.76,0,11.52-2.88,17.29-5.76,2.88-2.88,8.64-5.76,8.64-11.52,2.88-5.76,2.88-8.64,5.76-14.41,2.88-5.76,2.88-8.64,5.76-14.41,11.52-5.76,14.41-11.52,20.17-11.52"/>
</svg>