<?xml version="1.0" encoding="UTF-8"?>
<svg id="_图层_1" data-name="图层_1" xmlns="http://www.w3.org/2000/svg" version="1.1" viewBox="0 0 1024 1024">
  <!-- Generator: Adobe Illustrator 29.0.1, SVG Export Plug-In . SVG Version: 2.1.0 Build 192)  -->
  <defs>
    <style>
      .st0 {
        fill: #060198;
      }

      .st1 {
        fill: #0368ec;
      }

      .st2 {
        fill: #00c0ff;
      }
    </style>
  </defs>
  <path class="st0" d="M213.3,661.37l149.34-149.34,149.34,149.34c-82.47,82.48-216.19,82.49-298.67.02,0,0-.01-.01-.02-.02ZM511.98,362.68c82.47-82.48,216.19-82.49,298.67-.02,0,0,.01.01.02.02l-149.34,149.34s-149.34-149.34-149.34-149.34Z"/>
  <path class="st2" d="M213.3,661.37c-82.48-82.47-82.49-216.19-.02-298.67,0,0,.01-.01.02-.02L511.98,64c82.48,82.47,82.49,216.19.02,298.67l-.02.02-298.68,298.68Z"/>
  <path class="st1" d="M661.32,810.66l-149.34,149.34c-82.48-82.47-82.49-216.19-.02-298.67,0,0,.01-.01.02-.02l149.34-149.34,149.34-149.34c82.48,82.39,82.55,216.05.16,298.53-.05.05-.1.11-.16.16,0,0-149.34,149.34-149.34,149.34Z"/>
</svg>