<?xml version="1.0" encoding="UTF-8"?>
<svg id="_图层_1" data-name="图层_1" xmlns="http://www.w3.org/2000/svg" version="1.1" viewBox="0 0 1024 1024">
  <!-- Generator: Adobe Illustrator 29.0.1, SVG Export Plug-In . SVG Version: 2.1.0 Build 192)  -->
  <defs>
    <style>
      .st0 {
        fill: #002fa7;
      }
    </style>
  </defs>
  <path class="st0" d="M841.43,413.79c-28.88,24.54-68.56,32.01-104.39,19.64-35.36-10.66-47.14-35.92-27.5-56.12,26.78-20.62,61.69-27.48,94.28-18.52,36.48,8.98,53.32,33.11,35.92,56.12M675.31,369.45c-25.82,20.36-59.87,27.05-91.48,17.96-16.84-5.05-26.38-15.71-26.94-24.69s-11.22-12.91-23.01-16.28c-12.47-3.1-25.41-3.87-38.16-2.24l-15.71,3.37c-11.86,3.56-23.05,9.06-33.11,16.28-8.98,8.08-14.42,19.37-15.15,31.43,0,8.42,8.98,15.71,21.33,20.2,13.82,3.47,28.28,3.47,42.09,0,18.31-5.46,37.81-5.46,56.12,0,17.78,4.27,28.73,22.15,24.46,39.93-1.48,6.18-4.71,11.8-9.31,16.19-27.71,23.76-65.96,31.03-100.46,19.08-13.7-4.89-23.19-17.47-24.13-31.99,0-9.54-9.54-16.84-21.33-21.89-13.64-4.04-27.98-5.19-42.09-3.37l-17.4,3.37c-13.93,3.43-26.83,10.17-37.6,19.64-7.55,7.19-13.65,15.76-17.96,25.25-2.01,4.26-3.33,8.8-3.93,13.47.46,11.66,7.71,21.98,18.52,26.38,13.95,6.06,29.38,7.82,44.34,5.05,18.58-4.95,38.27-3.77,56.12,3.37,30.87,14.03,34.23,48.26,5.61,76.32-29.52,29.53-74.28,37.59-112.24,20.2-14.81-8.41-22.52-25.41-19.08-42.09.21-2.05.21-4.12,0-6.17-.48-2.76-1.43-5.42-2.81-7.86-3.23-6.59-8.56-11.92-15.15-15.15-13.49-6.26-28.57-8.22-43.21-5.61-18.43,6.24-38.57,5.03-56.12-3.37-21.89-13.47-15.71-41.53,13.47-62.86,14.49-11.01,31.44-18.33,49.39-21.33,16.79-1.22,33.1-6.21,47.7-14.59,10.54-6.72,17.84-17.47,20.2-29.74.49-3.35.49-6.75,0-10.1-1.21-8.9,1.45-17.88,7.3-24.69,8.01-7.11,17.99-11.61,28.62-12.91,8.04-.52,16.1-.52,24.13,0h16.84c9.87-2.72,19.05-7.5,26.94-14.03,7.44-4.56,12.86-11.78,15.15-20.2v-8.42c0-15.15,19.08-31.43,49.39-37.04,13.28-3.17,27.12-3.17,40.41,0,8.71,1.24,16.37,6.41,20.76,14.03.24,1.11.24,2.26,0,3.37,4.69,8.4,12.96,14.19,22.45,15.71,13.35,2.55,27.06,2.55,40.41,0,17.16-4.1,35.04-4.1,52.19,0,29.74,7.3,39.85,28.06,21.33,46.02M603.48,706.18c-32.46,36.72-85.93,46.25-129.08,23.01-28.74-15.92-39.13-52.12-23.21-80.86,3.27-5.89,7.51-11.19,12.55-15.66,31.39-29.78,77.43-38.16,117.29-21.33,29.73,8.76,46.73,39.96,37.97,69.69-2.83,9.62-8.19,18.3-15.52,25.15M895.31,268.43l-354.13-197.55c-17.58-9.18-38.54-9.18-56.12,0L127.01,267.87c-17.09,9.86-27.74,27.97-28.06,47.7v392.85c.32,19.73,10.97,37.84,28.06,47.7l356.93,196.99c17.58,9.18,38.54,9.18,56.12,0l356.93-196.99c17.09-9.86,27.74-27.97,28.06-47.7v-392.85c-.32-19.73-10.97-37.84-28.06-47.7"/>
</svg>