<?xml version="1.0" encoding="UTF-8"?>
<svg id="control-layer" xmlns="http://www.w3.org/2000/svg" version="1.1" viewBox="0 0 1024 1024">
	<style>
		.control-outline {
		fill: none;
		stroke: var(--bt-menu-icon-color, #787a79);
		stroke-width: 60px;
		}
		.control-check {
		fill: var(--bt-menu-icon-color, #787a79);
		}
	</style>
	<path class="control-outline"
		d="M97,512c0-195.63,0-293.45,60.78-354.22,60.78-60.78,158.59-60.78,354.22-60.78s293.45,0,354.23,60.78c60.77,60.78,60.77,158.59,60.77,354.22s0,293.45-60.77,354.23c-60.77,60.77-158.59,60.77-354.23,60.77s-293.45,0-354.22-60.77c-60.78-60.78-60.78-158.59-60.78-354.23h0Z" />
	<path class="control-check"
		d="M610.99,526.14c-11.72,11.72-30.71,11.72-42.43,0l-91.92-91.92-21.21-21.21c-11.72-11.72-30.71-11.72-42.43,0l-21.21,21.21-134.35,134.35c-11.72,11.72-11.72,30.71,0,42.43h0c11.72,11.72,30.71,11.72,42.43,0l113.14-113.14c11.72-11.72,30.71-11.72,42.43,0l91.92,91.92,21.21,21.21c11.72,11.72,30.71,11.72,42.43,0l21.21-21.21,134.35-134.35c11.72-11.72,11.72-30.71,0-42.43h0c-11.72-11.72-30.71-11.72-42.43,0l-113.14,113.14Z" />
</svg>