<?xml version="1.0" encoding="UTF-8"?>
<svg id="docker-layer" xmlns="http://www.w3.org/2000/svg" version="1.1" viewBox="0 0 1024 1024">
	<defs>
		<style>
			.docker-element {
			fill: var(--bt-menu-icon-color, #787a79);
			}
		</style>
	</defs>
	<path class="docker-element"
		d="M93.87,392.53v-29.87c-16.49,0-29.87,13.37-29.87,29.87h29.87ZM213.33,273.07v-29.87c-16.49,0-29.87,13.37-29.87,29.87h29.87ZM452.27,153.6v-29.87c-16.49,0-29.87,13.37-29.87,29.87h29.87ZM571.73,153.6h29.87c0-16.49-13.37-29.87-29.87-29.87v29.87ZM810.67,512h-29.87v29.87h29.87v-29.87ZM123.73,512v-119.47h-59.73v119.47h59.73ZM243.2,512v-238.93h-59.73v238.93h59.73ZM213.33,302.93h358.4v-59.73H213.33v59.73ZM541.87,273.07v238.93h59.73v-238.93h-59.73ZM362.67,512v-238.93h-59.73v238.93h59.73ZM482.13,512V153.6h-59.73v358.4h59.73ZM452.27,183.47h119.47v-59.73h-119.47v59.73ZM541.87,153.6v119.47h59.73v-119.47h-59.73ZM884.5,661.34h15.77c32.99,0,59.73-26.75,59.73-59.73h-75.5v59.73ZM661.33,362.67v29.87h59.73v-29.87h-59.73ZM780.8,452.27v59.73h59.73v-59.73h-59.73ZM810.67,541.87h59.73v-59.73h-59.73v59.73ZM900.27,571.74v59.73h59.73v-59.73h-59.73ZM870.4,541.87c3.92,0,7.81.77,11.43,2.27,3.62,1.5,6.92,3.7,9.69,6.48,2.77,2.77,4.98,6.06,6.48,9.69,1.5,3.62,2.27,7.51,2.27,11.43h59.73c0-23.76-9.44-46.56-26.24-63.36-16.8-16.8-39.59-26.24-63.36-26.24v59.73ZM750.93,422.4c7.92,0,15.52,3.15,21.12,8.75,5.6,5.6,8.75,13.2,8.75,21.12h59.73c0-23.76-9.44-46.55-26.24-63.36-16.8-16.8-39.6-26.24-63.36-26.24v59.73ZM243.2,631.47c0,16.49,13.37,29.87,29.87,29.87s29.87-13.37,29.87-29.87-13.37-29.87-29.87-29.87-29.87,13.37-29.87,29.87ZM571.73,482.14H93.87v59.73h477.87v-59.73ZM64,512v59.73h59.73v-59.73h-59.73ZM392.53,900.27h31.54v-59.73h-31.54v59.73ZM424.07,900.27c72.43,0,143.86-17.03,208.5-49.72s120.7-80.11,163.64-138.44l-48.09-35.42c-37.39,50.8-86.2,92.09-142.49,120.55-56.29,28.46-118.48,43.29-181.56,43.3v59.73ZM64,571.74c0,87.13,34.61,170.7,96.23,232.3,61.61,61.61,145.18,96.23,232.31,96.23v-59.73c-71.29,0-139.66-28.32-190.07-78.73-50.41-50.41-78.73-118.78-78.73-190.07h-59.73ZM93.87,422.4h657.07v-59.73H93.87v59.73ZM661.33,392.53c0,23.76-9.44,46.55-26.24,63.36-16.8,16.8-39.6,26.25-63.36,26.25v59.73c39.6,0,77.59-15.73,105.59-43.74,28-28.01,43.74-65.99,43.74-105.6h-59.73ZM884.5,601.6c-57.34,0-105.67,33.33-136.37,75.08l48.15,35.42c22.88-31.18,55.07-50.77,88.22-50.77v-59.73Z" />
</svg>