<?xml version="1.0" encoding="UTF-8"?>
<svg id="_图层_1" xmlns="http://www.w3.org/2000/svg" version="1.1" viewBox="0 0 1024 1024">
	<!-- Generator: Adobe Illustrator 29.0.1, SVG Export Plug-In . SVG Version: 2.1.0 Build 192)  -->
	<defs>
		<style>
			.domain {
				fill: var(--bt-menu-icon-color, #787a79);
			}
		</style>
	</defs>
	<path class="domain"
		d="M235.3,440.2l-10.5-34.5c-1.7-5.5-6.8-9.3-12.6-9.3h-29.6c-5.8,0-10.9,3.8-12.6,9.3l-10.7,34.5c-3.8,12.2-20.9,12.5-25.1.4l-12.1-35.3c-1.8-5.3-6.8-8.9-12.5-8.9h-26.8c-9.1,0-15.4,9-12.4,17.5l54.4,155.7c1.8,5.3,6.8,8.8,12.4,8.8h18.5c5.8,0,10.9-3.7,12.6-9.2l16.5-52.7c3.9-12.3,21.3-12.3,25.1,0l16.6,52.8c1.7,5.5,6.8,9.2,12.6,9.2h18.5c5.6,0,10.6-3.5,12.4-8.8l54.4-155.7c3-8.6-3.4-17.5-12.4-17.5h-26.9c-5.6,0-10.6,3.6-12.5,8.9l-12.2,35.4c-4.2,12.1-21.3,11.7-25.1-.5h0ZM550.2,442.6l-10.7-34.8c-1.7-5.5-6.8-9.3-12.5-9.3h-29.8c-5.7,0-10.8,3.7-12.5,9.2l-10.8,34.9c-3.7,12.1-20.8,12.4-24.9.4l-12.2-35.6c-1.8-5.3-6.8-8.8-12.4-8.8h-27c-9,0-15.3,8.9-12.4,17.4l54.4,155.9c1.8,5.3,6.8,8.8,12.4,8.8h18.6c5.7,0,10.8-3.7,12.5-9.2l16.6-53c3.8-12.2,21.1-12.2,25,0l16.7,53.1c1.7,5.5,6.8,9.2,12.5,9.2h18.6c5.6,0,10.5-3.5,12.4-8.8l54.4-155.9c3-8.5-3.3-17.4-12.4-17.4h-27c-5.6,0-10.5,3.5-12.4,8.8l-12.3,35.7c-4.1,12-21.2,11.7-24.9-.4v-.2ZM901.8,411l-9.6,27.9c-4.8,14-24.7,13.6-29-.5l-8.2-26.9c-2-6.4-7.9-10.8-14.6-10.8h-26.5c-6.7,0-12.6,4.4-14.6,10.8l-8.3,26.9c-4.4,14.1-24.2,14.4-29,.5l-9.6-27.8c-2.1-6.2-7.9-10.3-14.4-10.3h-22.4c-10.5,0-17.9,10.4-14.4,20.3l52.9,151.5c2.1,6.1,7.9,10.2,14.4,10.2h15.5c6.7,0,12.6-4.3,14.6-10.7l14-44.9c4.5-14.3,24.6-14.3,29.1,0l14.2,45c2,6.4,7.9,10.7,14.6,10.7h15.5c6.5,0,12.3-4.1,14.4-10.2l52.9-151.5c3.5-9.9-3.9-20.3-14.4-20.3h-22.4c-6.5,0-12.3,4.1-14.4,10.3l-.3-.2ZM169.8,349.2c4.3-10.4,9-20.6,14.2-30.5s6.7-6.3,11.2-5.4c14.9,2.9,33.5,6.2,55.3,9.4,21.8,3.2,10.2,7.1,8.5,13.1s0,.2,0,.2c-1.9,6.6,3.1,13.2,10,13.2h46.8c4.5,0,8.6-3,9.9-7.3s.5-1.6.8-2.4c1.5-4.6,5.9-7.6,10.7-7.2,37.1,3,79.1,5,125.3,5s129.9-3.5,204.4-12.7c4.6-.6,9.1,2,10.9,6.3s3.3,7.8,4.8,11.7,5.4,6.5,9.6,6.5h47.8c7.2,0,12.2-7.2,9.8-13.9s-2.4-6.5-3.6-9.8c-2.3-6.1,1.5-12.7,7.9-13.9,22.3-3.9,44.6-8.3,66.7-13.1s8.9,1,11.2,4.9c7.4,12.7,14.1,25.9,19.9,39.5s5.4,6.3,9.5,6.3h48.3c7.3,0,12.3-7.3,9.7-14.1-62.5-164.2-221.5-281.1-407.3-281.1S167.3,171,104.9,335.1c-2.6,6.8,2.5,14.1,9.7,14.1h55.2ZM784.6,239.3c-24,4.8-48,9.1-72.2,12.8-19.9-36.8-44-73.5-72.5-110,55.7,20.6,105.2,54.2,144.7,97.1h0ZM539.7,125.4c41.6,45.2,75.8,90.6,102.7,136-35.7,4-70,6.6-102.7,8.1V125.4h0ZM466.4,122.4c2.6-.3,5.3-.7,7.9-1v150c-43.1.3-82.6-1.2-117.8-3.7,39.8-77,91.6-128.4,109.9-145.2h0ZM347,158.5c-20.8,28.3-42.2,62.7-60.4,102.5-22.4-2.7-42-5.6-58.4-8.4,32.6-39,73-71.1,118.8-94h0ZM857.8,621.9c-5.9,15.3-12.8,30.3-20.7,44.7-2.5,4.6-7.7,6.9-12.8,5.8-13.9-3-32.6-6.6-55.6-10.2-7.1-1.1-11.6-8.2-9.5-15.1s2-6.9,3-10.3c2.1-7.5-3.6-15-11.4-15h-43.8c-5.2,0-9.7,3.4-11.3,8.3s-2.9,9-4.4,13.3-6.8,8.3-12.2,7.8c-83.5-7.4-193.2-9.8-321.1,4.4-5.1.6-10-2.3-12.1-7s-5.5-12.9-8-19.4-6.1-7.5-11-7.5h-44.8c-8.1,0-13.9,8.1-11.1,15.7s3.6,9.9,5.5,14.8c2.7,7-1.7,14.7-9,15.9-21.2,3.5-42.4,7.4-63.4,11.7-5,1-10-1.2-12.6-5.6-8.4-14.5-15.8-29.6-22.2-45.2s-6.1-7.4-10.9-7.4h-44.9c-8.2,0-13.9,8.1-11.1,15.8,60.7,167.5,221.4,287.5,409.6,287.5s348.9-120,409.6-287.5c2.8-7.7-3-15.8-11.1-15.8h-52.9l.2.3ZM239.7,739.8c24.7-4.7,48.8-8.6,72.5-12,20.4,36.8,45,73.4,74,109.8-56.5-20.5-106.6-54.4-146.5-97.8h0ZM474.3,840.3c-36.3-40.2-66.8-80.6-91.3-121.1,30.4-3,60.8-5.1,91.3-6.4v127.5ZM547.9,857.1l.7.9c-3,.3-5.9.5-8.9.7v-147.1c43.9,0,83.9,1.8,119.4,4.5-48.2,88.2-110.2,140.3-111.2,141.1h0ZM665.5,826.4c21.5-27.9,44.3-62.5,64-103.1,24.4,3.2,45,6.5,61.4,9.5-34.5,39.5-77.2,71.5-125.4,93.6Z" />
</svg>