<?xml version="1.0" encoding="UTF-8"?>
<svg id="_图层_1" xmlns="http://www.w3.org/2000/svg" xmlns:xlink="http://www.w3.org/1999/xlink"
	version="1.1" viewBox="0 0 1024 1024">
	<!-- Generator: Adobe Illustrator 29.0.1, SVG Export Plug-In . SVG Version: 2.1.0 Build 192)  -->
	<defs>
		<style>
			.st0 {
			fill: url(#gradient-outline);
			}

			.st1 {
			fill: url(#gradient-body);
			}
		</style>
		<linearGradient id="gradient-outline" x1="247.5" y1="170.1" x2="247.5" y2="853.9"
			gradientTransform="translate(0 1024) scale(1 -1)" gradientUnits="userSpaceOnUse">
			<stop offset="0" stop-color="var(--bt-menu-icon-gradient-color-1, #20a53a)" />
			<stop offset="1" stop-color="var(--bt-menu-icon-gradient-color-2, #068f20)" />
		</linearGradient>
		<linearGradient id="gradient-body" x1="357.6" y1="511.9" x2="916.8" y2="511.9"
			gradientUnits="userSpaceOnUse">
			<stop offset="0" stop-color="var(--bt-menu-icon-gradient-color-1, #20a53a)" />
			<stop offset="1" stop-color="var(--bt-menu-icon-gradient-color-2, #068f20)" />
		</linearGradient>
	</defs>
	<path class="st0"
		d="M169.8,349.2c4.3-10.4,9-20.6,14.2-30.5s6.7-6.3,11.2-5.4c14.9,2.9,33.5,6.2,55.3,9.4,21.8,3.2,10.2,7.1,8.5,13.1s0,.2,0,.2c-1.9,6.6,3.1,13.2,10,13.2h46.8c4.5,0,8.6-3,9.9-7.3s.5-1.6.8-2.4c1.5-4.6,5.9-7.6,10.7-7.2,37.1,3,79.1,5,125.3,5s129.9-3.5,204.4-12.7c4.6-.6,9.1,2,10.9,6.3s3.3,7.8,4.8,11.7,5.4,6.5,9.6,6.5h47.8c7.2,0,12.2-7.2,9.8-13.9s-2.4-6.5-3.6-9.8c-2.3-6.1,1.5-12.7,7.9-13.9,22.3-3.9,44.5-8.7,66.7-13.1s8.9,1,11.2,4.9c7.4,12.7,14.1,25.9,19.9,39.5s5.4,6.3,9.5,6.3h48.3c7.3,0,12.3-7.3,9.7-14.1-62.5-164.2-221.5-281.1-407.3-281.1S167.3,171,104.9,335.1c-2.6,6.8,2.5,14.1,9.7,14.1h55.2ZM784.6,239.3c-24,4.8-48,9.1-72.2,12.8-19.9-36.8-44-73.5-72.5-110,55.7,20.6,105.2,54.2,144.7,97.1h0ZM539.7,125.4c41.6,45.2,75.8,90.6,102.7,136-35.7,4-70,6.6-102.7,8.1V125.4h0ZM466.4,122.4c2.6-.3,5.3-.7,7.9-1v150c-43.1.3-82.6-1.2-117.8-3.7,39.8-77,91.6-128.4,109.9-145.2h0ZM347,158.5c-20.8,28.3-42.2,62.7-60.4,102.5-22.4-2.7-42-5.6-58.4-8.4,32.6-39,73-71.1,118.8-94h0ZM857.8,621.9c-5.9,15.3-12.8,30.3-20.7,44.7-2.5,4.6-7.7,6.9-12.8,5.8-13.9-3-32.6-6.6-55.6-10.2-7.1-1.1-11.6-8.2-9.5-15.1s2-6.9,3-10.3c2.1-7.5-3.6-15-11.4-15h-43.8c-5.2,0-9.7,3.4-11.3,8.3s-2.9,9-4.4,13.3-6.8,8.3-12.2,7.8c-83.5-7.4-193.2-9.8-321.1,4.4-5.1.6-10-2.3-12.1-7s-5.5-12.9-8-19.4-6.1-7.5-11-7.5h-44.8c-8.1,0-13.9,8.1-11.1,15.7s3.6,9.9,5.5,14.8c2.7,7-1.7,14.7-9,15.9-21.2,3.5-42.4,7.4-63.4,11.7-5,1-10-1.2-12.6-5.6-8.4-14.5-15.6-29.7-22.2-45.2s-6.1-7.4-10.9-7.4h-44.9c-8.2,0-13.9,8.1-11.1,15.8,60.7,167.5,221.4,287.5,409.6,287.5s348.9-120,409.6-287.5c2.8-7.7-3-15.8-11.1-15.8h-52.9l.2.3ZM239.7,739.8c24.7-4.7,48.8-8.6,72.5-12,20.4,36.8,45,73.4,74,109.8-56.5-20.5-106.6-54.4-146.5-97.8h0ZM474.3,840.3c-36.3-40.2-66.8-80.6-91.3-121.1,30.4-3,60.8-5.1,91.3-6.4v127.5ZM547.9,857.1l.7.9c-3,.3-5.9.5-8.9.7v-147.1c43.9,0,83.9,1.8,119.4,4.5-48.2,88.2-110.2,140.3-111.2,141.1h0ZM665.5,826.4c21.5-27.9,44.3-62.5,64-103.1,24.4,3.2,45,6.5,61.4,9.5-34.5,39.5-77.2,71.5-125.4,93.6Z" />
	<path class="st1"
		d="M901.4,374.8H122.6c-30.4,0-55.1,24.7-55.1,55.1v113.8c0,30.4,24.7,55.1,55.1,55.1h778.8c30.4,0,55.1-24.7,55.1-55.1v-113.8c0-30.4-24.7-55.1-55.1-55.1ZM343.1,424.2l-49,140.2c-1.6,4.8-6.1,7.9-11.2,7.9h-16.7c-5.2,0-9.8-3.3-11.3-8.3l-15-47.6c-3.4-11.1-19.1-11.1-22.6,0l-14.9,47.5c-1.5,5-6.1,8.3-11.3,8.3h-16.7c-5,0-9.5-3.2-11.2-7.9l-49-140.2c-2.7-7.7,3-15.8,11.2-15.8h24.1c5.1,0,9.6,3.2,11.3,8l10.9,31.8c3.8,10.9,19.2,10.6,22.6-.4l9.6-31.1c1.5-5,6.1-8.4,11.3-8.4h26.7c5.2,0,9.8,3.4,11.3,8.4l9.5,31.1h0c3.4,11.1,18.8,11.4,22.6.5l11-31.9c1.7-4.8,6.2-8,11.3-8h24.2c8.1,0,13.9,8,11.2,15.8ZM626.6,426.1l-49,140.4c-1.7,4.8-6.1,7.9-11.2,7.9h-16.8c-5.1,0-9.7-3.3-11.3-8.3l-15-47.8c-3.5-11-19.1-11-22.5,0l-15,47.7c-1.5,5-6.1,8.3-11.3,8.3h-16.8c-5,0-9.5-3.2-11.2-7.9l-49-140.4c-2.6-7.7,3.1-15.7,11.2-15.7h24.3c5,0,9.5,3.2,11.2,7.9l11,32.1c3.7,10.8,19.1,10.5,22.4-.4l9.7-31.4c1.5-5,6.1-8.3,11.3-8.3h26.8c5.1,0,9.7,3.4,11.3,8.4l9.6,31.3v.2c3.2,10.9,18.6,11.2,22.3.4l11.1-32.2c1.7-4.8,6.1-7.9,11.2-7.9h24.3c8.2,0,13.9,8,11.2,15.7ZM909.5,430.7l-47.6,136.4c-1.9,5.5-7.1,9.2-13,9.2h-14c-6,0-11.3-3.9-13.1-9.6l-12.8-40.5c-4.1-12.9-22.2-12.9-26.2,0l-12.6,40.4c-1.8,5.8-7.1,9.6-13.1,9.6h-14c-5.9,0-11.1-3.7-13-9.2l-47.6-136.4c-3.2-8.9,3.5-18.3,13-18.3h20.2c5.9,0,11.1,3.7,13,9.3l8.6,25c4.3,12.5,22.2,12.2,26.1-.5l7.5-24.2c1.8-5.8,7.1-9.7,13.1-9.7h23.9c6,0,11.3,4,13.1,9.7l7.4,24.2c3.9,12.7,21.8,13.1,26.1.5l8.6-25.1.3.2c1.9-5.6,7.1-9.3,13-9.3h20.2c9.5,0,16.1,9.4,13,18.3Z" />
</svg>