<?xml version="1.0" encoding="UTF-8"?>
<svg id="exit-layer" xmlns="http://www.w3.org/2000/svg" version="1.1" viewBox="0 0 1024 1024">
	<defs>
		<style>
			.exit-element {
			fill: none;
			stroke: var(--bt-menu-icon-color, #787a79);
			stroke-width: 60px;
			}

			.exit-button {
			fill: none;
			stroke: var(--bt-menu-icon-color, #787a79);
			stroke-width: 60px;
			stroke-linecap: round;
			}
		</style>
	</defs>
	<path class="exit-element"
		d="M387.26,200.15h-41.58c-98.01,0-147.01,0-177.46,30.45-30.45,30.45-30.45,79.45-30.45,177.46v207.91c0,98.01,0,147.01,30.45,177.46,30.45,30.45,79.45,30.45,177.46,30.45h41.58" />
	<path class="exit-element"
		d="M387.26,282.32c0-95.38,0-143.07,29.41-169.14,29.41-26.07,74.36-18.23,164.26-2.55l96.83,16.89c99.56,17.37,149.35,26.05,178.91,62.57,29.56,36.52,29.56,89.33,29.56,194.97v253.88c0,105.63,0,158.45-29.56,194.97-29.56,36.52-79.35,45.2-178.91,62.57l-96.83,16.89c-89.9,15.68-134.85,23.52-164.26-2.55-29.41-26.07-29.41-73.76-29.41-169.14v-459.35Z" />
	<path class="exit-button" d="M512,470.42v83.16" />
</svg>