<?xml version="1.0" encoding="UTF-8"?>
<svg id="firewall-layer" xmlns="http://www.w3.org/2000/svg" version="1.1" viewBox="0 0 1024 1024">
	<defs>
		<style>
			.firewall-outline {
			fill: none;
			stroke: var(--bt-menu-icon-color, #787a79);
			stroke-width: 60px;
			}

			.firewall-check {
			fill: var(--bt-menu-icon-color, #787a79);
			}
		</style>
	</defs>
	<path class="firewall-outline"
		d="M138.47,446.29c0-132.71,0-199.07,15.67-221.39,15.67-22.32,78.06-43.68,202.84-86.39l23.77-8.14c65.05-22.27,97.57-33.4,131.24-33.4s66.2,11.13,131.25,33.4l23.77,8.14c124.79,42.71,187.18,64.07,202.84,86.39,15.67,22.32,15.67,88.68,15.67,221.39v65.36c0,234-175.93,347.55-286.31,395.77-29.94,13.08-44.91,19.62-87.22,19.62s-57.27-6.54-87.22-19.62c-110.38-48.22-286.31-161.78-286.31-395.77v-65.36Z" />
	<path class="firewall-check"
		d="M619.79,400.66l-151.29,151.29-63.92-63.54c-13.24-13.24-34.42-13.24-47.66,0-13.24,13.24-13.24,34.42,0,47.66l87.37,87.37c6.43,6.43,14.75,9.83,23.83,9.83s17.4-3.41,23.83-9.83l175.12-175.12c13.24-13.24,13.24-34.42,0-47.66-12.86-13.24-34.04-13.24-47.28,0Z" />
</svg>