<?xml version="1.0" encoding="UTF-8"?>
<svg id="logs-active-layer" xmlns="http://www.w3.org/2000/svg" version="1.1" viewBox="0 0 1024 1024">
	<defs>
		<style>
			.logs-active-top {
			fill: url(#gradient-top);
			}

			.logs-active-bottom {
			fill: url(#gradient-bottom);
			}
		</style>
		<linearGradient id="gradient-top" x1="512" y1="669.7" x2="512" y2="64.8"
			gradientUnits="userSpaceOnUse">
			<stop offset="0" stop-color="var(--bt-menu-icon-gradient-color-1, #20a53a)" />
			<stop offset="1" stop-color="var(--bt-menu-icon-gradient-color-2, #068f20)" />
		</linearGradient>
		<linearGradient id="gradient-bottom" x1="512" y1="959.2" x2="512" y2="583.5"
			gradientUnits="userSpaceOnUse">
			<stop offset="0" stop-color="var(--bt-menu-icon-gradient-color-1, #20a53a)" />
			<stop offset="1" stop-color="var(--bt-menu-icon-gradient-color-2, #068f20)" />
		</linearGradient>
	</defs>
	<path class="logs-active-top"
		d="M251.7,523.8c19.2-.1,35.1,1.6,50.3,6.2,9.2,2.8,22.3,8.9,36.4,21.6,13.8,12.3,32.5,34.9,49.6,54.8,10,11.6,28.2,33.2,40.6,46.2,15,15.6,23.9,16.4,53.1,17,19.6.4,50,.3,66.6-.1,16.9-.4,26.9-1.7,35.2-7,7.7-4.9,19.2-18,25.9-25.4,8.9-9.8,48.2-56.3,59.5-69,37.5-41.9,66.3-42.5,92.8-43.9,1.3,0,4.5-.2,7.8-.2,38.2-.1,125-.2,125-.2h64.5c0-3.8,0-7.7,0-11.7,0-210.8,0-316.2-65.5-381.7-65.5-65.5-170.9-65.5-381.7-65.5s-316.2,0-381.7,65.5c-65.5,65.5-65.5,170.9-65.5,381.7s0,7.8,0,11.7h97.6c29.8,0,59.5,0,89.3.1ZM625.4,449.4c0,16.6-13.4,30-30,30h-166.9c-16.6,0-30-13.4-30-30h0c0-16.6,13.4-30,30-30h166.9c16.6,0,30,13.4,30,30h0ZM315.1,303.4c0-16.6,13.4-30,30-30h333.7c16.6,0,30,13.4,30,30h0c0,16.6-13.4,30-30,30h-333.7c-16.6,0-30-13.4-30-30h0Z" />
	<path class="logs-active-bottom"
		d="M811.4,583.7c-37.8,0-63.3-.9-75.4,5.2-12.1,6.1-26.7,24.2-51.3,52.9l-25.5,29.5c-25.2,29.6-40.4,42.9-61.3,50.7-20.9,7.6-41.4,7.6-79.2,7.6h-13.4c-37.7,0-57,0-76.2-6.5-20-6.8-36.3-18.9-58.3-44.7l-25.5-29.4c-24.6-28.6-41.9-50.2-53.4-57.7-13.4-8.9-35.6-7-73.3-7.4H86.8c0,0-21.9,0-21.9,0,.8,164,7.8,252.4,65.4,310.1,65.5,65.5,170.9,65.5,381.7,65.5s316.2,0,381.7-65.5c57.6-57.6,64.5-146.1,65.4-310.2l-29.9.2h-117.8Z" />
</svg>