<?xml version="1.0" encoding="UTF-8"?>
<svg id="node-active-layer" xmlns="http://www.w3.org/2000/svg" version="1.1" viewBox="0 0 1024 1024">
	<defs>
		<style>
			.node-active-icon {
			fill: url(#node-active-gradient);
			}
		</style>
		<linearGradient id="node-active-gradient" x1="512" y1="960" x2="512" y2="64"
			gradientUnits="userSpaceOnUse">
			<stop offset="0" stop-color="var(--bt-menu-icon-gradient-color-1, #20a53a)" />
			<stop offset="1" stop-color="var(--bt-menu-icon-gradient-color-2, #068f20)" />
		</linearGradient>
	</defs>
	<path class="node-active-icon"
		d="M924.47,379.3c-1.7-67.38-38.71-129.92-96.32-163.07l-225.16-128.22c-27.33-15.68-59.14-24.01-91.93-24.01s-67.83,8.96-97.31,25.9l-223.19,129.92c-57.34,34.67-92.92,97.84-92.92,164.68l1.79,259.75c1.79,67.38,38.79,129.92,96.41,163.07l225.16,128.13c28.14,15.86,61.11,24.55,92.83,24.55s65.49-9.14,96.41-26.34l223.19-129.92c57.34-34.68,92.92-97.84,92.92-164.68l-1.89-259.75ZM824.28,360.39l-264.57,154.5c-11.73,6.85-18.84,19.5-18.6,33.08l5.51,308.22c.28,15.82-12.18,28.95-28,29.48h-.03c-16.15.55-29.63-12.23-29.95-28.38l-6.43-322.81c-.06-3.05-1.74-5.83-4.4-7.31l-191.57-106.3-91.47-50.72c-13.74-7.62-18.91-24.8-11.65-38.73l.82-1.57c7.54-14.47,25.54-19.87,39.8-11.93l281.62,156.76c2.64,1.47,5.86,1.44,8.47-.09l281.21-164.26c13.41-7.83,30.62-3.7,39.01,9.37c8.9,13.87,4.45,32.36-9.78,40.67Z" />
</svg>