<?xml version="1.0" encoding="UTF-8"?>
<svg id="node-layer" xmlns="http://www.w3.org/2000/svg" version="1.1" viewBox="0 0 1024 1024">
	<defs>
		<style>
			.node-icon {
			fill: var(--bt-menu-icon-color, #777a79);
			}
		</style>
	</defs>
	<path class="node-icon"
		d="M924.47,379.3c-1.7-67.38-38.71-129.92-96.32-163.07l-225.16-128.22c-27.33-15.68-59.14-24.01-91.93-24.01s-67.83,8.96-97.31,25.9l-223.19,129.92c-57.34,34.67-92.92,97.84-92.92,164.68l1.79,259.75c1.79,67.38,38.79,129.92,96.41,163.07l225.16,128.13c28.14,15.86,61.11,24.55,92.83,24.55s65.49-9.14,96.41-26.34l223.19-129.92c57.34-34.68,92.92-97.84,92.92-164.68l-1.89-259.75ZM478.26,895.04c-10.04-2.96-19.8-7.08-29.03-12.36l-224.9-128.04c-41.22-21.5-66.84-64.42-66.84-111.82l-1.88-258.23c0-7.43.62-14.87,1.88-22.04l2.06-11.91,126.69,70.25,195.87,108.68,7.35,368.7-11.2-3.22ZM509.62,477.06l-321.94-179.2,8.25-8.06c7.34-7.17,15.5-13.53,24.37-18.82l223.64-130.19c21.59-11.74,43.28-17.47,66.3-17.47s46.06,6.45,64.6,17.56l224.9,128.04c7.17,3.76,13.98,8.24,20.34,13.35l9.68,7.8-320.14,187ZM803.78,752.58l-223.37,130.01c-6.99,4.03-14.34,7.35-21.86,10.04l-11.2,3.94-6.63-370.58,319.6-186.64,2.69,11.2c2.42,9.94,3.58,20.16,3.58,30.28l1.88,258.14c0,46.14-24.73,89.6-64.69,113.61Z" />
</svg>