<?xml version="1.0" encoding="UTF-8"?>
<svg id="ssl-layer" xmlns="http://www.w3.org/2000/svg" version="1.1" viewBox="0 0 1024 1024">
	<style>
		.ssl-icon {
		fill: var(--bt-menu-icon-color, #777a79);
		}
	</style>
	<g>
		<g>
			<path class="ssl-icon"
				d="M319.1,332.7c-71.8,0-130,58.2-130,130s58.2,130,130,130,130-58.2,130-130-58.2-130-130-130ZM319.1,540.7c-43.1,0-78-34.9-78-78s34.9-78,78-78,78,34.9,78,78-34.9,78-78,78Z" />
			<path class="ssl-icon"
				d="M393.1,691.3h-12c-3.6,0-7-1.2-9.9-3.6l-42.2-33.6c-6-4.8-13.9-4.8-19.9,0l-42.3,33.6c-2.9,2.3-6.4,3.6-9.9,3.6h-12c-9.6,0-17.4-9-17.4-20v-63.1c0-11,7.8-20,17.4-20h0c9.6,0,17.4,3,17.4,14v14.8c0,16.3,16,25.8,27.6,16.3l19.1-15.6c6.1-5,14.2-5,20.3,0l18.7,15.5c11.5,9.5,27.6,0,27.6-16.2v-14.7c0-11,7.8-14,17.4-14h0c9.6,0,17.4,9,17.4,20v63.1c0,11-7.8,20-17.4,20Z" />
		</g>
		<g>
			<rect class="ssl-icon" x="528" y="363.7" width="307" height="60" rx="30" ry="30" />
			<rect class="ssl-icon" x="528" y="488" width="307" height="60" rx="30" ry="30" />
			<rect class="ssl-icon" x="528" y="612.3" width="231.5" height="60" rx="30" ry="30" />
		</g>
	</g>
	<path class="ssl-icon"
		d="M847.2,200.5H176.8c-62.3,0-112.8,50.5-112.8,112.8v397.3c0,62.3,50.5,112.8,112.8,112.8h670.4c62.3,0,112.8-50.5,112.8-112.8v-397.3c0-62.3-50.5-112.8-112.8-112.8ZM910,677.9c0,52-44.9,94.2-100.2,94.2H214.2c-55.3,0-100.2-42.2-100.2-94.2v-331.9c0-52,44.9-94.2,100.2-94.2h595.6c55.3,0,100.2,42.2,100.2,94.2v331.9Z" />
</svg>