<?xml version="1.0" encoding="UTF-8"?>
<svg id="vhost-active-layer" xmlns="http://www.w3.org/2000/svg"
	xmlns:xlink="http://www.w3.org/1999/xlink" version="1.1" viewBox="0 0 1024 1024">
	<defs>
		<style>
			.vhost-active-element {
			fill: url(#vhost-gradient);
			}
		</style>
		<linearGradient id="vhost-gradient" x1="512" y1="896" x2="512" y2="128"
			gradientUnits="userSpaceOnUse">
			<stop offset="0" stop-color="var(--bt-menu-icon-gradient-color-1, #20a53a)" />
			<stop offset="1" stop-color="var(--bt-menu-icon-gradient-color-2, #068f20)" />
		</linearGradient>
	</defs>
	<g>
		<path class="vhost-active-element"
			d="M754.2,504c121.4,51.7,205.9,171.6,205.9,310.3s-15.2,33.9-33.9,33.9-33.9-15.2-33.9-33.9c0-141.8-110.9-259.2-252.9-268.9-18.7-1.3-32.8-17.4-31.5-36.1,1.3-18.7,17.4-32.8,36.1-31.5.5,0,1,0,1.5.1,4.6-.7,9.1-1.6,13.6-2.7,65-16,110.6-70.6,110.6-132.8s-35.6-104.5-89.9-126.2c-10.2-4.1-20.8-7.1-31.7-8.9-18.4-3.2-30.8-20.7-27.6-39.2,3.2-18.5,20.7-30.9,39.1-27.7,15.5,2.7,30.7,6.9,45.3,12.8,79.4,31.7,132.6,105.6,132.6,189.2s-32.2,123.9-83.3,161.8h0Z" />
		<path class="vhost-active-element"
			d="M540.9,524.6c140.3,48.5,241.1,181,241.1,337s-15.2,33.9-33.9,33.9-33.9.4-33.9.4c0,0-130.4,0-291.3,0s-291.3,0-291.3,0c0,0-15.2-.4-33.9-.4s-33.9-15.2-33.9-33.9c0-156,100.8-288.5,241.1-337-59.5-38.4-98.9-105.1-98.9-180.9,0-119.1,97.2-215.6,216.9-215.6s216.9,96.5,216.9,215.6-39.4,142.5-98.9,180.9h0Z" />
	</g>
</svg>