<?xml version="1.0" encoding="UTF-8"?>
<svg id="waf-active-layer" xmlns="http://www.w3.org/2000/svg" version="1.1" viewBox="0 0 1024 1024">
	<defs>
		<style>
			.waf-active-bottom {
			fill: url(#waf-gradient-bottom);
			}

			.waf-active-top {
			fill: url(#waf-gradient-top);
			}

			.waf-active-left-bottom {
			fill: url(#waf-gradient-left-bottom);
			}

			.waf-active-left-top {
			fill: url(#waf-gradient-left-top);
			}

			.waf-active-shield {
			fill: url(#waf-gradient-shield);
			}

			.waf-active-right-top {
			fill: url(#waf-gradient-right-top);
			}

			.waf-active-right-bottom {
			fill: url(#waf-gradient-right-bottom);
			}
		</style>
		<linearGradient id="waf-gradient-bottom" x1="511.9" y1="690.9" x2="511.9" y2="542"
			gradientUnits="userSpaceOnUse">
			<stop offset="0" stop-color="var(--bt-menu-icon-gradient-color-1, #20a53a)" />
			<stop offset="1" stop-color="var(--bt-menu-icon-gradient-color-2, #068f20)" />
		</linearGradient>
		<linearGradient id="waf-gradient-top" x1="511.9" y1="482" x2="511.9" y2="333.1"
			gradientUnits="userSpaceOnUse">
			<stop offset="0" stop-color="var(--bt-menu-icon-gradient-color-1, #20a53a)" />
			<stop offset="1" stop-color="var(--bt-menu-icon-gradient-color-2, #068f20)" />
		</linearGradient>
		<linearGradient id="waf-gradient-left-bottom" x1="380.9" y1="669.2" x2="380.9" y2="542"
			gradientUnits="userSpaceOnUse">
			<stop offset="0" stop-color="var(--bt-menu-icon-gradient-color-1, #20a53a)" />
			<stop offset="1" stop-color="var(--bt-menu-icon-gradient-color-2, #068f20)" />
		</linearGradient>
		<linearGradient id="waf-gradient-left-top" x1="380.9" y1="482" x2="380.9" y2="354.9"
			gradientUnits="userSpaceOnUse">
			<stop offset="0" stop-color="var(--bt-menu-icon-gradient-color-1, #20a53a)" />
			<stop offset="1" stop-color="var(--bt-menu-icon-gradient-color-2, #068f20)" />
		</linearGradient>
		<linearGradient id="waf-gradient-shield" x1="512" y1="960.1" x2="512" y2="63.9"
			gradientUnits="userSpaceOnUse">
			<stop offset="0" stop-color="var(--bt-menu-icon-gradient-color-1, #20a53a)" />
			<stop offset="1" stop-color="var(--bt-menu-icon-gradient-color-2, #068f20)" />
		</linearGradient>
		<linearGradient id="waf-gradient-right-top" x1="642.9" y1="482" x2="642.9" y2="354.9"
			gradientUnits="userSpaceOnUse">
			<stop offset="0" stop-color="var(--bt-menu-icon-gradient-color-1, #20a53a)" />
			<stop offset="1" stop-color="var(--bt-menu-icon-gradient-color-2, #068f20)" />
		</linearGradient>
		<linearGradient id="waf-gradient-right-bottom" x1="642.9" y1="669.2" x2="642.9" y2="542"
			gradientUnits="userSpaceOnUse">
			<stop offset="0" stop-color="var(--bt-menu-icon-gradient-color-1, #20a53a)" />
			<stop offset="1" stop-color="var(--bt-menu-icon-gradient-color-2, #068f20)" />
		</linearGradient>
	</defs>
	<path class="waf-active-bottom"
		d="M511.9,690.9c26.5,0,48.6-64.4,52.8-148.9h-105.7c4.3,84.5,26.3,148.9,52.8,148.9Z" />
	<path class="waf-active-top"
		d="M511.9,333.1c-26.5,0-48.6,64.4-52.8,148.9h105.7c-4.3-84.5-26.3-148.9-52.8-148.9Z" />
	<path class="waf-active-left-bottom"
		d="M335.5,542c9.3,54.9,43.6,101.4,90.8,127.1-14.5-34.9-24.3-78.8-27.2-127.1h-63.7Z" />
	<path class="waf-active-left-top"
		d="M335.5,482h63.7c2.9-48.4,12.6-92.2,27.2-127.1-47.2,25.8-81.5,72.2-90.8,127.1Z" />
	<path class="waf-active-shield"
		d="M898.4,202.1c-17-24.1-84.3-47.2-219-93.3l-25.7-8.8c-70.2-24.1-105.3-36.1-141.7-36.1s-71.5,12.1-141.7,36.1l-25.7,8.8c-134.7,46.1-202.1,69.2-219,93.3-16.9,24.1-16.9,95.7-16.9,239h.2v70.5c0,252.6,189.9,375.2,309.1,427.2,32.3,14.1,48.5,21.2,94.1,21.2s61.8-7.1,94.1-21.2c119.2-52,309.1-174.6,309.1-427.2v-70.5c0-143.3,0-214.9-16.9-239ZM511.9,750.9h0c-131.9,0-238.9-107-238.9-238.9s107-238.9,238.9-238.9h0c131.9,0,238.9,107,238.9,238.9s-107,238.9-238.9,238.9Z" />
	<path class="waf-active-right-top"
		d="M597.5,354.9c14.5,34.9,24.3,78.8,27.2,127.1h63.7c-9.3-54.9-43.6-101.4-90.8-127.1Z" />
	<path class="waf-active-right-bottom"
		d="M597.5,669.2c47.2-25.8,81.5-72.2,90.8-127.1h-63.7c-2.9,48.4-12.6,92.2-27.2,127.1Z" />
</svg>