<?xml version="1.0" encoding="UTF-8"?>
<svg id="wp-active-layer" xmlns="http://www.w3.org/2000/svg" version="1.1" viewBox="0 0 1024 1024">
	<defs>
		<style>
			.wp-active-inside {
			fill: url(#wp-inner-gradient);
			}
			.wp-active-circle {
			fill: none;
			stroke: url(#wp-stroke-gradient);
			stroke-miterlimit: 10;
			stroke-width: 60px;
			}
		</style>
		<linearGradient id="wp-stroke-gradient" x1="508.71" y1="960" x2="508.71" y2="64"
			gradientUnits="userSpaceOnUse">
			<stop offset="0" stop-color="var(--bt-menu-icon-gradient-color-1, #20a53a)" />
			<stop offset="1" stop-color="var(--bt-menu-icon-gradient-color-2, #068f20)" />
		</linearGradient>
		<linearGradient id="wp-inner-gradient" x1="512" y1="827" x2="512" y2="197"
			gradientUnits="userSpaceOnUse">
			<stop offset="0" stop-color="var(--bt-menu-icon-gradient-color-1, #20a53a)" />
			<stop offset="1" stop-color="var(--bt-menu-icon-gradient-color-2, #068f20)" />
		</linearGradient>
	</defs>
	<circle class="wp-active-circle" cx="508.71" cy="512" r="418" />
	<path class="wp-active-inside"
		d="M512,197c-173.97,0-315,141.03-315,315s141.03,315,315,315,315-141.03,315-315-141.03-315-315-315ZM743.54,438.87l-129.27,219.97c-10.54,18.81-24.18,34.36-40.93,46.64-11.02,8.06-19.15,12.09-24.42,12.09-4.31,0-6.95-1.54-7.9-4.61-.97-3.07-1.44-7.58-1.44-13.53v-12.38c0-23.41-3.59-69.29-10.77-137.63-3.84-34.55-6.46-62.96-7.9-85.22h-.72c-16.28,21.5-31.36,44.34-45.24,68.53-13.89,24.19-25.62,45.2-35.19,63.05-9.58,17.85-15.56,29.08-17.95,33.69l-16.52,31.1c-11.97,20.35-28.01,36.66-48.12,48.95-.97.39-3.71,1.83-8.26,4.32-4.56,2.49-9.46,3.74-14.72,3.74-4.31,0-6.95-.58-7.9-1.73-.97-1.15-.97-3.27,0-6.33,9.09-66.02,14.84-112.29,17.24-138.78,2.39-26.49,3.59-59.11,3.59-97.89,0-29.17-.72-50.96-2.15-65.36-1.44-14.4-4.31-24.66-8.62-30.81-4.31-6.14-11.02-9.21-20.11-9.21-12.46,0-22.87,4.32-31.24,12.96-8.38,8.64-16.64,20.64-24.78,35.99-1.92,4.23-3.84,7.11-5.75,8.64-1.92,1.54-4.31,2.3-7.18,2.3-2.4,0-3.95-.76-4.67-2.3-.72-1.53-1.08-4.03-1.08-7.49,0-16.5,5.14-33.4,15.44-50.67,10.29-17.27,23.93-31.67,40.93-43.19,16.99-11.52,35.3-17.27,54.94-17.27s32.79,5.96,42.37,17.85c9.57,11.9,16.16,29.47,19.75,52.69,3.59,23.23,5.39,54.42,5.39,93.57,0,36.48-.97,61.62-2.87,75.44h.72l75.4-124.38,29.44-49.52c5.75-8.83,13.28-17.18,22.62-25.05,9.34-7.86,18.55-14.2,27.65-19,9.09-4.8,16.03-7.2,20.83-7.2,3.34,0,4.78,1.54,4.31,4.61-4.79,23.81-7.18,44.54-7.18,62.19,0,26.88,2.39,70.64,7.18,131.29,3.34,42.61,5.5,66.42,6.46,71.4h.72c1.44-2.68,3.59-6.42,6.46-11.23,2.87-4.8,5.98-10.08,9.33-15.84l35.19-59.31c12.44-21.88,22.01-40.88,28.73-57.01,6.7-16.12,10.05-30.13,10.05-42.04,0-9.59-1.79-16.89-5.39-21.88-3.59-4.98-7.18-8.64-10.77-10.94-3.59-2.3-5.63-3.83-6.1-4.61-1.44-2.68,1.8-9.11,9.7-19.29,7.9-10.17,17.11-19.67,27.65-28.5,10.53-8.83,18.91-13.24,25.14-13.24,4.78,0,10.41,2.59,16.88,7.77,6.46,5.18,11.96,11.9,16.52,20.15,4.55,8.26,6.82,16.8,6.82,25.62s-2.51,19-7.54,30.52c-5.03,11.52-13.29,27.64-24.78,48.37Z" />
</svg>