<?xml version="1.0" encoding="UTF-8"?>
<svg id="wp-layer" xmlns="http://www.w3.org/2000/svg" version="1.1" viewBox="0 0 1024 1024">
	<!-- Generator: Adobe Illustrator 29.0.1, SVG Export Plug-In . SVG Version: 2.1.0 Build 192)  -->
	<defs>
		<style>
			.st0 {
			fill: var(--bt-menu-icon-color, #787a79);
			}

			.st1 {
			fill: none;
			stroke: var(--bt-menu-icon-color, #787a79);
			stroke-miterlimit: 10;
			stroke-width: 60px;
			}
		</style>
	</defs>
	<circle class="st1" cx="508.7" cy="512" r="418" />
	<path class="st0"
		d="M326.3,715.8c-1-1.2-1-3.3,0-6.3,9.1-66,14.8-112.3,17.2-138.8,2.4-26.5,3.6-59.1,3.6-97.9s-.7-51-2.1-65.4c-1.4-14.4-4.3-24.7-8.6-30.8-4.3-6.1-11-9.2-20.1-9.2s-22.9,4.3-31.2,13c-8.4,8.6-16.6,20.6-24.8,36-1.9,4.2-3.8,7.1-5.8,8.6-1.9,1.5-4.3,2.3-7.2,2.3s-3.9-.8-4.7-2.3c-.7-1.5-1.1-4-1.1-7.5,0-16.5,5.1-33.4,15.4-50.7,10.3-17.3,23.9-31.7,40.9-43.2,17-11.5,35.3-17.3,54.9-17.3s32.8,6,42.4,17.9c9.6,11.9,16.2,29.5,19.8,52.7,3.6,23.2,5.4,54.4,5.4,93.6s-1,61.6-2.9,75.4h.7l75.4-124.4,29.4-49.5c5.8-8.8,13.3-17.2,22.6-25,9.3-7.9,18.5-14.2,27.7-19,9.1-4.8,16-7.2,20.8-7.2s4.8,1.5,4.3,4.6c-4.8,23.8-7.2,44.5-7.2,62.2,0,26.9,2.4,70.6,7.2,131.3,3.3,42.6,5.5,66.4,6.5,71.4h.7c1.4-2.7,3.6-6.4,6.5-11.2,2.9-4.8,6-10.1,9.3-15.8l35.2-59.3c12.4-21.9,22-40.9,28.7-57,6.7-16.1,10-30.1,10-42s-1.8-16.9-5.4-21.9c-3.6-5-7.2-8.6-10.8-10.9s-5.6-3.8-6.1-4.6c-1.4-2.7,1.8-9.1,9.7-19.3,7.9-10.2,17.1-19.7,27.7-28.5,10.5-8.8,18.9-13.2,25.1-13.2s10.4,2.6,16.9,7.8c6.5,5.2,12,11.9,16.5,20.1,4.5,8.3,6.8,16.8,6.8,25.6s-2.5,19-7.5,30.5-13.3,27.6-24.8,48.4l-129.3,220c-10.5,18.8-24.2,34.4-40.9,46.6-11,8.1-19.2,12.1-24.4,12.1s-7-1.5-7.9-4.6c-1-3.1-1.4-7.6-1.4-13.5v-12.4c0-23.4-3.6-69.3-10.8-137.6-3.8-34.5-6.5-63-7.9-85.2h-.7c-16.3,21.5-31.4,44.3-45.2,68.5-13.9,24.2-25.6,45.2-35.2,63-9.6,17.8-15.6,29.1-18,33.7l-16.5,31.1c-12,20.3-28,36.7-48.1,49-1,.4-3.7,1.8-8.3,4.3-4.6,2.5-9.5,3.7-14.7,3.7s-7-.6-7.9-1.7h0Z" />
</svg>