<?xml version="1.0" encoding="UTF-8"?>
<svg id="xterm-layer" xmlns="http://www.w3.org/2000/svg" version="1.1" viewBox="0 0 1024 1024">
	<style>
		.xterm-icon {
		fill: var(--bt-menu-icon-color, #777a79);
		}
	</style>
	<g>
		<path class="xterm-icon"
			d="M280.2,698.1l160.6-172.9c12.2-13.2,11.5-33.8-1.7-46l-172.9-160.6c-21.2-19.7-55.7-3.9-54.7,25h0c.3,8.6,4.1,16.8,10.4,22.6l125.2,116.3c13.2,12.2,13.9,32.8,1.7,46l-116.3,125.2c-5.9,6.3-9,14.7-8.7,23.3h0c1.1,29,36.6,42.2,56.4,20.9Z" />
		<rect class="xterm-icon" x="443" y="648.5" width="160" height="60" rx="30" ry="30" />
	</g>
	<path class="xterm-icon"
		d="M894.4,129.6c-65.6-65.6-171.2-65.6-382.4-65.6s-316.8,0-382.4,65.6-65.6,171.2-65.6,382.4,0,316.8,65.6,382.4c65.6,65.6,171.2,65.6,382.4,65.6s316.8,0,382.4-65.6,65.6-171.2,65.6-382.4,0-316.8-65.6-382.4ZM843.2,843.2c-56.8,56.8-148.3,56.8-331.2,56.8s-274.4,0-331.2-56.8c-56.8-56.8-56.8-148.3-56.8-331.2s0-274.4,56.8-331.2c56.8-56.8,148.3-56.8,331.2-56.8s274.4,0,331.2,56.8c56.8,56.8,56.8,148.3,56.8,331.2s0,274.4-56.8,331.2Z" />
</svg>