<?xml version="1.0" encoding="UTF-8"?>
<svg id="xterm-active-layer" xmlns="http://www.w3.org/2000/svg" version="1.1"
	viewBox="0 0 1024 1024">
	<style>
		.xterm-active-icon {
		fill: url(#xterm-gradient);
		}
	</style>
	<defs>
		<linearGradient id="xterm-gradient" x1="512" y1="960" x2="512" y2="64"
			gradientUnits="userSpaceOnUse">
			<stop offset="0" stop-color="var(--bt-menu-icon-gradient-color-1, #20a53a)" />
			<stop offset="1" stop-color="var(--bt-menu-icon-gradient-color-2, #068f20)" />
		</linearGradient>
	</defs>
	<path class="xterm-active-icon"
		d="M894.4,129.6c-65.6-65.6-171.2-65.6-382.4-65.6s-316.8,0-382.4,65.6-65.6,171.2-65.6,382.4,0,316.8,65.6,382.4c65.6,65.6,171.2,65.6,382.4,65.6s316.8,0,382.4-65.6,65.6-171.2,65.6-382.4,0-316.8-65.6-382.4ZM280.2,698.1c-19.7,21.2-55.3,8-56.4-20.9h0c-.3-8.6,2.8-17,8.7-23.3l116.3-125.2c12.2-13.2,11.5-33.8-1.7-46l-125.2-116.3c-6.3-5.9-10.1-14-10.4-22.6h0c-1.1-29,33.4-44.8,54.7-25l172.9,160.6c13.2,12.2,13.9,32.8,1.7,46l-160.6,172.9ZM603,678.5c0,16.6-13.4,30-30,30h-100c-16.6,0-30-13.4-30-30h0c0-16.6,13.4-30,30-30h100c16.6,0,30,13.4,30,30h0Z" />
</svg>