<?xml version="1.0" standalone="no"?><!DOCTYPE svg PUBLIC "-//W3C//DTD SVG 1.1//EN" "http://www.w3.org/Graphics/SVG/1.1/DTD/svg11.dtd"><svg t="1758180723116" class="icon" viewBox="0 0 1024 1024" version="1.1" xmlns="http://www.w3.org/2000/svg" p-id="6578" xmlns:xlink="http://www.w3.org/1999/xlink" width="200" height="200"><path d="M372 519c0 81.3 65.7 147 147 147s147-65.7 147-147-65.7-147-147-147-147 65.6-147 147z" fill="#4B8AF4" p-id="6579"></path><path d="M929.6 358l-253.9 12.9c68.9 79.1 70 193.2 12 280.7L484 959.3c84.5 4.5 171.7-13.7 250.6-58.8 195-110.6 274.2-342.7 195-542.5z" fill="#FFCE46" p-id="6580"></path><path d="M303.8 590.6L136.5 260C90.7 330.2 64 414.6 64 504.8 64 728.2 226.8 913.2 439.7 946L554 721.1c-103.3 19.5-203-37.4-250.2-130.5z" fill="#1CA260" p-id="6581"></path><path d="M536.2 290.3L904 309.8c-37.6-75.1-96.8-140.4-174.5-185.9C659.1 82.9 581.8 63.5 506 64c-130.8 0.5-258.7 59.4-344 166.2L298.9 442c34.2-98.9 133.3-157.8 237.3-151.7z" fill="#DD4D40" p-id="6582"></path></svg>