<?xml version="1.0" standalone="no"?><!DOCTYPE svg PUBLIC "-//W3C//DTD SVG 1.1//EN" "http://www.w3.org/Graphics/SVG/1.1/DTD/svg11.dtd"><svg t="1758180977985" class="icon" viewBox="0 0 1024 1024" version="1.1" xmlns="http://www.w3.org/2000/svg" p-id="13304" xmlns:xlink="http://www.w3.org/1999/xlink" width="200" height="200"><path d="M515.2 515.2m-506.666667 0a506.666667 506.666667 0 1 0 1013.333334 0 506.666667 506.666667 0 1 0-1013.333334 0Z" fill="#4E6070" p-id="13305"></path><path d="M471.4368 387.0208c0-51.630933-41.856-93.482667-93.486933-93.482667s-93.482667 41.851733-93.482667 93.482667c0 39.701333 24.7936 73.540267 59.703467 87.0912v258.116267h67.554133V474.112c34.9184-13.550933 59.712-47.389867 59.712-87.0912zM684.526933 551.534933V293.661867h-67.5584v257.8688c-34.914133 13.550933-59.6992 47.381333-59.6992 87.082666 0 51.6352 41.856 93.486933 93.474134 93.486934 51.6352 0 93.4912-41.856 93.4912-93.486934 0-39.6928-24.802133-73.531733-59.707734-87.0784z" fill="#FFFFFF" p-id="13306"></path><path d="M649.9584 640.426667m-101.691733 0a101.691733 101.691733 0 1 0 203.383466 0 101.691733 101.691733 0 1 0-203.383466 0Z" fill="#FF9191" p-id="13307"></path><path d="M376.891733 384.426667m-101.691733 0a101.691733 101.691733 0 1 0 203.383467 0 101.691733 101.691733 0 1 0-203.383467 0Z" fill="#00CCC6" p-id="13308"></path></svg>